<svg xmlns="http://www.w3.org/2000/svg" width="42.034" height="29.942" viewBox="0 0 42.034 29.942"><defs><style>.a{fill:#b2ac00;}</style></defs><g transform="translate(0 -73.644)"><path class="a" d="M39.359,103.586a2.535,2.535,0,0,0,2.675-2.542V80.749a2.57,2.57,0,0,0-1.37-2.349,2.015,2.015,0,0,0-2.418.55l-4.27,4.9a2.025,2.025,0,0,1-3.138,0l-8.252-9.457a2.025,2.025,0,0,0-3.138,0L11.2,83.846a2.025,2.025,0,0,1-3.138,0l-4.27-4.9A2.015,2.015,0,0,0,1.37,78.4,2.57,2.57,0,0,0,0,80.749v20.295a2.538,2.538,0,0,0,2.678,2.542H39.359Z"/></g></svg>