<svg xmlns="http://www.w3.org/2000/svg" width="42.034" height="29.942" viewBox="0 0 42.034 29.942"><defs><style>.a{fill:#cc782f;}.b{fill:#fff;}</style></defs><g transform="translate(-359 -3802.77)"><g transform="translate(359 3729.125)"><path class="a" d="M39.359,103.586a2.535,2.535,0,0,0,2.675-2.542V80.749a2.57,2.57,0,0,0-1.37-2.349,2.015,2.015,0,0,0-2.418.55l-4.27,4.9a2.025,2.025,0,0,1-3.138,0l-8.252-9.457a2.025,2.025,0,0,0-3.138,0L11.2,83.846a2.025,2.025,0,0,1-3.138,0l-4.27-4.9A2.015,2.015,0,0,0,1.37,78.4,2.57,2.57,0,0,0,0,80.749v20.295a2.538,2.538,0,0,0,2.678,2.542H39.359Z"/></g><path class="b" d="M1.848-8.3a.766.766,0,0,1-.56-.238A.766.766,0,0,1,1.05-9.1v-.322a.766.766,0,0,1,.238-.56.766.766,0,0,1,.56-.238H7.07a.766.766,0,0,1,.56.238.766.766,0,0,1,.238.56V-9.1a1.605,1.605,0,0,1-.616,1.3L5.138-6.048v.014a.012.012,0,0,0,.014.014H5.32a2.6,2.6,0,0,1,1.953.756A2.807,2.807,0,0,1,8.008-3.22,3.131,3.131,0,0,1,7.014-.728,4.213,4.213,0,0,1,4.158.14,10.023,10.023,0,0,1,1.89-.126.973.973,0,0,1,1.337-.5a1.051,1.051,0,0,1-.217-.651v-.476a.509.509,0,0,1,.231-.441.566.566,0,0,1,.511-.077,6.928,6.928,0,0,0,2.1.392,1.9,1.9,0,0,0,1.26-.378,1.3,1.3,0,0,0,.448-1.05,1.006,1.006,0,0,0-.518-.966A4.63,4.63,0,0,0,3.22-4.438a.778.778,0,0,1-.56-.231.744.744,0,0,1-.238-.553V-5.25a1.646,1.646,0,0,1,.6-1.3L5.012-8.274v-.014A.012.012,0,0,0,5-8.3Z" transform="translate(376 3827)"/></g></svg>