<?xml version="1.0" encoding="utf-8"?>
<!-- Generator: Adobe Illustrator 24.2.3, SVG Export Plug-In . SVG Version: 6.00 Build 0)  -->
<svg version="1.1" id="レイヤー_1" xmlns="http://www.w3.org/2000/svg" xmlns:xlink="http://www.w3.org/1999/xlink" x="0px"
	 y="0px" viewBox="0 0 42 29.9" style="enable-background:new 0 0 42 29.9;" xml:space="preserve">
<style type="text/css">
	.st0{fill:#A2A2A2;}
	.st1{fill:#FFFFFF;stroke:#FFFFFF;stroke-linejoin:round;stroke-miterlimit:10;}
</style>
<g>
	<g transform="translate(-359 -3802.77)">
		<g transform="translate(359 3729.125)">
			<path class="st0" d="M39.4,103.6c1.4,0.1,2.6-1,2.7-2.4c0-0.1,0-0.1,0-0.2V80.7c0-1-0.5-1.9-1.4-2.3c-0.8-0.4-1.8-0.2-2.4,0.6
				L34,83.8c-0.7,0.9-2,1-2.8,0.3c-0.1-0.1-0.2-0.2-0.3-0.3l-8.3-9.5c-0.7-0.9-2-1-2.8-0.3c-0.1,0.1-0.2,0.2-0.3,0.3l-8.2,9.5
				c-0.7,0.9-2,1-2.8,0.3C8.2,84,8.1,84,8.1,83.8l-4.3-4.9c-0.6-0.7-1.6-0.9-2.4-0.5C0.5,78.9,0,79.8,0,80.7V101
				c0,1.4,1.1,2.5,2.5,2.5c0,0,0.1,0,0.1,0H39.4z"/>
		</g>
	</g>
	<g>
		<g>
			<path class="st1" d="M18.9,19.7c0-3.6,1.6-5,3.4-5c1,0,1.7,0.4,2.2,0.9l-0.6,0.7c-0.4-0.4-0.9-0.7-1.5-0.7c-1.3,0-2.4,1-2.4,4
				c0,2.2,0.7,3.4,2,3.4c0.9,0,1.6-0.8,1.6-2c0-1.2-0.5-1.9-1.7-1.9c-0.6,0-1.3,0.3-1.9,1.3l0-0.9c0.6-0.8,1.4-1.2,2.2-1.2
				c1.5,0,2.6,0.9,2.6,2.8c0,1.7-1.2,2.9-2.6,2.9C20.2,24,18.9,22.6,18.9,19.7z"/>
		</g>
	</g>
</g>
</svg>
