<svg xmlns="http://www.w3.org/2000/svg" width="42.034" height="29.942" viewBox="0 0 42.034 29.942"><defs><style>.a{fill:#a2a2a2;}.b{fill:#fff;}</style></defs><g transform="translate(-359 -3802.77)"><g transform="translate(359 3729.125)"><path class="a" d="M39.359,103.586a2.535,2.535,0,0,0,2.675-2.542V80.749a2.57,2.57,0,0,0-1.37-2.349,2.015,2.015,0,0,0-2.418.55l-4.27,4.9a2.025,2.025,0,0,1-3.138,0l-8.252-9.457a2.025,2.025,0,0,0-3.138,0L11.2,83.846a2.025,2.025,0,0,1-3.138,0l-4.27-4.9A2.015,2.015,0,0,0,1.37,78.4,2.57,2.57,0,0,0,0,80.749v20.295a2.538,2.538,0,0,0,2.678,2.542H39.359Z"/></g><path class="b" d="M2.268-3.85v.014a.012.012,0,0,0,.014.014h2.31q.126,0,.126-.112V-7.322A.012.012,0,0,0,4.7-7.336q-.028,0-.028.014ZM.952-1.96A.744.744,0,0,1,.4-2.2a.778.778,0,0,1-.231-.56v-.266A2.456,2.456,0,0,1,.63-4.466l3.626-5.11A1.456,1.456,0,0,1,5.5-10.22h.7a.744.744,0,0,1,.553.238.778.778,0,0,1,.231.56v5.488q0,.112.126.112h.56a.766.766,0,0,1,.56.238.766.766,0,0,1,.238.56v.266a.766.766,0,0,1-.238.56.766.766,0,0,1-.56.238h-.56a.111.111,0,0,0-.126.126V-.8a.778.778,0,0,1-.231.56A.744.744,0,0,1,6.2,0H5.5a.744.744,0,0,1-.553-.238A.778.778,0,0,1,4.718-.8V-1.834a.111.111,0,0,0-.126-.126Z" transform="translate(376 3827)"/></g></svg>