<svg xmlns="http://www.w3.org/2000/svg" xmlns:xlink="http://www.w3.org/1999/xlink" width="24" height="24" viewBox="0 0 24 24"><defs><clipPath id="a"><rect width="24" height="24" fill="none"/></clipPath></defs><g clip-path="url(#a)"><path d="M0,0H24V24H0Z" fill="none"/><path d="M18,9.8a.215.215,0,0,1,.2.2V20a.215.215,0,0,1-.2.2H6a.215.215,0,0,1-.2-.2V10A.215.215,0,0,1,6,9.8H18M12,1A4.951,4.951,0,0,0,7,6V8H6a2.006,2.006,0,0,0-2,2V20a2.006,2.006,0,0,0,2,2H18a2.006,2.006,0,0,0,2-2V10a2.006,2.006,0,0,0-2-2H17V6a4.951,4.951,0,0,0-5-5ZM8.9,8V6a3.1,3.1,0,0,1,6.2,0V8Z" fill="#523f30"/></g></svg>