<svg xmlns="http://www.w3.org/2000/svg" width="136" height="52" viewBox="0 0 136 52"><defs><style>.a{fill:#4169e1;}.b,.c{fill:#fff;}.b{font-size:12px;font-family:NotoSansCJKjp-Medium, Noto Sans CJK JP;font-weight:500;}</style></defs><g transform="translate(-278)"><rect class="a" width="136" height="52" transform="translate(278)"/><text class="b" transform="translate(321 31)"><tspan x="0" y="0">電話</tspan><tspan y="0">でお</tspan><tspan y="0">問合</tspan><tspan y="0">せ</tspan></text><g transform="translate(340 13)"><g transform="translate(4)"><path class="c" d="M20,11h2a8.807,8.807,0,0,0-9.01-9V4A6.774,6.774,0,0,1,20,11Z" transform="translate(-52 1)"/><path class="c" d="M14.123,8.541c2.339,0,3.337,1,3.337,3.337h2.225c0-3.587-1.974-5.561-5.561-5.561Zm3.806,6.054a1.113,1.113,0,0,0-1.547.048L13.72,17.38a6.386,6.386,0,0,1-3.255-1.846,6.354,6.354,0,0,1-1.846-3.254l2.735-2.663A1.112,1.112,0,0,0,11.4,8.069L7.292,3.55a1.112,1.112,0,0,0-1.547-.1L3.331,5.523a1.112,1.112,0,0,0-.323.722A16.8,16.8,0,0,0,7.782,18.219,16.843,16.843,0,0,0,19.356,23c.225,0,.363-.007.4-.009a1.1,1.1,0,0,0,.721-.324l2.069-2.415a1.113,1.113,0,0,0-.1-1.547Z" transform="translate(-54 1)"/></g></g></g></svg>