<svg xmlns="http://www.w3.org/2000/svg" width="229" height="21" viewBox="0 0 229 21"><defs><style>.a{fill:#343c43;}.b{fill:#4169e1;}</style></defs><g transform="translate(0 0)"><path class="a" d="M356.607,350.843v4.449a.5.5,0,0,0,.5.5h7.535a.5.5,0,0,1,.5.5v2.4a.5.5,0,0,1-.5.5H357.1a.5.5,0,0,0-.5.5v7.064a.5.5,0,0,1-.5.5H353.27a.5.5,0,0,1-.5-.5V347.385a.5.5,0,0,1,.5-.5h12.313a.5.5,0,0,1,.5.5v2.453a.5.5,0,0,1-.5.5H357.1A.5.5,0,0,0,356.607,350.843Z" transform="translate(-352.773 -346.574)"/><path class="a" d="M401.321,358.55V347.385a.5.5,0,0,1,.5-.5h2.841a.5.5,0,0,1,.5.5v11.221c0,3.345,1.917,5.313,5,5.313s4.973-1.968,4.973-5.313V347.385a.5.5,0,0,1,.5-.5h2.785a.5.5,0,0,1,.5.5V358.55c0,5.51-3.361,9.024-8.778,9.024C404.738,367.574,401.321,364.06,401.321,358.55Z" transform="translate(-383.098 -346.574)"/><path class="a" d="M460.021,359.983h2.9a.5.5,0,0,1,.492.46,3.353,3.353,0,0,0,3.483,3.448c2.167,0,3.472-1.49,3.472-3.908v-12.6a.5.5,0,0,1,.5-.5h2.869a.5.5,0,0,1,.5.5v12.57c0,4.666-2.861,7.618-7.334,7.618-4.324,0-7.16-2.725-7.376-7.053A.5.5,0,0,1,460.021,359.983Z" transform="translate(-419.454 -346.574)"/><path class="a" d="M514.308,346.883h2.924a.5.5,0,0,1,.5.5v19.377a.5.5,0,0,1-.5.5h-2.924a.5.5,0,0,1-.5-.5V347.385A.5.5,0,0,1,514.308,346.883Z" transform="translate(-453.364 -346.574)"/><path class="a" d="M552.968,367.019l-3.983-6.8a.493.493,0,0,0-.839-.024l-4.554,6.85a.494.494,0,0,1-.412.222H540.8a.5.5,0,0,1-.5-.5V347.385a.5.5,0,0,1,.5-.5h2.813a.5.5,0,0,1,.5.5V359.2c0,.016,0,.032,0,.048l-.192,2.028.761-2.007a.493.493,0,0,1,.042-.086l7.44-12.064a.5.5,0,0,1,.421-.237h3.286a.5.5,0,0,1,.417.775l-5.307,8.318a.507.507,0,0,0,0,.539l6.189,9.98a.5.5,0,0,1-.42.769h-3.348A.5.5,0,0,1,552.968,367.019Z" transform="translate(-469.913 -346.574)"/><path class="a" d="M589.667,356.555a10.23,10.23,0,0,1,10.556-10.486c6.139,0,10.556,4.3,10.556,10.486a10.556,10.556,0,0,1-21.112,0Zm17.2,0c.028-4.1-2.695-6.831-6.639-6.831a6.465,6.465,0,0,0-6.667,6.831c0,4.076,2.695,6.832,6.667,6.832A6.443,6.443,0,0,0,606.862,356.555Z" transform="translate(-500.746 -346.07)"/><path class="a" d="M659.73,346.883H662.3a.5.5,0,0,1,.391.193L672.4,359.65a.5.5,0,0,0,.887-.309V347.385a.5.5,0,0,1,.5-.5h2.758a.5.5,0,0,1,.5.5v19.377a.5.5,0,0,1-.5.5H674a.5.5,0,0,1-.39-.192L663.9,354.548a.5.5,0,0,0-.887.31v11.9a.5.5,0,0,1-.5.5H659.73a.5.5,0,0,1-.5-.5V347.385A.5.5,0,0,1,659.73,346.883Z" transform="translate(-544.2 -346.574)"/></g><g transform="translate(139.495)"><path class="b" d="M735.856,366.343H732.58a.546.546,0,0,0-.542.549v3.316a.546.546,0,0,1-.542.549H729.3a.546.546,0,0,1-.542-.549v-3.316a.546.546,0,0,0-.543-.549h-3.276a.546.546,0,0,1-.543-.549v-2.079a.546.546,0,0,1,.543-.549h3.276a.546.546,0,0,0,.543-.549v-3.343a.546.546,0,0,1,.542-.549h2.193a.546.546,0,0,1,.542.549v3.343a.546.546,0,0,0,.542.549h3.277a.546.546,0,0,1,.542.549v2.079A.546.546,0,0,1,735.856,366.343Z" transform="translate(-724.398 -353.917)"/><path class="b" d="M787.218,354.023c0,4.386-3.083,7.169-7.889,7.169h-3.041a.546.546,0,0,0-.542.549v4.974a.546.546,0,0,1-.542.549h-2.748a.546.546,0,0,1-.543-.549V347.432a.546.546,0,0,1,.543-.549h6.9C784.218,346.883,787.218,349.61,787.218,354.023Zm-3.917,0c0-2.22-1.472-3.542-3.917-3.542h-3.1a.546.546,0,0,0-.542.549v5.986a.546.546,0,0,0,.542.549h3.069C781.829,357.566,783.3,356.216,783.3,354.023Z" transform="translate(-754.077 -346.574)"/><path class="b" d="M835.82,364.131v2.584a.546.546,0,0,1-.543.549H823.223a.546.546,0,0,1-.542-.549V347.432a.546.546,0,0,1,.542-.549h2.8a.546.546,0,0,1,.542.549v15.6a.546.546,0,0,0,.543.549h8.165A.546.546,0,0,1,835.82,364.131Z" transform="translate(-785.789 -346.574)"/><path class="b" d="M866.048,358.549V347.432a.546.546,0,0,1,.542-.549h2.748a.546.546,0,0,1,.543.549v11.174c0,3.345,1.917,5.313,5,5.313s4.972-1.968,4.972-5.313V347.432a.546.546,0,0,1,.543-.549h2.692a.546.546,0,0,1,.543.549v11.117c0,5.51-3.361,9.024-8.778,9.024C869.464,367.574,866.048,364.059,866.048,358.549Z" transform="translate(-812.878 -346.574)"/><path class="b" d="M925.722,361.625l2.42-.725a.537.537,0,0,1,.661.333,3.539,3.539,0,0,0,3.472,2.491c1.972,0,3.222-.928,3.222-2.474,0-1.49-.916-2.334-2.833-2.9l-2.278-.647c-3.25-.956-4.861-2.811-4.861-5.82,0-3.57,2.555-5.819,6.611-5.819,4.445,0,6.087,2.8,6.588,4.011a.549.549,0,0,1-.324.725l-2.387.844a.54.54,0,0,1-.678-.3,3.188,3.188,0,0,0-3.145-1.958c-1.778,0-2.917.872-2.917,2.306s.973,2.3,3,2.923l2.389.7c3.139.956,4.75,2.811,4.75,5.735,0,3.683-2.778,6.016-7.084,6.016a7.06,7.06,0,0,1-6.963-4.724A.55.55,0,0,1,925.722,361.625Z" transform="translate(-849.909 -346.069)"/></g></svg>