<svg xmlns="http://www.w3.org/2000/svg" width="256" height="35" viewBox="0 0 256 35">
  <g id="グループ_763" data-name="グループ 763" transform="translate(-610.168 -77.71)">
    <path id="パス_1643" data-name="パス 1643" d="M659.638,78.952l-15.214,33.141a1.044,1.044,0,0,1-.916.7h-.071a1.073,1.073,0,0,1-.94-.7l-7.619-16.267L627.4,112.093a1.02,1.02,0,0,1-.916.7h-.071a1.021,1.021,0,0,1-.917-.7L610.259,78.93c-.235-.518,0-.856.564-.856h2.751a.973.973,0,0,1,.847.586L626.46,105.6,638.5,78.682a.913.913,0,0,1,.8-.608h2.751c.588,0,.8.361.588.878l-5.691,12.369,6.513,14.757,12.063-27.4a.856.856,0,0,1,.753-.608h2.8C659.662,78.074,659.873,78.435,659.638,78.952Z" transform="translate(0 -0.082)" fill="#463e3b"/>
    <path id="パス_1644" data-name="パス 1644" d="M703.677,112.287H700.9a.89.89,0,0,1-.776-.609l-1.9-4.37H678.353l-1.882,4.348a.919.919,0,0,1-.8.608h-2.727c-.611,0-.847-.337-.611-.878l15-33.045a.991.991,0,0,1,.87-.631h.189a1.017,1.017,0,0,1,.87.653l15,33.045C704.5,111.9,704.265,112.287,703.677,112.287ZM696.787,104,688.3,84.423,679.787,104Z" transform="translate(-13.909 0)" fill="#463e3b"/>
    <path id="パス_1645" data-name="パス 1645" d="M713.4,78.779a.638.638,0,0,1,.729-.675h24.078a.623.623,0,0,1,.682.675v1.936a.647.647,0,0,1-.682.721h-10.11v30.195a.65.65,0,0,1-.729.72H724.9a.65.65,0,0,1-.729-.72V81.436h-10.04a.661.661,0,0,1-.729-.721Z" transform="translate(-23.13 -0.088)" fill="#463e3b"/>
    <path id="パス_1646" data-name="パス 1646" d="M778.693,112.287h-2.775a.891.891,0,0,1-.776-.609l-1.9-4.37H753.369l-1.882,4.348a.92.92,0,0,1-.8.608H747.96c-.611,0-.847-.337-.611-.878l15-33.045a.991.991,0,0,1,.87-.631h.188a1.017,1.017,0,0,1,.87.653l15,33.045C779.515,111.9,779.28,112.287,778.693,112.287ZM771.8,104l-8.489-19.575L754.8,104Z" transform="translate(-30.718 0)" fill="#463e3b"/>
    <path id="パス_1647" data-name="パス 1647" d="M816.509,78.936,804.728,98.28v13.308c0,.473-.235.743-.682.743h-2.492a.691.691,0,0,1-.776-.743V98.212l-11.757-19.3c-.258-.563,0-.9.518-.9h2.916a1.055,1.055,0,0,1,.846.563l9.477,15.852,9.476-15.852a1.009,1.009,0,0,1,.846-.563h2.963C816.579,78.013,816.814,78.351,816.509,78.936Z" transform="translate(-40.052 -0.068)" fill="#463e3b"/>
    <path id="パス_1648" data-name="パス 1648" d="M837.829,98.629a10.774,10.774,0,0,0,21.539,0V78.6c0-.406.234-.586.634-.586h2.681c.4,0,.635.18.635.586V98.742c0,8.066-6.3,14.036-14.719,14.036-8.465,0-14.7-6.061-14.7-14.194V78.6a.519.519,0,0,1,.588-.586h2.774c.377,0,.565.18.565.586Z" transform="translate(-50.131 -0.068)" fill="#463e3b"/>
    <path id="パス_1649" data-name="パス 1649" d="M915.159,112.355h-3.08a1.073,1.073,0,0,1-.776-.473L898.418,90.939l-8.159,7.251v13.579a.522.522,0,0,1-.588.563h-2.727c-.4,0-.611-.2-.611-.563V78.576c0-.36.211-.563.611-.563h2.727a.522.522,0,0,1,.588.563V93.394l16.906-14.818a1.407,1.407,0,0,1,1.082-.5H911.4a.544.544,0,0,1,.352.991L901.311,88.35l14.32,23.082C915.935,111.927,915.7,112.355,915.159,112.355Z" transform="translate(-61.879 -0.068)" fill="#463e3b"/>
    <path id="パス_1650" data-name="パス 1650" d="M938.96,111.768a.54.54,0,0,1-.611.563H935.6a.5.5,0,0,1-.564-.563V78.576a.5.5,0,0,1,.564-.563h2.752a.54.54,0,0,1,.611.563Z" transform="translate(-72.792 -0.068)" fill="#463e3b"/>
  </g>
</svg>
