<svg xmlns="http://www.w3.org/2000/svg" width="243.258" height="48.013" viewBox="0 0 243.258 48.013">
  <g id="グループ_798" data-name="グループ 798" transform="translate(-890.646 -672.369)">
    <g id="グループ_794" data-name="グループ 794" transform="translate(890.75 674.682)">
      <path id="パス_1730" data-name="パス 1730" d="M914.428,694.117a1.261,1.261,0,0,0-.626-.828l-4.833-2.86h-.025a1.312,1.312,0,0,0-.676-.15,1.535,1.535,0,0,0-1.052.4l-1.427,1.456a.419.419,0,0,1-.163.088.6.6,0,0,1-.163.037l-.312-.063a3.85,3.85,0,0,1-.9-.363,11.708,11.708,0,0,1-1.466-.941A24.071,24.071,0,0,1,899,687.106a11.074,11.074,0,0,1-.926-1.468,4.557,4.557,0,0,1-.451-1.2.625.625,0,0,1,.038-.188.421.421,0,0,1,.088-.163l1.227-1.229a1.562,1.562,0,0,0,.426-.8,1.227,1.227,0,0,0-.125-.878l-2.68-5.093a1.721,1.721,0,0,0-.425-.464.938.938,0,0,0-.576-.188,1.1,1.1,0,0,0-.8.351l-3.331,3.336a1.906,1.906,0,0,0-.426.589,3.441,3.441,0,0,0-.25,1.216,6.134,6.134,0,0,0,.1,1.242,12.766,12.766,0,0,0,.475,1.883,15.754,15.754,0,0,0,1.052,2.433,23.525,23.525,0,0,0,1.853,2.923,27.476,27.476,0,0,0,2.9,3.311,26.085,26.085,0,0,0,4.158,3.513,21.779,21.779,0,0,0,3.494,1.919,11.631,11.631,0,0,0,2.6.8,10,10,0,0,0,2.015.138,2.2,2.2,0,0,0,.713-.226,1.886,1.886,0,0,0,.589-.427l3.329-3.311A1.146,1.146,0,0,0,914.428,694.117Z" transform="translate(-890.783 -675.427)" fill="#463e3b" fill-rule="evenodd"/>
    </g>
    <g id="グループ_796" data-name="グループ 796" transform="translate(919.573 672.369)">
      <g id="グループ_795" data-name="グループ 795">
        <path id="パス_1731" data-name="パス 1731" d="M937.572,672.369q3.664,0,6.178,3.674t2.513,10.415q0,6.274-2.464,10.055t-6.148,3.78a7.333,7.333,0,0,1-6.314-3.712q-2.455-3.712-2.455-9.772,0-7.541,2.64-10.99T937.572,672.369Zm-.077,26.015q3.039,0,4.89-3.429a21.283,21.283,0,0,0,.049-17.256q-1.8-3.42-4.862-3.42-2.884,0-4.774,3.361a17.649,17.649,0,0,0-1.89,8.7,17.939,17.939,0,0,0,1.841,8.72Q934.591,698.384,937.5,698.384Z" transform="translate(-928.882 -672.369)" fill="#463e3b"/>
        <path id="パス_1732" data-name="パス 1732" d="M964.77,672.833v27.222h-2.027V672.833Z" transform="translate(-937.126 -672.482)" fill="#463e3b"/>
        <path id="パス_1733" data-name="パス 1733" d="M983.233,672.833v27.222h-2.027V672.833Z" transform="translate(-941.621 -672.482)" fill="#463e3b"/>
        <path id="パス_1734" data-name="パス 1734" d="M1004.582,695.68v1.87h-9.451v-1.87Z" transform="translate(-945.011 -678.044)" fill="#463e3b"/>
        <path id="パス_1735" data-name="パス 1735" d="M1019.3,685.776a7.194,7.194,0,0,1-3.566-6.138,7.015,7.015,0,0,1,2.143-5.105,6.874,6.874,0,0,1,5.048-2.164,7.016,7.016,0,0,1,5.125,2.133,6.944,6.944,0,0,1,2.143,5.1,7.142,7.142,0,0,1-3.469,6.177,7.786,7.786,0,0,1,1.782,12.266,7.4,7.4,0,0,1-5.465,2.251,7.63,7.63,0,0,1-5.545-2.221,7.269,7.269,0,0,1-2.27-5.4A7.663,7.663,0,0,1,1019.3,685.776Zm9.412,6.626a5.315,5.315,0,0,0-1.686-3.957,5.669,5.669,0,0,0-4.1-1.636,5.388,5.388,0,0,0-4.014,1.705,5.845,5.845,0,0,0,.02,8.174,5.558,5.558,0,0,0,4.112,1.7,5.353,5.353,0,0,0,4.072-1.7A6,6,0,0,0,1028.716,692.4Zm-10.933-12.8a5.163,5.163,0,0,0,1.511,3.76,4.994,4.994,0,0,0,3.712,1.54,4.862,4.862,0,0,0,3.683-1.54,5.38,5.38,0,0,0,1.462-3.858,5.2,5.2,0,0,0-5.222-5.222,4.884,4.884,0,0,0-3.644,1.549A5.222,5.222,0,0,0,1017.784,679.6Z" transform="translate(-949.905 -672.369)" fill="#463e3b"/>
        <path id="パス_1736" data-name="パス 1736" d="M1055.844,672.369l1.188,1.442q-8.73,6.178-10.133,13.524a9.956,9.956,0,0,1,6.021-2.124,7.466,7.466,0,0,1,5.437,2.133,7.1,7.1,0,0,1,2.183,5.29,7.41,7.41,0,0,1-2.183,5.5,8.266,8.266,0,0,1-11.594-.438,10.253,10.253,0,0,1-2.26-6.967Q1044.5,680.748,1055.844,672.369Zm-9.314,17.324a12.454,12.454,0,0,0-.078,1.384,7.759,7.759,0,0,0,1.753,5.309,5.7,5.7,0,0,0,4.483,2,5.848,5.848,0,0,0,4.151-1.568,5.113,5.113,0,0,0,1.675-3.888,5.55,5.55,0,0,0-1.695-4.122,5.721,5.721,0,0,0-4.17-1.666A9.214,9.214,0,0,0,1046.53,689.693Z" transform="translate(-957.032 -672.369)" fill="#463e3b"/>
        <path id="パス_1737" data-name="パス 1737" d="M1078.871,672.833v27.222h-2.026V672.833Z" transform="translate(-964.906 -672.482)" fill="#463e3b"/>
        <path id="パス_1738" data-name="パス 1738" d="M1099.165,695.68v1.87h-9.451v-1.87Z" transform="translate(-968.039 -678.044)" fill="#463e3b"/>
        <path id="パス_1739" data-name="パス 1739" d="M1123.886,672.369V687.8h3.8v1.636h-3.8v10.5h-2.027v-10.5h-12.412v-.662l13.68-16.408Zm-2.027,15.434v-11.48l-9.6,11.48Z" transform="translate(-972.843 -672.369)" fill="#463e3b"/>
        <path id="パス_1740" data-name="パス 1740" d="M1146.288,672.833v27.222h-2.026V672.833Z" transform="translate(-981.32 -672.482)" fill="#463e3b"/>
        <path id="パス_1741" data-name="パス 1741" d="M1171.363,672.369V687.8h3.8v1.636h-3.8v10.5h-2.027v-10.5h-12.413v-.662l13.68-16.408Zm-2.027,15.434v-11.48l-9.6,11.48Z" transform="translate(-984.402 -672.369)" fill="#463e3b"/>
        <path id="パス_1742" data-name="パス 1742" d="M1200.806,672.369l1.188,1.442q-8.73,6.178-10.133,13.524a9.956,9.956,0,0,1,6.021-2.124,7.467,7.467,0,0,1,5.436,2.133,7.1,7.1,0,0,1,2.183,5.29,7.41,7.41,0,0,1-2.183,5.5,8.265,8.265,0,0,1-11.594-.438,10.252,10.252,0,0,1-2.261-6.967Q1189.465,680.748,1200.806,672.369Zm-9.314,17.324a12.454,12.454,0,0,0-.078,1.384,7.756,7.756,0,0,0,1.753,5.309,5.7,5.7,0,0,0,4.483,2,5.849,5.849,0,0,0,4.151-1.568,5.114,5.114,0,0,0,1.675-3.888,5.55,5.55,0,0,0-1.695-4.122,5.721,5.721,0,0,0-4.171-1.666A9.213,9.213,0,0,0,1191.492,689.693Z" transform="translate(-992.325 -672.369)" fill="#463e3b"/>
      </g>
    </g>
    <g id="グループ_797" data-name="グループ 797" transform="translate(890.646 708.273)">
      <path id="パス_1743" data-name="パス 1743" d="M893.795,731.716c0,.279-.049.353-.3.353-.085,0-.644-.025-1.033-.025h-1.446c-.3,0-.365-.061-.365-.365V721.092c0-.3.061-.365.365-.365h1.446c.39,0,.948-.024,1.033-.024.255,0,.3.073.3.353v.45c0,.291-.036.353-.292.353-.158,0-.656-.012-1.046-.012H892.1c-.292,0-.34.048-.34.328V730.6c0,.279.048.328.34.328h.353c.39,0,.887-.012,1.046-.012.256,0,.292.061.292.353Z" transform="translate(-890.646 -720.04)" fill="#463e3b"/>
      <path id="パス_1744" data-name="パス 1744" d="M901.549,728.173c-.206,0-.4.011-.6.011-.3,0-.291-.145-.291-.559s0-.547.291-.547c.487,0,.961.025,1.447.025h3.039c.232,0,.778-.025.949-.025a.923.923,0,0,1,.863.754c0,.486-1.24,1.616-1.63,1.932-.048.049-.1.086-.1.17s.06.122.134.158a12.466,12.466,0,0,0,3.513.912c.181.024.29.024.29.243s-.206.949-.558.949a10.762,10.762,0,0,1-1.313-.243,13.74,13.74,0,0,1-3.076-1.143.733.733,0,0,0-.279-.073.482.482,0,0,0-.256.073,14.263,14.263,0,0,1-3.9,1.277,4.176,4.176,0,0,1-.657.1c-.437,0-.632-.656-.632-.936,0-.194.182-.206.474-.243a13.64,13.64,0,0,0,3.684-.936c.073-.048.134-.1.134-.182a.266.266,0,0,0-.073-.182,10.448,10.448,0,0,1-1.058-1.264,1.034,1.034,0,0,0-.146-.182.393.393,0,0,0-.194-.085Zm2.882-3.2c0,.036.024.048.061.048h.912a.436.436,0,0,0,.462-.291,8.661,8.661,0,0,0,.815-1.763c.036-.122.06-.194.169-.194a3.823,3.823,0,0,1,.56.145c.62.183.754.244.754.365,0,.085-.073.121-.147.133-.194.036-.266.182-.424.523a8.9,8.9,0,0,1-.414.8.171.171,0,0,0-.036.11c0,.122.085.17.194.17.39,0,.766-.012,1.143-.012s.7.085.7.535c0,.231-.011.461-.011.717v.377c0,.182.023.377.023.56,0,.328-.17.328-.645.328-.437,0-.656.012-.656-.3,0-.195.036-.389.036-.583v-.182c0-.243-.109-.34-.34-.34h-6.917c-.231,0-.34.1-.34.34v.158c0,.182.036.377.036.571,0,.328-.194.3-.656.3s-.645.013-.645-.3c0-.194.024-.389.024-.571v-.353c0-.267-.012-.486-.012-.693,0-.438.256-.559.657-.559s.79.012,1.179.012c.109-.012.194-.048.194-.182a.411.411,0,0,0-.024-.109,9.907,9.907,0,0,0-.522-.925.392.392,0,0,1-.086-.194c0-.146.182-.243.291-.3.024-.023.049-.036.049-.073s-.036-.073-.085-.073h-.207a1.764,1.764,0,0,1-.558-.049c-.2-.109-.316-.62-.316-.827,0-.255.169-.279.377-.279.6,0,1.179.036,1.762.036a21.448,21.448,0,0,0,5.519-.68,1.25,1.25,0,0,1,.291-.073c.1,0,.194.122.341.3.085.1.169.207.291.328.1.1.3.3.3.437a.146.146,0,0,1-.134.146.361.361,0,0,1-.122-.036.769.769,0,0,0-.243-.061,1.036,1.036,0,0,0-.255.048,21.069,21.069,0,0,1-3.258.547c-.11.024-.182.073-.182.194a.414.414,0,0,0,.024.122,7.168,7.168,0,0,1,.5,1.263c0,.17-.267.28-.4.341A.054.054,0,0,0,904.431,724.976Zm-2.772-1.666a.172.172,0,0,0,.037.11,5.848,5.848,0,0,1,.62,1.228c0,.133-.134.219-.231.28-.025.011-.036.024-.036.048s.036.048.061.048h1.422c.109-.012.182-.048.182-.17a.3.3,0,0,0-.024-.1,6.878,6.878,0,0,0-.5-1.191.383.383,0,0,1-.073-.194c0-.085.061-.134.121-.182.012-.012.024-.024.024-.036a.044.044,0,0,0-.048-.048c-.462.024-.924.048-1.385.048C901.744,723.164,901.659,723.2,901.659,723.31Zm3.72,4.935c0-.072-.134-.085-.316-.085h-1.641c-.085,0-.182.037-.182.134a.178.178,0,0,0,.048.109,5.457,5.457,0,0,0,.754.742.476.476,0,0,0,.256.1.392.392,0,0,0,.255-.1C904.723,729.011,905.379,728.44,905.379,728.245Z" transform="translate(-892.629 -720.184)" fill="#463e3b"/>
      <path id="パス_1745" data-name="パス 1745" d="M917.711,726.924c-.013-.061-.037-.122-.11-.122-.037,0-.061.024-.1.048-.17.219-.353.437-.547.645-.1.109-.206.243-.365.243a1.407,1.407,0,0,1-.741-.753c0-.158.194-.341.3-.45a15.847,15.847,0,0,0,2.832-4.911c.037-.11.085-.268.219-.268a4.465,4.465,0,0,1,.864.328c.182.073.388.134.388.268,0,.1-.1.133-.169.17-.182.073-.232.207-.3.365-.34.826-.656,1.422-1.069,2.212-.012.012-.012.025-.012.049,0,.048.036.073.085.085.085.012.256.012.256.158,0,.11-.073.134-.158.194-.122.073-.134.231-.134.607v4.522c0,.523.024,1.045.024,1.58,0,.353-.133.4-.644.4s-.645-.048-.645-.4c0-.535.025-1.057.025-1.58Zm7.269,2.869c0,.328.036.656.036.984a1.461,1.461,0,0,1-.365,1.058,3.076,3.076,0,0,1-1.9.474c-.194,0-.608.013-.718-.158a2.023,2.023,0,0,1-.182-.85c0-.231.061-.328.3-.328.146,0,.462.036.729.036.827,0,.827-.28.827-1.288v-4.072c0-.243-.1-.34-.34-.34h-1.97c-.424,0-.875.024-1.227.024-.3,0-.291-.169-.291-.62,0-.474-.013-.62.3-.62.34,0,.791.024,1.215.024h1.97c.243,0,.34-.1.34-.34V722.8c0-.365-.024-.754-.048-1.058,0-.048-.013-.1-.013-.146,0-.158.122-.182.243-.182.147,0,1.143.073,1.264.1.073.025.147.073.147.158,0,.11-.1.146-.17.194-.146.085-.158.328-.158.766v1.142c.024.243.109.34.34.34.414.012.827-.024,1.191-.024.316,0,.3.158.3.62s.012.62-.3.62c-.34,0-.778-.036-1.191-.024-.231,0-.34.1-.34.34Zm-3.355-.548c-.194,0-.243-.145-.3-.3a14.68,14.68,0,0,0-.924-1.872c-.036-.085-.122-.194-.122-.279,0-.2.693-.523.875-.523.219,0,.389.4.779,1.167a8.726,8.726,0,0,1,.559,1.288C922.488,728.953,921.819,729.245,921.625,729.245Z" transform="translate(-896.783 -720.199)" fill="#463e3b"/>
      <path id="パス_1746" data-name="パス 1746" d="M935.5,729.683c-.219,0-.316.085-.328.316,0,.169.012.34.012.522,0,.3-.134.292-.62.292s-.6,0-.6-.3c0-.437.024-.875.024-1.325v-5.106c0-.34-.012-.693-.012-1.033,0-.365.073-.572.486-.572.206,0,.425.013.644.013h1.106c.219,0,.426-.013.645-.013.4,0,.486.183.486.572,0,.34-.011.692-.011,1.033V728.7c0,.45.024.9.024,1.35,0,.279-.134.279-.559.279-.511,0-.548-.011-.559-.377,0-.194-.1-.267-.281-.267Zm.426-4.182a.339.339,0,0,0,.34-.34v-1.215a.347.347,0,0,0-.34-.34H935.5a.347.347,0,0,0-.34.34v1.215a.339.339,0,0,0,.34.34Zm-.426,1.058a.347.347,0,0,0-.34.34v1.326a.347.347,0,0,0,.34.34h.426a.348.348,0,0,0,.34-.34V726.9a.347.347,0,0,0-.34-.34Zm5.956-3.988c0,.244.1.34.34.34h.426c.437,0,.862-.036,1.3-.036.28,0,.28.122.28.547s0,.535-.268.535c-.438,0-.875-.024-1.313-.024H941.8c-.243,0-.34.1-.34.34v.511c0,.232.1.341.34.341h.718c.486,0,.983-.036,1.471-.036.34,0,.328.134.328.571s.011.56-.316.56c-.5,0-1-.025-1.483-.025h-3.063c-.5,0-.985.025-1.484.025-.328,0-.316-.134-.316-.56s-.012-.571.328-.571c.487,0,.984.036,1.471.036h.449a.3.3,0,0,0,.341-.341v-.511c0-.243-.11-.34-.341-.34h-.085c-.437,0-.875.024-1.313.024-.268,0-.268-.122-.268-.535s0-.547.28-.547c.438,0,.863.036,1.3.036h.085c.231,0,.341-.1.341-.34a5.7,5.7,0,0,0-.049-.9c0-.036-.011-.085-.011-.11,0-.133.109-.158.219-.158.169,0,.875.061,1.07.086.085.011.279.024.279.145,0,.085-.085.122-.158.17-.121.085-.134.231-.134.449Zm1.58,4.838c.292,0,.571-.024.863-.024s.3.146.3.583,0,.571-.292.571-.583-.012-.875-.023c-.231.011-.316.109-.316.34v1.507c0,.256.013.524.013.778,0,1.107-1.045,1.155-1.884,1.155-.51,0-.826.061-.826-.948,0-.146.024-.316.206-.316.049,0,.353.024.632.024.669,0,.68-.145.68-.863v-1.337c0-.243-.1-.34-.34-.34h-1.763c-.413,0-.814.023-1.228.023-.292,0-.292-.134-.292-.571s-.011-.583.292-.583c.414,0,.827.024,1.228.024H941.2c.244,0,.316-.085.34-.315a3.868,3.868,0,0,0-.048-.535v-.1c0-.134.109-.158.206-.158.231,0,.8.048,1.034.073.1.011.316.011.316.133,0,.073-.1.11-.183.158-.133.061-.158.146-.146.426A.278.278,0,0,0,943.04,727.409Zm-3.549,3.513c-.134,0-.316-.267-.548-.62-.073-.1-.145-.194-.219-.3a4.351,4.351,0,0,0-.353-.486.332.332,0,0,1-.1-.182c0-.182.571-.608.754-.608.231,0,.62.6.753.778a3.642,3.642,0,0,1,.474.827C940.256,730.594,939.673,730.922,939.491,730.922Z" transform="translate(-901.194 -720.211)" fill="#463e3b"/>
      <path id="パス_1747" data-name="パス 1747" d="M952.437,730.178c0,.6.036,1.191.036,1.8,0,.377-.121.389-.632.389s-.632-.012-.632-.389c0-.6.024-1.191.024-1.8v-6.589c0-.377-.012-.753-.012-1.13,0-.474.182-.62.644-.62.3,0,.608.024.924.024h1.337c.3,0,.608-.024.924-.024.45,0,.645.134.645.608,0,.365-.012.729-.012,1.094v.693c0,.34.012.68.012,1.033,0,.474-.194.6-.645.6-.3,0-.62-.012-.924-.012h-1.35c-.243,0-.34.1-.34.328Zm.292-7.379a.281.281,0,0,0-.292.292v.086a.28.28,0,0,0,.292.291h1.458a.281.281,0,0,0,.291-.291v-.086a.282.282,0,0,0-.291-.292Zm-.292,1.848a.281.281,0,0,0,.292.292h1.458a.281.281,0,0,0,.291-.292v-.11a.281.281,0,0,0-.291-.291h-1.458a.281.281,0,0,0-.292.291Zm2.99,6.2c-.145,0-.219.061-.219.219.013.377-.048.377-.6.377-.45,0-.6,0-.6-.267,0-.3.024-.62.024-.925V728.1c0-.243-.012-.486-.012-.729,0-.413.255-.486.607-.486.255,0,.511.011.779.011h1.531c.255,0,.511-.011.766-.011.353,0,.62.073.62.486,0,.244-.013.487-.013.729v2.152c0,.3.025.62.025.925,0,.267-.146.267-.6.267s-.6,0-.6-.256v-.121c0-.158-.073-.219-.219-.219Zm1.507-2.382a.217.217,0,0,0,.232-.232V728.1a.211.211,0,0,0-.232-.231h-1.518a.224.224,0,0,0-.231.231v.134a.24.24,0,0,0,.231.232Zm-1.75,1.13a.282.282,0,0,0,.292.292h1.41a.272.272,0,0,0,.279-.292v-.037a.261.261,0,0,0-.279-.279h-1.41a.271.271,0,0,0-.292.279Zm3.172-3.732c-.3,0-.607.024-.912.024-.449,0-.656-.122-.656-.608,0-.34.024-.681.024-1.021v-.705c0-.353-.024-.705-.024-1.058,0-.487.158-.645.644-.645.316,0,.62.025.923.025h1.3c.3,0,.608-.025.912-.025.461,0,.656.122.656.62,0,.377-.024.753-.024,1.13v6.346c0,.34.024.668.024,1.009,0,1.167-.669,1.4-1.714,1.4-.474,0-.741,0-.741-.924,0-.194.036-.316.243-.316.11,0,.377.036.6.036.352,0,.389-.207.389-.461V726.2c0-.243-.1-.34-.328-.34Zm-.048-3.051a.274.274,0,0,0-.292.292v.1a.266.266,0,0,0,.292.28h1.409a.262.262,0,0,0,.28-.28v-.1a.271.271,0,0,0-.28-.292Zm-.292,1.847a.269.269,0,0,0,.292.292h1.409a.265.265,0,0,0,.28-.292v-.1a.271.271,0,0,0-.28-.292h-1.409a.275.275,0,0,0-.292.292Z" transform="translate(-905.391 -720.317)" fill="#463e3b"/>
      <path id="パス_1748" data-name="パス 1748" d="M969.155,730.913c.158,0,.657.012,1.045.012h.353c.291,0,.34-.049.34-.328v-8.424c0-.28-.049-.328-.34-.328H970.2c-.389,0-.887.012-1.045.012-.255,0-.292-.061-.292-.353v-.45c0-.279.049-.353.3-.353.085,0,.644.024,1.033.024h1.447c.3,0,.365.061.365.365v10.587c0,.3-.061.365-.365.365H970.2c-.389,0-.948.025-1.033.025-.256,0-.3-.073-.3-.353v-.45C968.863,730.973,968.9,730.913,969.155,730.913Z" transform="translate(-909.689 -720.04)" fill="#463e3b"/>
      <path id="パス_1749" data-name="パス 1749" d="M982.852,722.124a3.1,3.1,0,0,1,3.27,3.392,4.991,4.991,0,0,1-3.7,5.2,9.072,9.072,0,0,1-1.251.183c-.243,0-.292-.061-.292-.341V730c0-.316.049-.365.365-.4a3.783,3.783,0,0,0,2.771-1.374,2.951,2.951,0,0,0,.486-.924c0-.036-.011-.048-.036-.048a.6.6,0,0,0-.243.11,3.752,3.752,0,0,1-1.994.535,2.53,2.53,0,0,1-2.735-2.674A3.091,3.091,0,0,1,982.852,722.124Zm-.048,1.288a1.781,1.781,0,0,0-1.921,1.787,1.521,1.521,0,0,0,1.689,1.5,3.255,3.255,0,0,0,1.86-.6.751.751,0,0,0,.328-.669A1.874,1.874,0,0,0,982.8,723.412Z" transform="translate(-912.278 -720.386)" fill="#463e3b"/>
      <path id="パス_1750" data-name="パス 1750" d="M993.5,726.1a.932.932,0,0,1-.96.985.834.834,0,0,1-.863-.851.918.918,0,0,1,.96-.961A.814.814,0,0,1,993.5,726.1Zm0,4.583a.921.921,0,0,1-.96.972.824.824,0,0,1-.863-.838.928.928,0,0,1,.96-.973A.817.817,0,0,1,993.5,730.683Z" transform="translate(-915.243 -721.153)" fill="#463e3b"/>
      <path id="パス_1751" data-name="パス 1751" d="M1004.722,726.31c0,2.894-1.666,4.583-3.7,4.583-1.945,0-3.488-1.471-3.488-4.242,0-2.492,1.276-4.51,3.672-4.51C1003.117,722.141,1004.722,723.538,1004.722,726.31Zm-5.762.377c0,1.9.838,2.906,2.066,2.906,1.3,0,2.273-1.252,2.273-3.233,0-1.909-.888-2.857-2.09-2.857C999.665,723.5,998.96,724.973,998.96,726.686Z" transform="translate(-916.67 -720.39)" fill="#463e3b"/>
      <path id="パス_1752" data-name="パス 1752" d="M1017.7,726.31c0,2.894-1.666,4.583-3.7,4.583-1.945,0-3.488-1.471-3.488-4.242,0-2.492,1.276-4.51,3.671-4.51C1016.1,722.141,1017.7,723.538,1017.7,726.31Zm-5.763.377c0,1.9.839,2.906,2.067,2.906,1.3,0,2.273-1.252,2.273-3.233,0-1.909-.888-2.857-2.091-2.857C1012.645,723.5,1011.939,724.973,1011.939,726.686Z" transform="translate(-919.831 -720.39)" fill="#463e3b"/>
      <path id="パス_1753" data-name="パス 1753" d="M1032.087,727.112a.463.463,0,0,1-.122.255,2.685,2.685,0,0,1-2.1,1.143,3.889,3.889,0,0,1-2.018-.693,3.271,3.271,0,0,0-1.593-.584,1.483,1.483,0,0,0-1.167.632c-.1.134-.158.207-.232.207s-.145-.049-.254-.147l-.341-.291c-.121-.11-.182-.194-.182-.279a.468.468,0,0,1,.122-.256,2.609,2.609,0,0,1,2.1-1.167,3.961,3.961,0,0,1,2.054.717,3.212,3.212,0,0,0,1.543.571,1.441,1.441,0,0,0,1.167-.645c.11-.134.17-.194.244-.194s.133.048.243.146l.353.3C1032.026,726.941,1032.087,727.027,1032.087,727.112Z" transform="translate(-923.132 -721.314)" fill="#463e3b"/>
      <path id="パス_1754" data-name="パス 1754" d="M1041.184,728.412c0,.705.036,1.982.036,2.127,0,.256-.073.3-.353.3h-.753c-.279,0-.353-.048-.353-.3,0-.145.036-1.422.036-2.127v-4.255c0-.206-.036-.291-.145-.291a.5.5,0,0,0-.195.048c-.365.134-.778.3-1.094.45a.554.554,0,0,1-.232.073c-.11,0-.158-.086-.219-.268l-.231-.608a.651.651,0,0,1-.048-.231c0-.11.072-.17.279-.231a18.866,18.866,0,0,0,1.9-.717,1.609,1.609,0,0,1,.717-.146h.328c.279,0,.352.048.352.3,0,.182-.024,1.422-.024,2.127Z" transform="translate(-926.433 -720.414)" fill="#463e3b"/>
      <path id="パス_1755" data-name="パス 1755" d="M1051.02,726.245c0,.048.061.1.182.158a2.4,2.4,0,0,1,1.617,2.152c0,1.385-1.131,2.369-3.537,2.369-1.921,0-3.295-.826-3.295-2.26a2.452,2.452,0,0,1,1.556-2.188c.121-.06.182-.11.182-.158s-.061-.1-.17-.17a2.147,2.147,0,0,1-1.2-1.9c0-1.167,1.082-2.176,3.149-2.176,1.884,0,2.978.9,2.978,2.067a2.248,2.248,0,0,1-1.288,1.932C1051.081,726.136,1051.02,726.2,1051.02,726.245Zm-1.811.669a.812.812,0,0,0-.34.085c-.924.389-1.471.875-1.471,1.568,0,.766.839,1.179,1.945,1.179,1.215,0,2.042-.437,2.042-1.228,0-.741-.753-1.119-1.847-1.532A.957.957,0,0,0,1049.208,726.914Zm.243-3.622c-.948,0-1.665.377-1.665,1s.62.973,1.459,1.313a1,1,0,0,0,.328.086.871.871,0,0,0,.34-.1c.741-.352,1.154-.779,1.154-1.325C1051.068,723.656,1050.375,723.292,1049.451,723.292Z" transform="translate(-928.466 -720.374)" fill="#463e3b"/>
      <path id="パス_1756" data-name="パス 1756" d="M1060.1,726.1a.932.932,0,0,1-.96.985.834.834,0,0,1-.864-.851.919.919,0,0,1,.961-.961A.815.815,0,0,1,1060.1,726.1Zm0,4.583a.921.921,0,0,1-.96.972.824.824,0,0,1-.864-.838.928.928,0,0,1,.961-.973A.818.818,0,0,1,1060.1,730.683Z" transform="translate(-931.458 -721.153)" fill="#463e3b"/>
      <path id="パス_1757" data-name="パス 1757" d="M1071.646,726.31c0,2.894-1.666,4.583-3.7,4.583-1.945,0-3.488-1.471-3.488-4.242,0-2.492,1.275-4.51,3.671-4.51C1070.042,722.141,1071.646,723.538,1071.646,726.31Zm-5.762.377c0,1.9.838,2.906,2.066,2.906,1.3,0,2.273-1.252,2.273-3.233,0-1.909-.888-2.857-2.091-2.857C1066.589,723.5,1065.884,724.973,1065.884,726.686Z" transform="translate(-932.964 -720.39)" fill="#463e3b"/>
      <path id="パス_1758" data-name="パス 1758" d="M1085.268,726.31c0,2.894-1.666,4.583-3.7,4.583-1.945,0-3.488-1.471-3.488-4.242,0-2.492,1.276-4.51,3.671-4.51C1083.663,722.141,1085.268,723.538,1085.268,726.31Zm-5.762.377c0,1.9.838,2.906,2.066,2.906,1.3,0,2.273-1.252,2.273-3.233,0-1.909-.888-2.857-2.09-2.857C1080.211,723.5,1079.506,724.973,1079.506,726.686Z" transform="translate(-936.281 -720.39)" fill="#463e3b"/>
      <path id="パス_1759" data-name="パス 1759" d="M1093.651,725.735a8.233,8.233,0,0,1,2.31-5.616c.134-.145.28-.291.4-.291.244,0,.682.389.682.583a.46.46,0,0,1-.171.291,7.018,7.018,0,0,0,0,10.065.458.458,0,0,1,.171.28c0,.231-.463.6-.669.6-.122,0-.206-.085-.39-.267A8.221,8.221,0,0,1,1093.651,725.735Z" transform="translate(-940.071 -719.827)" fill="#463e3b"/>
      <path id="パス_1760" data-name="パス 1760" d="M1105.093,725.454c0-.231-.1-.328-.328-.328h-1.8c-.462,0-.937.025-1.41.025-.3,0-.291-.134-.291-.62s-.013-.633.291-.633c.474,0,.948.024,1.41.024h1.8c.231,0,.328-.1.328-.34v-2.055a6.273,6.273,0,0,0-.037-.862.361.361,0,0,1-.011-.11c0-.158.109-.182.23-.182.183,0,.961.06,1.192.085.1.013.291.013.291.158,0,.11-.085.146-.182.219-.134.086-.146.3-.146.682v2.066c0,.244.1.34.34.34h1.8c.474,0,.948-.024,1.422-.024.292,0,.292.122.292.633s0,.62-.292.62c-.474,0-.948-.025-1.422-.025h-1.8c-.243,0-.34.1-.34.328v3.684c0,.243.1.34.34.34h2.637c.474,0,.949-.024,1.435-.024.3,0,.292.122.292.62s0,.632-.292.632c-.474,0-.961-.036-1.435-.036h-7.317c-.474,0-.96.036-1.434.036-.3,0-.292-.133-.292-.632s-.011-.62.292-.62c.486,0,.961.024,1.434.024h2.674c.231,0,.328-.1.328-.34Z" transform="translate(-941.705 -719.96)" fill="#463e3b"/>
      <path id="パス_1761" data-name="パス 1761" d="M1121.591,727.1a1.4,1.4,0,0,1-1.459,1.471,1.258,1.258,0,0,1-1.325-1.276,1.4,1.4,0,0,1,1.483-1.471A1.245,1.245,0,0,1,1121.591,727.1Z" transform="translate(-946.196 -721.286)" fill="#463e3b"/>
      <path id="パス_1762" data-name="パス 1762" d="M1133.882,730.537h-3.707c-.194,0-.279.085-.279.28v.121c0,.34-.122.34-.693.34-.524,0-.693,0-.693-.328,0-.51.037-1.021.037-1.519v-6.114c0-.389-.025-.766-.025-1.155,0-.486.194-.632.669-.632.353,0,.705.025,1.069.025h3.55c.352,0,.7-.025,1.057-.025.461,0,.669.121.669.62,0,.388-.024.778-.024,1.167v6.089c0,.511.036,1.009.036,1.52,0,.34-.146.328-.693.328s-.693,0-.693-.328a.336.336,0,0,1,.012-.109C1134.162,730.623,1134.077,730.537,1133.882,730.537Zm-.023-5.178a.347.347,0,0,0,.34-.34v-1.946a.347.347,0,0,0-.34-.34H1130.2a.348.348,0,0,0-.341.34v1.946a.348.348,0,0,0,.341.34Zm-4,3.635a.349.349,0,0,0,.341.34h3.659a.348.348,0,0,0,.34-.34v-2.14a.347.347,0,0,0-.34-.34H1130.2a.348.348,0,0,0-.341.34Z" transform="translate(-948.558 -720.242)" fill="#463e3b"/>
      <path id="パス_1763" data-name="パス 1763" d="M1146.009,727.1a1.4,1.4,0,0,1-1.459,1.471,1.257,1.257,0,0,1-1.325-1.276,1.4,1.4,0,0,1,1.483-1.471A1.245,1.245,0,0,1,1146.009,727.1Z" transform="translate(-952.141 -721.286)" fill="#463e3b"/>
      <path id="パス_1764" data-name="パス 1764" d="M1154.211,726.99c-.085,0-.11.073-.11.145v2.249c0,.5.024,1.009.024,1.507,0,.366-.109.377-.632.377-.5,0-.632-.011-.632-.364,0-.511.036-1.009.036-1.52v-1.556c-.011-.072-.036-.158-.121-.158a.132.132,0,0,0-.109.049c-.158.158-.548.583-.766.583s-.693-.583-.693-.814a.375.375,0,0,1,.182-.267,12.632,12.632,0,0,0,2.042-2.152,6.449,6.449,0,0,0,.8-1.337c0-.122-.121-.134-.279-.134h-1.18c-.389,0-.8.036-1.106.036-.256,0-.243-.158-.243-.583s-.013-.6.243-.6c.279,0,.62.036.924.024.232,0,.328-.1.328-.34v-.778a4.888,4.888,0,0,0-.036-.729.421.421,0,0,1-.012-.123c0-.133.085-.169.207-.169.182,0,.924.085,1.118.109.1.013.207.037.207.158,0,.073-.061.1-.158.17-.122.085-.134.292-.134.608v.753c0,.243.1.328.328.34.146,0,.3-.013.45-.013.571,0,.863.718.863.864a8.342,8.342,0,0,1-1.119,2.054.433.433,0,0,0-.1.243.359.359,0,0,0,.121.243,13.276,13.276,0,0,0,1.143,1.034c.1.072.279.206.279.328,0,.219-.425.778-.656.778-.207,0-.936-.778-1.107-.972A.18.18,0,0,0,1154.211,726.99Zm3.878-.243a5.925,5.925,0,0,1-1.313,3.379c-.231.28-1,1.082-1.349,1.082a1.329,1.329,0,0,1-.851-.778c0-.121.11-.17.194-.219a4.312,4.312,0,0,0,1.568-1.568,4.976,4.976,0,0,0,.607-2.212.261.261,0,0,0-.292-.3c-.266-.012-.424,0-.424-.28,0-.3.024-.62.024-.924v-2.674c0-.243-.024-.5-.024-.754,0-.437.291-.511.656-.511.3,0,.6.013.888.013h2.273c.291,0,.583-.013.875-.013.364,0,.668.06.668.5,0,.254-.024.51-.024.765v2.674c0,.3.024.62.024.937,0,.291-.17.267-.645.267-.424,0-.522,0-.583-.146a.222.222,0,0,0-.1-.11.241.241,0,0,0-.207.28v3.44c0,.292.049.353.329.353h.291a.331.331,0,0,0,.267-.1c.182-.145.256-1.057.268-1.313,0-.207.024-.3.256-.3s.778.048.778.365a5.611,5.611,0,0,1-.437,2.018,1.129,1.129,0,0,1-1.083.474h-.656c-.925,0-1.167-.256-1.167-1.167V726.2c0-.231-.1-.34-.34-.34h-.949a.179.179,0,0,0-.146.1c0,.1.025.17.122.182.3.061.778.122.778.267,0,.086-.11.134-.158.158A.239.239,0,0,0,1158.089,726.747Zm1.944-1.957a.324.324,0,0,0,.329-.341v-2.018a.324.324,0,0,0-.329-.341h-2.249a.349.349,0,0,0-.34.341v2.018a.349.349,0,0,0,.34.341Z" transform="translate(-954.084 -719.952)" fill="#463e3b"/>
      <path id="パス_1765" data-name="パス 1765" d="M1173.674,726.357c-.244,0-.682-.656-.682-.887,0-.11.147-.268.219-.365a11.8,11.8,0,0,0,2.14-4.3c.049-.182.06-.353.256-.353.086,0,.8.243.96.28.1.024.3.1.3.219,0,.1-.109.146-.182.17-.146.048-.158.073-.243.328a16.914,16.914,0,0,1-.876,2.127.184.184,0,0,0-.024.085c0,.085.061.121.134.134.1.012.316.024.316.158,0,.085-.1.134-.158.194-.121.1-.134.232-.134.693v4.546c0,.523.024,1.058.024,1.58,0,.352-.133.4-.608.4-.523,0-.62-.073-.62-.426,0-.522.025-1.045.025-1.555v-3.647c-.012-.06-.025-.121-.1-.121a.124.124,0,0,0-.086.049c-.023.036-.061.085-.1.133C1174.086,726.042,1173.855,726.357,1173.674,726.357Zm7.049-.255c-.049,0-.061.048-.073.085v2.966c0,.6.036,1.191.036,1.786,0,.39-.134.4-.608.4-.51,0-.632-.012-.632-.4,0-.6.025-1.191.025-1.786v-3.015c0-.061-.037-.086-.061-.086a.126.126,0,0,0-.085.049,13.355,13.355,0,0,1-2.249,3.306c-.134.134-.244.292-.377.292-.219,0-.85-.511-.85-.754,0-.134.17-.268.254-.353a13.909,13.909,0,0,0,2.82-4.1.335.335,0,0,0,.024-.11c0-.134-.109-.182-.23-.194h-.827c-.438,0-.863.036-1.3.036-.316,0-.3-.145-.3-.608s-.013-.6.3-.6c.426,0,.863.025,1.3.025h1.239c.244,0,.341-.1.341-.34v-1.118a6.534,6.534,0,0,0-.037-.863.458.458,0,0,1-.012-.122c0-.145.11-.169.219-.169.134,0,.972.085,1.119.109.085.012.206.036.206.158,0,.085-.061.11-.158.182-.145.1-.157.315-.157.766v1.058c0,.244.109.34.34.34h1.374c.438,0,.863-.025,1.3-.025.316,0,.3.134.3.6s.013.608-.3.608c-.438,0-.863-.036-1.3-.036h-.924c-.134.012-.243.06-.243.207a.285.285,0,0,0,.024.1,13.674,13.674,0,0,0,2.626,4.036.265.265,0,0,1,.048.06c.1.1.231.243.231.353,0,.279-.6.717-.863.717a.374.374,0,0,1-.231-.11c-.146-.158-.486-.607-.632-.791a16.492,16.492,0,0,1-1.6-2.613C1180.771,726.126,1180.76,726.1,1180.723,726.1Z" transform="translate(-959.388 -719.976)" fill="#463e3b"/>
      <path id="パス_1766" data-name="パス 1766" d="M1199.124,720.734c.024-.061.061-.122.134-.122.048,0,1.094.4,1.094.571,0,.1-.134.11-.158.11a.323.323,0,0,0-.231.11c-.109.219-.365.645-.486.85a.172.172,0,0,0-.037.11c0,.122.085.158.182.158.437,0,.875-.024,1.313-.024.268,0,.268.133.268.51s0,.5-.268.5c-.51,0-1.009-.025-1.519-.025h-.474c-.037,0-.037.025-.013.049s.037.048.037.073c0,.086-.11.11-.171.134a.336.336,0,0,0-.243.146c-.048.109-.109.231-.158.34a.385.385,0,0,0-.036.109c0,.134.11.17.231.183h.316c.5,0,.985-.025,1.484-.025.279,0,.267.158.267.486,0,.292.012.474-.256.474-.5,0-1-.024-1.495-.024h-2.067c-.158,0-.23.061-.23.231v.1c0,.158.061.231.23.231h1.447c.462,0,.924-.024,1.4-.024.28,0,.28.133.28.474s0,.474-.28.474c-.474,0-.936-.025-1.4-.025h-1.447c-.158,0-.23.06-.23.219v.11c0,.158.061.232.23.232h2.724c.51,0,1.021-.025,1.543-.025.28,0,.28.122.28.487s0,.5-.267.5c-.524,0-1.046-.024-1.556-.024h-1.556c-.061,0-.122.024-.122.1a.091.091,0,0,0,.049.085,11.592,11.592,0,0,0,3.027,1.459c.279.085.4.145.4.292,0,.255-.437.8-.681.8a7.707,7.707,0,0,1-1.447-.559,11.779,11.779,0,0,1-2.37-1.532.157.157,0,0,0-.122-.048c-.1,0-.122.085-.133.17v.109c0,.535.036,1.083.036,1.629,0,.413-.134.426-.693.426-.535,0-.681-.013-.681-.414,0-.547.036-1.093.036-1.641v-.085c-.012-.1-.036-.17-.145-.17a.2.2,0,0,0-.11.036,13.156,13.156,0,0,1-2.808,1.714,5.05,5.05,0,0,1-1.009.377c-.255,0-.669-.6-.669-.839,0-.146.158-.194.426-.28a13.8,13.8,0,0,0,2.991-1.447.125.125,0,0,0,.048-.1c0-.06-.061-.085-.109-.085h-1.471c-.51,0-1.034.024-1.556.024-.268,0-.268-.146-.268-.5s0-.487.268-.487c.522,0,1.046.025,1.556.025h2.625a.2.2,0,0,0,.231-.232v-.1c0-.17-.073-.231-.231-.231H1193.7c-.461,0-.936.025-1.4.025-.291,0-.279-.134-.279-.474s0-.474.279-.474c.462,0,.937.024,1.4.024h1.374c.157,0,.231-.061.231-.231v-.1c0-.169-.073-.231-.231-.231h-1.957c-.5,0-1,.024-1.495.024-.268,0-.256-.194-.256-.474,0-.328-.012-.486.267-.486.5,0,.985.025,1.484.025h.28c.024,0,.219,0,.219-.183a.336.336,0,0,0-.025-.109c-.072-.158-.145-.3-.23-.463a.436.436,0,0,0-.45-.279h-.316c-.511,0-1.008.025-1.519.025-.267,0-.267-.134-.267-.5s0-.51.267-.51c.4,0,.8.024,1.2.024h.134c.085,0,.17-.036.17-.146a.179.179,0,0,0-.024-.109,10.072,10.072,0,0,0-.741-1c-.036-.049-.11-.134-.11-.2,0-.183.632-.474.851-.474.134,0,.182.06.316.23a1.811,1.811,0,0,0,.11.147,6,6,0,0,1,.765,1.13c0,.145-.267.267-.388.316a.059.059,0,0,0-.025.048c0,.037.025.049.061.049h.6c.231,0,.34-.1.34-.328v-.377c0-.389-.013-.778-.049-1.167,0-.036-.011-.073-.011-.109,0-.146.085-.182.206-.182.171,0,.827.073,1.021.1.122.013.292.025.292.171,0,.085-.048.109-.146.182-.134.11-.146.316-.146.669v.717c0,.231.1.328.34.328h.353c.243,0,.341-.1.341-.328V721.5a4.854,4.854,0,0,0-.049-.838v-.11c0-.146.085-.17.207-.17.158,0,.8.061.985.086.109.012.315.024.315.17,0,.073-.061.109-.146.169-.122.1-.133.256-.133.559v.827c0,.194.073.316.291.328a.2.2,0,0,0,.17-.11A15.066,15.066,0,0,0,1199.124,720.734Zm-2.516,3.781a.451.451,0,0,0,.486-.281c.073-.145.146-.3.231-.461a.219.219,0,0,0,.024-.1c0-.145-.109-.182-.23-.194h-2.2c-.122.012-.219.049-.219.183a.359.359,0,0,0,.024.109c.3.608.3.742.62.742Z" transform="translate(-963.666 -719.956)" fill="#463e3b"/>
      <path id="パス_1767" data-name="パス 1767" d="M1211.1,725.735a8.232,8.232,0,0,1-2.309,5.616c-.134.146-.28.291-.4.291-.243,0-.68-.388-.68-.583a.458.458,0,0,1,.17-.292,7.018,7.018,0,0,0,0-10.065.45.45,0,0,1-.17-.279c0-.231.461-.6.668-.6.122,0,.207.085.389.268A8.218,8.218,0,0,1,1211.1,725.735Z" transform="translate(-967.84 -719.827)" fill="#463e3b"/>
    </g>
  </g>
</svg>
