<svg xmlns="http://www.w3.org/2000/svg" width="35" height="35" viewBox="0 0 35 35"><defs><style>.a{fill:#393941;}.b{fill:#fff;}</style></defs><circle class="a" cx="17.5" cy="17.5" r="17.5"/><path class="b" d="M11.47-6.064a7.9,7.9,0,0,1-.576,3.151A5.132,5.132,0,0,1,9.281-.8l2.2,1.714-1.441,1.3L7.313.062A5.519,5.519,0,0,1,6.161.176,5.109,5.109,0,0,1,3.4-.584,4.993,4.993,0,0,1,1.516-2.751,7.606,7.606,0,0,1,.844-5.994v-.721a7.784,7.784,0,0,1,.664-3.3,4.987,4.987,0,0,1,1.872-2.193,5.081,5.081,0,0,1,2.764-.76,5.174,5.174,0,0,1,2.791.751A4.924,4.924,0,0,1,10.8-10.059a7.767,7.767,0,0,1,.668,3.283ZM9.237-6.732a5.557,5.557,0,0,0-.809-3.278,2.656,2.656,0,0,0-2.285-1.116A2.615,2.615,0,0,0,3.9-10a5.469,5.469,0,0,0-.831,3.186v.747A5.613,5.613,0,0,0,3.88-2.821,2.62,2.62,0,0,0,6.161-1.652,2.624,2.624,0,0,0,8.442-2.777a5.671,5.671,0,0,0,.8-3.287Z" transform="translate(11 23)"/></svg>