<svg xmlns="http://www.w3.org/2000/svg" xmlns:xlink="http://www.w3.org/1999/xlink" width="24" height="24" viewBox="0 0 24 24"><defs><clipPath id="a"><rect width="24" height="24" fill="none"/></clipPath></defs><g transform="translate(-967.504 -73)"><g transform="translate(967.504 73)" clip-path="url(#a)"><path d="M0,0H24V24H0Z" fill="none"/><path d="M16.5,5A3.418,3.418,0,0,1,20,8.5c0,2.9-3.1,5.7-7.9,10h0l-.1.2-.1-.1C7.1,14.2,4,11.4,4,8.5A3.418,3.418,0,0,1,7.5,5a4.051,4.051,0,0,1,3,1.4L12,8.2l1.5-1.8a4.051,4.051,0,0,1,3-1.4m0-2A6.01,6.01,0,0,0,12,5.1,6.01,6.01,0,0,0,7.5,3,5.422,5.422,0,0,0,2,8.5c0,3.8,3.4,6.9,8.6,11.5L12,21.3,13.4,20C18.6,15.3,22,12.2,22,8.5A5.422,5.422,0,0,0,16.5,3Z" fill="#523f30"/></g></g></svg>