<svg xmlns="http://www.w3.org/2000/svg" width="368" height="33" viewBox="0 0 368 33"><defs><style>.a{fill:#343c43;}.b{fill:#4169e1;}</style></defs><g transform="translate(0 0.001)"><path class="a" d="M358.933,353.106V360.1a.793.793,0,0,0,.8.789H371.84a.794.794,0,0,1,.8.789v3.767a.793.793,0,0,1-.8.789H359.731a.794.794,0,0,0-.8.79v11.1a.793.793,0,0,1-.8.789h-4.565a.794.794,0,0,1-.8-.789v-30.45a.794.794,0,0,1,.8-.79h19.787a.793.793,0,0,1,.8.79v3.855a.793.793,0,0,1-.8.789H359.731A.793.793,0,0,0,358.933,353.106Z" transform="translate(-352.773 -346.398)"/><path class="a" d="M401.321,365.217V347.673a.793.793,0,0,1,.8-.79h4.566a.793.793,0,0,1,.8.79v17.632c0,5.257,3.08,8.349,8.035,8.349s7.991-3.093,7.991-8.349V347.673a.793.793,0,0,1,.8-.79h4.476a.794.794,0,0,1,.8.79v17.544c0,8.659-5.4,14.18-14.107,14.18C406.812,379.4,401.321,373.875,401.321,365.217Z" transform="translate(-372.037 -346.398)"/><path class="a" d="M460.322,367.47h4.668a.789.789,0,0,1,.791.722c.258,3.372,2.342,5.418,5.6,5.418,3.482,0,5.58-2.341,5.58-6.141v-19.8a.793.793,0,0,1,.8-.79h4.61a.793.793,0,0,1,.8.79v19.753c0,7.333-4.6,11.971-11.785,11.971-6.948,0-11.506-4.282-11.853-11.083A.8.8,0,0,1,460.322,367.47Z" transform="translate(-395.131 -346.398)"/><path class="a" d="M514.609,346.883h4.7a.794.794,0,0,1,.8.79v30.45a.793.793,0,0,1-.8.789h-4.7a.793.793,0,0,1-.8-.789v-30.45A.793.793,0,0,1,514.609,346.883Z" transform="translate(-416.672 -346.398)"/><path class="a" d="M560.653,378.525l-6.4-10.688a.8.8,0,0,0-1.348-.038l-7.318,10.764a.8.8,0,0,1-.662.349H541.1a.793.793,0,0,1-.8-.789v-30.45a.793.793,0,0,1,.8-.79h4.52a.794.794,0,0,1,.8.79v18.566c0,.026,0,.051,0,.076l-.309,3.187,1.223-3.154a.78.78,0,0,1,.068-.135l11.957-18.958a.8.8,0,0,1,.676-.372h5.281a.789.789,0,0,1,.67,1.218l-8.528,13.072a.783.783,0,0,0-.005.848l9.945,15.683a.789.789,0,0,1-.675,1.209h-5.38A.8.8,0,0,1,560.653,378.525Z" transform="translate(-427.185 -346.398)"/><path class="a" d="M589.667,362.547c0-9.453,7.188-16.477,16.964-16.477,9.865,0,16.963,6.759,16.963,16.477,0,9.5-7.143,16.522-16.963,16.522C596.765,379.069,589.667,372.178,589.667,362.547Zm27.633,0c.045-6.449-4.331-10.735-10.669-10.735a10.27,10.27,0,0,0-10.714,10.735c0,6.406,4.33,10.735,10.714,10.735C612.925,373.283,617.3,368.865,617.3,362.547Z" transform="translate(-446.771 -346.07)"/><path class="a" d="M660.031,346.883h4.126a.8.8,0,0,1,.628.3l15.61,19.76a.8.8,0,0,0,1.426-.486V347.673a.794.794,0,0,1,.8-.79h4.432a.793.793,0,0,1,.8.79v30.45a.793.793,0,0,1-.8.789h-4.083a.8.8,0,0,1-.627-.3L666.73,358.929a.8.8,0,0,0-1.425.488v18.706a.793.793,0,0,1-.8.789h-4.476a.793.793,0,0,1-.8-.789v-30.45A.793.793,0,0,1,660.031,346.883Z" transform="translate(-474.375 -346.398)"/></g><g transform="translate(224.166)"><path class="b" d="M742.811,370.7h-5.265a.867.867,0,0,0-.872.863v5.21a.867.867,0,0,1-.872.863h-3.524a.867.867,0,0,1-.872-.863v-5.21a.868.868,0,0,0-.872-.863H725.27a.868.868,0,0,1-.872-.863v-3.266a.868.868,0,0,1,.872-.863h5.265a.868.868,0,0,0,.872-.863v-5.254a.867.867,0,0,1,.872-.863H735.8a.867.867,0,0,1,.872.863v5.254a.868.868,0,0,0,.872.863h5.265a.867.867,0,0,1,.872.863v3.266A.867.867,0,0,1,742.811,370.7Z" transform="translate(-724.398 -351.17)"/><path class="b" d="M796.509,358.1c0,6.892-4.955,11.265-12.678,11.265h-4.886a.868.868,0,0,0-.872.863v7.816a.867.867,0,0,1-.872.863h-4.417a.867.867,0,0,1-.872-.863v-30.3a.868.868,0,0,1,.872-.863h11.091C791.687,346.883,796.509,351.168,796.509,358.1Zm-6.294,0c0-3.489-2.366-5.566-6.294-5.566h-4.976a.867.867,0,0,0-.872.863v9.407a.867.867,0,0,0,.872.863h4.931C787.849,363.67,790.214,361.55,790.214,358.1Z" transform="translate(-743.251 -346.397)"/><path class="b" d="M843.8,373.987v4.061a.868.868,0,0,1-.872.863H823.552a.867.867,0,0,1-.872-.863v-30.3a.868.868,0,0,1,.872-.863h4.506a.868.868,0,0,1,.872.863v24.515a.867.867,0,0,0,.872.863h13.121A.868.868,0,0,1,843.8,373.987Z" transform="translate(-763.396 -346.397)"/><path class="b" d="M866.048,365.216v-17.47a.868.868,0,0,1,.872-.863h4.417a.868.868,0,0,1,.872.863v17.559c0,5.257,3.08,8.349,8.035,8.349s7.991-3.092,7.991-8.349V347.746a.868.868,0,0,1,.872-.863h4.327a.868.868,0,0,1,.872.863v17.47c0,8.659-5.4,14.181-14.107,14.181C871.538,379.4,866.048,373.875,866.048,365.216Z" transform="translate(-780.604 -346.397)"/><path class="b" d="M925.958,370.514l3.89-1.139a.867.867,0,0,1,1.063.523,5.666,5.666,0,0,0,5.58,3.914c3.169,0,5.178-1.458,5.178-3.888,0-2.341-1.472-3.667-4.553-4.55l-3.66-1.016c-5.223-1.5-7.812-4.418-7.812-9.145,0-5.61,4.107-9.144,10.624-9.144,7.144,0,9.782,4.4,10.587,6.3a.856.856,0,0,1-.52,1.139l-3.835,1.326a.874.874,0,0,1-1.089-.479,5.123,5.123,0,0,0-5.054-3.077c-2.857,0-4.687,1.37-4.687,3.623s1.563,3.622,4.821,4.594l3.839,1.1c5.045,1.5,7.634,4.417,7.634,9.012,0,5.787-4.464,9.454-11.383,9.454-7.621,0-10.385-5.286-11.19-7.424A.86.86,0,0,1,925.958,370.514Z" transform="translate(-804.128 -346.069)"/></g></svg>