<svg xmlns="http://www.w3.org/2000/svg" width="34.413" height="34.413" viewBox="0 0 34.413 34.413"><defs><style>.a{fill:#fff;}.b,.d{fill:#1c7dcc;}.c,.d{stroke:none;}</style></defs><g transform="translate(0 0)"><g class="a"><path class="c" d="M 17.20631790161133 33.91267776489258 C 12.74389743804932 33.91267776489258 8.548567771911621 32.17491912841797 5.393167972564697 29.01950836181641 C 2.237757921218872 25.86409950256348 0.4999979138374329 21.66876792907715 0.4999979138374329 17.20633888244629 C 0.4999979138374329 12.74390888214111 2.237757921218872 8.548579216003418 5.393167972564697 5.393168926239014 C 8.548567771911621 2.237758874893188 12.74389743804932 0.4999988973140717 17.20631790161133 0.4999988973140717 C 21.66873741149902 0.4999988973140717 25.86406707763672 2.237758874893188 29.01946830749512 5.393168926239014 C 32.17487716674805 8.548579216003418 33.91263961791992 12.74390888214111 33.91263961791992 17.20633888244629 C 33.91263961791992 21.66876792907715 32.17487716674805 25.86409950256348 29.01946830749512 29.01950836181641 C 25.86406707763672 32.17491912841797 21.66873741149902 33.91267776489258 17.20631790161133 33.91267776489258 Z"/><path class="d" d="M 17.20631790161133 1 C 12.8774471282959 1 8.807687759399414 2.685749053955078 5.74671745300293 5.746728897094727 C 2.685747146606445 8.807699203491211 0.9999961853027344 12.87746810913086 0.9999961853027344 17.20633888244629 C 0.9999961853027344 21.53520965576172 2.685747146606445 25.60497856140137 5.74671745300293 28.66594886779785 C 8.807687759399414 31.7269287109375 12.8774471282959 33.41267776489258 17.20631790161133 33.41267776489258 C 21.53518676757812 33.41267776489258 25.60494804382324 31.7269287109375 28.66591835021973 28.66594886779785 C 31.72688865661621 25.60497856140137 33.41263961791992 21.53520965576172 33.41263961791992 17.20633888244629 C 33.41263961791992 12.87746810913086 31.72688865661621 8.807699203491211 28.66591835021973 5.746728897094727 C 25.60494804382324 2.685749053955078 21.53518676757812 1 17.20631790161133 1 M 17.20631790161133 0 C 26.70910835266113 0 34.41263961791992 7.70353889465332 34.41263961791992 17.20633888244629 C 34.41263961791992 26.70913887023926 26.70910835266113 34.41267776489258 17.20631790161133 34.41267776489258 C 7.703527450561523 34.41267776489258 -3.814697265625e-06 26.70913887023926 -3.814697265625e-06 17.20633888244629 C -3.814697265625e-06 7.70353889465332 7.703527450561523 0 17.20631790161133 0 Z"/></g><path class="b" d="M8.464-2.979H3.507L2.47,0H.158L4.992-12.8h2L11.83,0H9.51ZM4.131-4.772H7.84L5.985-10.081Z" transform="translate(11.646 23.858)"/></g></svg>