<svg xmlns="http://www.w3.org/2000/svg" width="423.762" height="112.057" viewBox="0 0 423.762 112.057"><g transform="translate(-588.119 -4410.176)"><path d="M955.6,375.658l-.382-.673,1.127-.634-.669-.7.674-.627.008-.714.184-.7.031-.708-.808-.793-.226-.748.841-.626.527-.65-.05-.725-.179-.75-.059-.737.027-.726.191-.7.211-.691,1.019-.505-1.189-1.017.6-.6.026-.741.519-.6.844-.494-1.035-1.077.4-.636.368-.64.12-.728.255-.681.447-.6,1.106-.316-.334-.926-.268-.92,1.2-.23L960.627,352l1.076-.261.112-.753.207-.709.465-.564,1.056-.2-.3-1.029.87-.291-.259-1.039.92-.238-.353-1.146.992-.166.39-.607.137-.817.3-.694,1.4.248.089-.874.22-.779.46-.564.334-.7,1.32.326-.215-1.28.527-.5.873-.09.6-.393.127-1,.718-.252.78-.15.437-.632.592-.414.554-.476.523-.533.846.005,1.031.361.352-.834.514-.562.944.275.543-.508.574-.458.713-.158.6-.409.814.1.513-.643.852.249.35-1.156H985l.595-.516.656-.347.772.069.748.014.809.32.618-.514.684-.242.689-.256.834.777.645-.534.627-1,.757.336.736.446.709-.355.7.946.713-.124.721-.179.712.059.757-.351.772-.338.61.95.778-.3.687.3.648.444.656.319.862-.509.894-.451.53.747.477.765.659.19.644.246.407.617,1.077-.258.591.455.141.838.453.543-.238.895.753.409.935.512,0,.789-1.053.733.115.7.345.783-.36.658-.536.538.523,1.174-1.2-.011-.4.618-.8-.041-.491.7-.678.563-.784-.61h-.725l-.765.511-.613-1.1-.7.023-1,.974-.519-.839-.8-.073-.4-.762-.22-.829-.655-.308-.219-.687-.566-.634-.637-.562-.938.005-.8-.047-.633-.456-.757-.08-.8.464-.68-1.328-.724.49-.7.447-.8-.918-.583,1.343-.762-.352-.744-.1-.541.9-.718,0-.9-.6-.569.6-.5.715-1.143-.987-.137,1.549-.582.4-1.139-.7-.132,1.273-.948-.238-.549.473-1.03-.259-.35.775-.388.685-.812.12-.315.752-.716.261-.3.749-.94.045-.444.582-.681.345-.17.834-.683.347-.39.615-.43.581-.207.76-.065.86-1.442-.232-.009.895-.543.483-.557.505-.494.548-.394.614-.024.81L970,354.5l-1.566.006.484,1.028-.751.442-.236.68-.759.465-.024.77.607,1-1.011.389.055.781-.064.734.183.807-.847.487.541.9-1.128.426-.057.731-.257.677.3.809-.736.57.189.78-.261.683-.014.728.646.823-.894.584-.372.68.715.786-.947.634.082.74.4.748.008.726.187.727-.7.727-.1.735.865.7-.342.741.344.7-.505.772.277.7.572.655-.637.826.116.723,1.123.519-.761.9.048.741.543.61.133.717.339.651.33.649.119.727.212.7.053.776.834.4.048.789.2.724.78.373.163.76,1.018.151-.435,1.245.4.635,1.247-.142.329.669.3.732.712.284.83.1.4.632.2.969.757.173.342.866.642.382.746.165.71.217.917-.335.713.121.518.72.787-.124.7.133.769-.2.559.876.717.115.818-.729.663.461.692.426.736-.228.741-.514.71,1.159.745.176.7-.895.745.224.657-.744.873,1.142.69-.41.727-.127.808.239.7-.281.59-.658.563-.659,1.04.842.277-1.424.826.144.66-.305.919.269.71-.231.171-1.3,1.077.487.239-1.074.712-.21.548-.489,1.129.411.268-.923.638-.358.117-1.072.784-.151.478-.588,1.155.358-.1-1.331.887-.011,1.059.106.18-.871.743-.316.5-.545.2-.754.57-.485.553-.507.034-.831.015-1.076,1,.132.663-.427.807-.452.664.784.62.377.271.789.78.113.791.306-.177.743-.262.681-.117.9-1.022-.024-.636.374-.689.317.113,1.156-.56.449-.559.449-.072.967-.654.349-.5.515-1.221-.287-.571.426.076,1.168-.461.564-1.184-.309-.727.216.007,1.146-.968-.105.164,1.417-1.453-.819-.086,1.114-.59.395-.621.347-.87-.068-.017,1.375-1.041-.387-.391.773-.894-.183-.459.665-.96-.358-.167,1.33-.755.065-.693.208-.891-.283-.59.4-.8-.173-.552.528-.425.95-.649.306h-.742l-.743-.032-.73-.009-.684.17-.787-.361-.564.836-.71.052-.71.027-.718-.072-.7-.092-.7-.265-.72.563-.72.016-.706-.277-.773.823-.684-.571-.745.187-.576-1.287-.912,1.375-.567-1.082-.879.816-.584-.8-.6-.606-.967.923-.63-.479-.686-.245-.546-.666-.588-.48-.833.19-.43-.842-.649-.272-1.086.643-.211-1.194-1.048.451-.2-1.1-1.168.548-.666-.324-.039-1.227-.983.134-.615-.4-.266-.818-.568-.439-.07-.971-1.369.383-.173-.845-.382-.624-.282-.7-.472-.529-.9-.211-.311-.668.1-.932-.691-.4-.433-.575-.028-.8-.206-.689-1.128-.233.167-.875-.167-.705-.4-.6-.6-.536.331-.88-.259-.659.068-.759-.323-.639.09-.75-1.361-.406.064-.755.547-.838-1.184-.519,1.058-.9-.439-.653-.608-.648-.323-.7.094-.737.276-.745-.368-.7-.338-.716.774-.742Z" transform="translate(-367.046 4080.717)" fill="#fff"/><path d="M1027.855,393.213l.315-.671-.53-.61.693-.653-.575-.729-.1-.735.376-.708.343-.7-.425-.771.006-.735.664-.636-.006-.732.211-.694.294-.673-.19-.783.491-.621-.119-.779.364-.647-.11-.794.466-.609-.029-.781.892-.435.012-.768-.018-.794.748-.457.109-.744-.145-.883.343-.646.57-.523.169-.745.893-.313-.063-.9.569-.5.656-.427.194-.754.755-.334-.066-.979.773-.3.638-.4.222-.778.556-.472.4-.631.795-.2.544-.468.612-.383.3-.8.482-.587.932.1.577-.431.556-.486.743-.125.753-.056.524-.6.61-.445.645-.4.716-.182.81.377.682-.3.72-.049.722-.266.743-.138.717.5.748-.117.76-.017.751.129.618.482.627.388.773.156.4.713.444.608.629.378.774.234.334.742.689.382.769.007.583-.8.681.018.522-.413.922.122.647-.318.559-.682.782.035.719-.459.794-.04.78.176.577.732.9-.157.738.357.239.869.551.548.385.682.143.771-.031.769-.218.718-.052.824-.409.761-.909.076-.587.415-.774.244.083,1.013-.64.4-.6.476-.361.63-.283.665.334.9-.733.486-.332.65-.307.662.225.8.162.758-.535.624-.42.657v.729l.132.749.152.749-.079.714-.56.643-.026.717.213.752-.838.612.1.742.584.8-.532.659.117.738.079.731-.448.676-.062.717-.4.691.628.76-.35.7.013.728.3.721-.2.735.24.711.059.716-.128.746.313.672.45.591-.12.811.711.277.3.791.718.39.758-.576.685-.068.725.182.648-.326.754.074.718-.123.623-.363.438-.772.788-.112.508.681.671.265v.687l-.517.611.046.728.09.859-.748.376-.482.516-.379.61-.683.3-.257.8-.552.481-.643.347-.655.318-.667.289-.627.424-.767-.016-.7.188-.751-.24-.7-.166-.746.474-.624-.656-.868.431-.374-.976-1.011.336-.29-.851-.515-.482-.675-.343-.181-.807-.547-.49-.6-.481-.8-.381-.8.129-.477.722-.553.455-.78-.011-.542.491-.673.222-.787-.034-.579.42-.506.619-.715.109-.812-.2-.61.376-.5.808-.717.1-.765-.178-.686.159-.678.247-.732-.134-.665.519-.726-.04-.72-.686-.714.444-.693-.419-.755.632-.692-.323-.69-.228-.677-.241-.709-.068-.7-.12-.733-.057-.487-.714-.813.1-.6-.386-.651-.3-.656-.319-.365-.681-.413-.578-.9-.14-.11-.829-.518-.5-.321-.637-.166-.706-.547-.532-.319-.647.268-.832-.581-.569.243-.779-.349-.647-.03-.711-.211-.683.075-.723Zm26.12,3.6.794-.293.02-.887.961-.383-.329-.906.013-.743.42-.711.335-.756-.471-.738-.043-.724.615-.676-.068-.722.142-.706.217-.7-.288-.744.4-.676-.238-.747.249-.7-.256-.754.334-.684-.2-.749.767-.624-.176-.747-.224-.757.593-.641-.11-.742-.405-.788.124-.7.363-.653-.083-.736.739-.559-.366-.8.342-.636.412-.644-.231-.719.264-.79-.9-.115-.439-.583-.751-.084-.633.49-.716.045-.705.237-.7-.4-.668-.126-.6-.321-.837.038-.706-.3-.1-.93-.51-.491-.688-.326-.7-.363-.822-.179-.643.553-.595.479-.552.5-.618.363-.9-.048-.467.586-.56.442-.356.658-.386.6-.817.216-.309.67-.315.65-.35.617-.581.459-.432.567-.13.746-.659.446-.524.535-.229.69-.011.785-.676.484-.426.6-.231.688.426.923-.451.6-.117.712-.735.527-.164.7.277.815-.366.648.217.776-.094.7-.19.685-.646.63.437.773.064.714-.489.681.082.72.045.708-.032.711-.015.726,0,.732.427.653.359.634-.178.806.313.652.046.813,1,.2.225.72.348.69.585.46.662.345.9-.335.533.691.7.234.734.154.7-.427.677-.364.742.337.752.2.687-.243.646-.389.623-.424.671-.214.813.232.652-.3.553-.543.943.42.578-.479.331-.926.83.053.492-.547.462-.532Z" transform="translate(-367.046 4080.717)" fill="#fff"/><path d="M1095.412,394.454l.091-.728.015-.731.679-.688-.166-.741.48-.7-.923-.8.807-.663.087-.719-.274-.75-.121-.74.245-.711-.349-.761.776-.665.086-.728-.336-.767.7-.675-1.066-.832.41-.7-.195-.753.44-.694.03-.731-.409-.771.246-.711.138-.722-.192-.752,1.024-.64.283-.708-.253-.757-.827-.808.494-.687.8-.67-.161-.748-.753-.791.205-.751.671-.871-.352-.906-.878-.7-.912.619-.8-.3-.672.612-.759-.01-.7.255-.769.075-.69.3-.754.2-.614.454-.347.8-.874.091-.418.662-.4.61-.85-.159-.506.536-.73-.3-.6,1.013-.74.144-.687-.442-.6-.579-.692-.035-.9.442-.454-.765-.653-.277-.71-.318.036-1.039-.9-.236-.642-.575.32-.876-.648-.722.4-.706.192-.687.418-.584.874-.218-.369-1.25,1.065.161.59-.349.329-1.121.765-.121.829.241.682-.306.722-.126.667-.432.758.191.808.312.591-.992.91.946.6-.975.779.153.728-.161.829.536.749.02.627-.889.788.318.735-.08.764.13.744-.009.768.045.721-.43.7-.42.733-.253.067-.765.9-.613-.156-.723.225-.674-.057-.7.239-.675-.4-.737.618-.637.046-.7-.883-.786-.006-.7.42-.664.1-.7.175-.689-.381-.734.584-.66-.043-.7.4-.731.131-.735-.48-.8.335-.71.153-.725.346-.657.331-.632.553-.458.174-.734.116-1.147,1.133.4.571-.877.851.86.8-.654.735.338.927-.133.37.98.585.492.7.256.135.853.792.212.489.516-.125.849.622.456.772.626.072.889-.6.681-.626.5-.883.222.1.935-.747.445-.028.8-.831.477.113.833-.37.665.482.912-1.128.47.3.845-.552.646.34.819-.57.688-.08.782,1.237.384.124.45.462.556.721-.279.679.26.685-.225.74.2.787.508.611-1.007.711-.123.8.562.761.242.678-.459.73-.015.628-.911.755.176.784.5.7-.306.754.388.69-.714.73.138.682.722.792-.758.531.914,1.067-.691-.277,1.237,1.058.358.033.445-.427.74-.676.5.449,1.124-1.276-.119-.109,1-.629.615-.767.26-.77-.89-.731.64-.7-.183-.621-.706-.75-.025-.764.967-.726-.965-.744-.012-.672.7-.669.44-.871-1-.74.026-.742.054-.528,1.09-.633.467-.767-.09-.738.041-.736,0-.635.319-.336.779-.691.16-.305.614-.986.123-.129.748.2.8-.925.465-.387.654.523.835-.594.62.81.866-.1.7-1.054.562.313.764.047.724-.375.67.23.748-.816.622-.027.719-.013.719.865.814-1.029.614.64.787.007.723-.658.662.228.746.369.758-.992.639.078.732-.4.693.251.745-.085.717.7.775-.194.706-.871.654.132.726-.271.7.98.786-.864.655-.122.708.411.742.492.744-1.22.675.44.758.777.671.091.657-.871,1.021,1.252.156.327.515.292.824.589.745.815.093.8-.16.747.085.679-.66.777.368.715-.161.651-.451.777.145.567-.7.674-.251.643-.348.949.594.573-.573.543-.635.669-.253.6-.449.994.091,1.172.145-.114,1.2-.629.6-.39.58-.434.548.084,1.007-.722.338-.313.748-.892.081-.723.234-.238.935-.735.214-.721.209-.511.594-.711.216-.814-.038-.669.266-.6.452-.784-.075-.408,1.2-.941-.7-.591.715-.767-.129-.763-.45-.678.628-.71-.066-.672-.39-.851.886-.464-1.253-.771.191-.47-.649-1.15.659-.084-1.167-.438-.509-1.2.144-.084-.861.254-.948-1.358-.129.686-1.028-1.04-.419.546-.867-.313-.651-.64-.63.333-.752.249-.725.047-.705-.995-.7.684-.714Z" transform="translate(-367.046 4080.717)" fill="#fff"/><path d="M1132.107,388.729l-.221-.729.673-.7-.292-.735.356-.692-.119-.732.414-.671-.132-.74-.41-.8.892-.566.155-.694-.225-.787.027-.738.148-.71.275-.673.555-.574.141-.71.546-.555.18-.694-.4-.965,1.026-.316-.275-.94.717-.438.45-.566.509-.525.35-.619.237-.7.541-.49.371-.612.024-.9.635-.413.551-.472.406-.609.285-.746,1.1.122.48-.525.095-1.02.581-.446.739-.218.682-.278.5-.571.736-.169.555-.495.906.229.412-.832.586-.494.813.113.817.21.635-.35.664-.28.724-.017.636-.5.771.334.688-.245.69-.374.719-.21.731.427.723-.34.7.353.707.089.729-.115.709.09.746-.1.726.059.607.552.743-.008.554.6.789-.1.462.739.986-.444.391.816.664.265.613.362.754.172.282.813.944-.015.032,1.024.465.518.608.39.6.424.53.5.428.579.579.5-.214.929.848.389.008.779.364.634-.372.845.534.6-.12.735.346.672,0,.712-.3.717-.143.7-.142.7.409.916-.494.623-.8.376-.074.868-.732.316-.742.194-.353.762-.726.169-.708.176-.559.471-.591.422-.664.27-.546.545-.672.256-.687.219-.742.064-.538.632-.716.139-.842-.256-.719.082-.472.9-.723.094-.873-.46-.526.807-.7.18-.695.2-.735.03-.7.187-.766-.146-.715.089-.6.718-.757-.133-.781-.354-.726-.017-.657.551-.7.245-.7.236-.783.035-.69-.723-.769.176-.65-.531-.808.224-.828.21-.514-.861-.756-.257-.86.423-.726-.078-.809-.189-.811.264.064.941-.816.459.317.738.04.663-.166.653-.141.674.254.7-.158.749.3.68.5.6.278.636.03.745.123.747.61.457.015.923,1.049-.011.118.96.994-.165.2,1.062.693.277.8-.023.555.627.917-.6.652.294.664.314.74-.177.629.814.745-.186.721-.046.73-.387.713.511.718.2.714-.16.7-.288.69-.419.764.573.658-.606.69-.187.806.6.723-.049.69-.224.74.017.478-1.037.77.149.621-.384.724-.07.867.281.6-.449.722-.146.453-.71.533-.5.929.194.169-1.074.805-.053.685-.266.538-.492.736-.234.221-.918.672-.405.793.208.57.425.521.362.5.293-.541.431-.164.707-.316.644-.271.693-.937.106-.11.88-.612.395-.746.235-.574.406-.31.729-.8.123-.142.987-.675.287-.64.328-.533.489-.844-.012-.665.26-.3.909-.741.126-.7.189-.717.136-.533.541-.526.6-.808-.1-.553.573-.714.132-.843-.333-.543.707-.8-.27-.654.326-.734-.086-.609.745-.753-.251-.737-.328-.683.512-.716.086-.722-.035-.709-.354-.742.433-.708-.256-.714-.163-.726-.027-.7-.206-.677-.316-.812.4-.651-.416-.691-.206-.656-.313-.669-.252-.836.18-.495-.685-.509-.577-.746-.092-.868.057-.616-.4-.172-.983-.541-.441-.884-.079-.586-.445-.321-.685-.462-.552-.155-.763-.411-.571-.708-.42-.187-.714,0-.775-.858-.434.461-.915-.168-.68-.964-.492.253-.795-.393-.661,0-.729.43-.769-.89-.642.221-.74-.139-.719Zm32.623-13.807-.3-.669.472-.85-.563-.587-.062-.8-.571-.517-.235-.789-.712-.349-.894-.013-.21-1.041-.675-.354-.839.081-.736-.082-.708-.136-.691-.211-.673-.453-.745.029-.724-.355-.75.082-.69.784-.8-.716-.6.779-.8-.249-.734.1-.752.1-.668.328-.572.5-.718.224-.584.454-.282.858-.7.262-.613.393-.445.581-.265.738-1.1-.022-.407.626.163,1.011-.38.586-.566.491-.437.586-.034.745-.379.634.112.713-.3.951.97-.207.674-.256.741.353.6.522.579.115.694.347.6.5.845-.05.6.643.794-.026.767-.265.723-.2.788.348.665-.451.766.205.723-.084.68-.316.711-.146.662-.366.686-.248.8.2.645-.392.812.179.576-.57.86.229.364-1.026.883.2.6-.423.608-.393.4-.651.85-.15-.072-.924.951-.36Z" transform="translate(-367.046 4080.717)" fill="#fff"/><path d="M1184.771,439.7l-.04-1.5-1.3.859-.639-.409-.59-.515-.52-.62.391-1.2-.677-.4-.937-.576.379-.813.981-.518.082-.555-.668-.9.25-.82.521-.707,1.261.7.508-.5.658.049.506.218.556-.012.181.449.974.466.406.51-.284,1.22.669.462.821.151.7.272.848-.212.5.955.69.51.785.016.846-.948.73.072.737.8.71-.735.74.639.7-.4.679-.4.758.367.622-.652.791.41.826.4.613-.554.762.022.3-1.348.886.37.965.4.638-.389.677-.316.628-.4-.081-1.371,1.295.5.072-1.029.814-.2-.1-1.063.463-.513.441-.535.528-.486.533-.5-.227-.915,1.379-.12-.632-1.051,1.385-.231.172-.72-.484-.9-.321-.814.014-.709.085-.685.5-.618.258-.673.751-.622-.165-.74.335-.694-.474-.754.591-.685-.335-.727-.1-.715.157-.708.539-.7-.264-.725-1.05-.74.47-.7.814-.7-.049-.716-.023-.7-.469-.692.582-.711-.654-.674.432-.721-.706-.651.5-.744-1.119-.56.195-.708-.05-.674.433-.9-.881-.209-.589.36-.877-1.061-.7.254-.589.461-.386.859-.855-.2-.489.718-1.05-.592-.5.719-.571.591-.793-.036-.474,1-.693.359-1.034-1.17-.6.7-.627.807-.782-.164-.83-.976-.686.63-.723.821-.76-.14-.72-.8-.679-.5-.8.716-.721-.153-.679-.317-.927.553-.539-.763-.79-.043-.247-1.162-1.249.719-.29-.936-.977.034.231-1.381-.9-.112-.546-.5-.226-.743-1.107-.176.958-1.367-.565-.495-.675-.5-.489-.609.044-.775-.885-.561,1.058-.937-1.08-.59,1.093-.828-.04-.706-1.4-.71.7-.719-.62-.748.034-.733,1.2-.626-.109-.724.181-.693-.814-.846,1.036-.557.358-.653-.524-.837-.366-.827,1.469-.373.034-.722-.6-.919.01-.756.749-.513.677-.518.13-.709-.228-.858.791-.448.432-.585.3-.64.348-.617-.825-1.217,1.231-.169-.595-1.148,1.443,0-.71-1.264,1.568.128.416-.572-.163-.97.35-.634-.129-1,1.027-.129.1-.845.287-.713,1.43.293.083-.887.173-.833,1.047.03.31-.707.146-.916.516-.522,1.016.1.14-1,1.232.476-.029-1.314.8-.106.348-.849,1.343.958.008-1.579,1.125.725.316-1.112.651-.366.889.395.753.077.559-.776.682-.368.851,1.047.69.083.677-1.242.731.158.6.671.912-.632.31,1.182,1.029-.5.13,1.138.933-.1.811.2.335.693.3.91.581.834.979-.093.781-.271.227-.942.571-.289.3-.769,1.037.23.245-.919,1.09.522.42-.692.627-.312.685-.138.706-.176.616.567.7-.033.832-.073.769.2-.256,1.4.448.469,1.1-.058-.011.851.4.5.9.406.1.737-.99.731.238.687.1.76-.375.632-.637.427-.331.619-.356.677-.58.462-.5.533-1.179-.191-.311.78.387,1.178-.663.409-.686.456.244.9-.629.518-.4.631-.2.7-.705.562.37.851.228.795-.442.644-.229.694-.777.6.64.847.158.758-.47.666.336.771-.147.707-.269.7-.55.67.039.735.569.785-.006.729-.2.706-.614.675-.078.723-.125.721.025.734.355.756-.125.721-.083.728.323.755.035.739-.9.678.7.778.041.729-.634.7-.541.706.576.76.6.757-.045.728-.267.724-.3.725.066.738-.8.718.557.751-.1.736-.1.736.139.74-.643.729.76.749-.333.735.028.734.757.738-.817.721.338.739-.31.743.763.745-.886.746.014.746.732.733.335.741-1.233.692.962.77-.791.685.307.75.5.781-.8.651.32.775-.173.714-.684.624.8.889-1.219.488-.424.631-.134.7-.255.659.353.862.1.806-.813.454-.485.561-.271.649.028.818.306,1.025-.859.33-.1.826-1.42-.18.1,1.009-.059.944-.53.53-.908.1-1.03-.135-.128,1-.447.636-.811.074-.651.307-.906-.213-.459.671-.557.516-.819-.141-.3,1.337-1.041-.883-.756-.1-.527.784-.525.953-.983-1.222-.685.172-.682.222-.7.12-.718-.074-.647.7-.755-.451-.648,1.2-.763-.852-.7.766-.73-.139-.739.173-.714-.728-.726.249-.747.339-.65-.745-.754.255-.655-.427-.878.7-.588-.678-.826.24-.367-1.2-.825.2-.9.258Zm25.221-44.539,1.472.193-.9-1.277.264-.643.283-.656.278-.671,1.171-.53-.333-.822-.71-.788.5-.663,1.029-.607.08-.709-.8-.806-.131-.733-.068-.727,1.324-.545-.217-.738.222-.679.245-.675-.184-.742.144-.7-.667-.821.023-.723,1.12-.529.044-.739-.218-.752.015-.72-.43-.752.833-.667.394-.712-.083-.741-1.1-.53-.227-.392-.242-.978-.791.606-.663-.672-.665.388-.777.358-.727-.535-.947.265-.356-.915.074-.86-.622-.494-.091-.858-1.018.539-.718-.621-.867-.617-.742.263-.749.209-.7.319-.112,1.376-1.234-.647-.211,1.018-.843.1-.057,1.077-.55.449-.536.469-.618.4-.63.4.025.955-1.38-.17.369,1.178-1.409-.092-.348.665.234,1.007.092.883-.207.695-.271.656-.651.479-.434.6-.9.414-.04.77-.508.6.263.857-.75.537.155.807-.059.738-.289.683-.651.621.152.78.947.878-.544.652-.877.644-.007.745-.023.74.433.753-.608.731.654.724-.388.786.781.606-.358.854,1.225.312.017.737.279.637-.1,1.007.938.113.8.079.012,1.4.748.285.809.008.821-.507.695.575.71-.466.766.921.692-.536.673-.432.749.182.543-.932.632-.312,1.041,1.142.521-.763.42-.894.736-.022,1.092.648.375-.855.2-1.037.656-.241,1.024.239.854-.082.043-1.076.549-.445Z" transform="translate(-367.046 4080.717)" fill="#fff"/><path d="M1237.459,386.923l-.223-.716.108-.712-.4-.746.56-.673-.067-.727.031-.72.221-.691.218-.687.422-.638-.638-.882.362-.655.2-.695.115-.72.588-.565.379-.623.188-.69-.1-.817.824-.423-.073-.819.793-.407.171-.71.366-.61-.256-.981,1.076-.18.187-.725-.058-.916.847-.274.14-.8.474-.547.565-.465.612-.411.378-.635.538-.479.633-.366.32-.747.965.086.605-.359.456-.6.514-.539.719-.172.643-.3.475-.746.758-.05.839.316.544-.78.837.587.662-.306.708.065.7-.325.674-.139.662.184.734-.416.647.377.456.631.539.327.545.567.747.359.841-.375.728.229.668.532.8-.49.689.284.8-.111.431.941.722.12.93-.2.646.386.191,1.014.54.458.678.306.358.657.51.494.772.291.383.625.4.6,0,.847.465.551.258.668.276.653,1.042.346.186.72.071.751-.122.793.418.639-.226.79.41.654.317.687-.4.775.709.668-.326.749.09.725.051.724-.351.714.5.744-.234.714-.091.719-.076.719-.434.675.106.737.181.757-.54.639.468.825-.135.716-.884.53.074.758-.184.693.1.787-.2.7-.7.508-.393.609-.228.675-.4.594.2.9-.2.715-.578.5-.437.576-.1.808-.632.441-.5.529-.711.342-.455.546-.238.764-.372.659-.491.548-.96-.02-.644.324-.549.444-.411.666-.482.6-.965-.257-.26,1.058-.965-.364-.373.951-.759.049-.829-.216-.635.345-.752-.077-.629.413-.744-.114-.676.219-.641.6-.761-.412-.682.45-.726-.176-.716-.04-.734.475-.728-.112-.75.12-.717-.2-.653-.5-.8.263-.591-.625-.842.255-.4-1.018-.632-.306-.973.377-.652-.345-.526-.548-.595-.417-.358-.717-.474-.532-.824-.165-.352-.661-.227-.741-1.042-.1-.383-.632.04-.884-.576-.5-.091-.76-.74-.449-.041-.77-.435-.606-.389-.637.136-.8-.083-.722-.169-.7-.172-.7-.6-.635.032-.739-.251-.705.418-.77-.114-.719-.162-.716.393-.739Zm32.3-5.632-.245-.714.043-.719-.508-.667.411-.766-.255-.685-.2-.69-.049-.722-.092-.719.066-.775-1-.419-.069-.725-.269-.652-.384-.6.018-.805-.224-.7-.443-.576-.738-.349.015-.927-.787-.259-.166-.889-.7-.324-.626-.412-.92.387-.525-.948-.774.252-.328.8-.851.175-.149.81-.5.559-.622.439-.693.3-.578.491-.722.2-.753-.038-.751.377-.661-.683-.7-.071-.7.282-.645.311-.7.055-.6.358-.187.815-.606.33-.872.178.026.944-1.015.092-.264.7-.518.509-.143.762-.25.676-.489.533.1.846-.518.522-.663.477-.244.671-.356.634-.184.7.32.827-.365.636-.6.606.482.8-.222.682.259.734-.787.651.149.729.595.718.013.712-.7.757.027.737.3.7-.108.764.179.72.564.616.131.715.227.688-.134.852.443.616.3.69.4.643,1.095.063.408.566.4.6.368.713.747.18.481.682.793.007h.749l.622.615.794-.563.7.389.729-.093.723-.1.764.255.64-.636.743.049.712-.139.7-.2.813.088.6-.469.53-.576.845.025.3-.9.574-.416,1.026.143.391-.68.523-.513.262-.75.442-.563.826-.273.544-.52.354-.654.475-.581-.176-.923.167-.715.512-.559.324-.651-.115-.8.454-.611.257-.681.486-.638.121-.727-.234-.776-.115-.742-.005-.722.684-.678.171-.733Z" transform="translate(-367.046 4080.717)" fill="#fff"/><path d="M1289.076,402.1l.685-.684.008-.713-.145-.728.537-.667-.188-.73-.1-.728-.016-.721.269-.685.157-.7.054-.715.081-.713-.13-.742.573-.651-.675-.818.816-.617-.017-.73-.056-.736-.27-.766.76-.617-.275-.764.409-.664.034-.72-.568-.807.223-.691.156-.7.463-.653.2-.686.12-.7-.367-.748-.108-.712.4-.677.081-.706.307-.712-.16-.709-.078-.708-.426-.656-.259-.664.334-.771-.026-.715-.748-.565.4-.9-.256-.769-.879-.362-.365-.666-.761-.214-.4-.814-.636-.492-.948.385-.708-.25-.728-.184-.726-.236-.54-.558-.656-.4-.588-.525.085-.92-.743-.541.305-.8-.047-.7.211-.672.748-.4.267-.582.274-.67.68-.3.377-.646.74-.125.3-1.055.895.308.7-.127.674-.3.737.141.714-.217.817-.077.851-.213.8.287.631.515.641.312.486.53.519.472.486.526.621.472.7.486-.025.845.429.639-.38.91.9.5.163.693-.229.741-.355.786.965.495-.009.7.36.664.849.268.738-.467.779-.179.381-.961.772-.189.572-.435.607-.37,1.019.391.567-.433.272-1.008.718-.157.6-.384.644-.3.718-.151.575-.459.662-.268.892.285.582-.445.755,0,.519-.635.754.028.483-.819.838.348.614-.431.693-.146.742.12.63-.519.767.505.654-.621.713-.269.716.35.684.261.813-.379.664.368.666.306.695.248.358.79.844.059.33.709.459.536.559.481-.181.876.875.417-.451.816.5.652-.339.31,0,.653.07.732-.565.462-.159.8-.639.387-.834-.4-.6.347-.652-.257-.7-.078-.584-.438-.705-.393-.094-.849-.6-.434-.761-.054-.544-.75-.76-.141-.752.519-.684.047-.676.149-.661.22-.769-.111-.673.228-.7.163-.538.55-.523.543-.778,0-.7.182-.6.378-.574.43-.759.108-.515.531-.377.735-.692.229-.472.558-.924-.076-.276.814-.7.237-.689.323-.7.33-.114.962-.938.1-.374.669-.291.72-.569.482-.29.692-.206.724-.722.426-.274.686-.709.506.384.931-.63.567.161.8-.6.612.389.825-.214.7-.181.715-.312.7-.534.654-.03.731-.155.714.681.815-.3.693.032.73-.194.708,0,.724.12.725-.08.714.192.712-.7.737.051.729.22.715.184.7.391.651.178.681.2.677.318.785-.739.586.211.877-.948.255,0,.9-.607.425-.846.079-.1,1.115-1.032-.419-.474.7-.719.071-.708-.156-.787.43-.45-.808-.491-.379-.616-.445-.181-.712-.294-.7-.057-.748Z" transform="translate(-367.046 4080.717)" fill="#fff"/><path d="M1335.9,433.659l.81-.484.761-.492.147-.7-.579-.961.788-.482-.562-.959,1.325-.293.529-.572-.463-.926-.141-.812.339-.641.4-.611,1.133-.348-.2-.829.613-.537-.376-.9.754-.487-.624-.989.241-.672.909-.43.318-.647-.181-.831.786-.478-.445-.931.385-.628.006-.768,1.04-.383-.661-1.018,1.413-.243-.9-1.108,1.353-.261-.466-.948-.354-.907.288-.662.782-.469.28-.661.1-.728.1-.731.68-.5.374-.621.758-.46.108-.724.026-.756.25-.714-.1-.751-.417-.614-.123-.71-.995-.172-.224-.666-.373-.624L1345.4,400l-.88-.241.553-1.312-.685-.388-.2-.742-1.466.141-.062-.839-.1-.807-.9-.272-.133-.772-.389-.606-.93-.271-.28-.681-.318-.657-.216-.715-.451-.578-.512-.546.875-1.321-.608-.486-1.3-.124.767-1.226-.4-.6-1.333-.136-.42-.608.765-1.18-1.173-.248.3-.939-.51-.566-.934-.39.258-.9.174-.857-.266-.672-.4-.622-.575-.562-.391-.636-.293-.672.476-.914-.88-.49.85-.994-1.293-.407-.5-.637,1.259-1.016-.7-.593-.339-.673.512-.784-1.249-.547.895-.8.067-.691-.241-.646-.906-.657.314-.741.574-.669-.509-.839.055-.781.432-.659.73-.465.981-.187-.411-1.274,1.208.273-.047-1.47,1.134.669.424-1.219.924.782.725-.03.73-.254.831-.7.557,1.027.935-.345.577.57.595.478.433.632.238.741.084.757.462.521,1.2.4-.367.858-.6.683.319.768-.18.744-.5.531-.01.78.21.808-.475.551-.276.638-.365.643.5.757-1,.633.063.724.524.7-.478.74-.394.765.114.722.546.645-.33.8.4.657.827.537.011.73-.072.764.245.674.7.521-.132.8.847.444-.354.891.588.531-.008.772.186.7.4.6.494.56.547.526-.457,1.01.511.547.048.781.075.774,1.405.066.178.715-.223.941.243.692,1.109.19-.478,1.3,1.068.145.729.73.665-.557.77-.222.313-.643.455-.619-.1-.846.352-.63-.151-.86.037-.776,1.284-.2-.371-.967.115-.743.191-.707.178-.714,1.174-.248-.38-.975.508-.559.387-.608.64-.488.373-.615-.109-.848,1.118-.258-.32-.953.667-.477-.014-.809.8-.4-.513-1.055,1.412-.1-.978-1.3.794-.411,1.074-.267-.436-1.034.637-.488-.206-.924.929-.335-.517-1.094.691-.457,1.337-.106-.673-1.19.417-.6.685-.45-.2-.946,1.35-.065-.45-1.095,1-.251.7-.426.139-.758-.294-1.033,1.2-.083.486-.532-.505-1.2.443-.574.558-.511.742-.275.687-.244.384-.717.884.242.565-.424.555-.727.767.227.707-.013.751-.23.669.47.955-.619.323,1.208,1.217-.587-.368,1.61,1.251-.145.592.6.285.776-1.046.991.115.648.315.657-.31.586-.443.463.717,1.277-.845.26-.96-.227-.2,1.241-.911-.33-.881-.013-.6.49.088,1.3-1.147-.226-.652.393.058,1.08-.384.617-.226.747-.408.58-.843.239-1.03.12.281,1.116-.209.733-.619.442-.595.467-.571.488-.063.824-.385.611-.378.615-.864.312.111.911-.32.647-.248.69-.832.35-.263.683-.4.607.242.964-1.314.1-.182.73-.483.562.335,1-1.192.188-.25.691-.571.524.348,1-.512.555-.5.564-.491.57.694,1.165-.537.546-1.183.226-.058.786.106.865.019.82-1.243.206-.51.564.092.855.276.946-.216.708-1.021.323-.218.7.134.87-1.021.322.318.952-.522.554.047.827-.818.415v.8l-.087.743-.4.608-.224.69-.7.469-.114.738-.334.638-1.037.326,0,.791-.74.463.143.851.36.943-.792.444.03.8-.518.559.449.968-.423.6-.677.5-.462.59.222.868-.582.543-1.032.368.3.9.238.871-.542.566-.574.557-.518.582.626,1.007-.862.456-.378.637.709,1.017-1.457.264.607.97-.2.7-.315.656-.6.573.145.8-.262.676-.587.6-.249.693.522.85-.474.643-.051.723-.028.716-.176.727,0,.776.314.628-.226.688.16,1.053-.82.326-.672.369-.806.111-.225,1.108-.864-.038-.944-.716-.563.787-.642-.306-1.2.27-.125-.983.525-.937-.529-.579-.9-.692,1.588-.662-1.192-.839,1.2-.506.285-.628Z" transform="translate(-367.046 4080.717)" fill="#fff"/></g></svg>