<svg xmlns="http://www.w3.org/2000/svg" width="367.898" height="77.865" viewBox="0 0 367.898 77.865"><g transform="translate(-616.051 -5402.135)"><path d="M1209.175,1223.638l-.206-.665-.14-.674.555-.634.024-.669.2-.7-1.031-.788,1.263-.614.024-.71-1.115-.836,1.159-.587-.369-.767.539-.645-.415-.788.528-.638.08-.711-.716-.872.339-.671.417-.647.1-.717.429-.635.312-.659.317-.654-.474-.893.96-.454-.029-.763.125-.718.132-.72.027-.765.124-.734.534-.565.038-.776.865-.4.906-.362.075-.756-.233-.928.656-.464.358-.621.372-.612.306-.653-.113-.922,1.236-.057-.067-.908.4-.6.789-.317.074-.841.341-.648.384-.619,1.008-.1.463-.544.614-.406-.062-1.029.192-.817.663-.381,1.072.075-.237-1.308.644-.372.994.057.307-.757.325-.755.805-.131.756-.177.264-.878.55-.482.62-.377,1.176.536.4-.712.439-.676.913.171.655-.283.349-.889.7-.212.7-.208.562-.5.54-.575.67-.28,1.071.765.663-.248.276-1.376.694-.226.7-.2.949.662.766.108.523-.831.584-.675.733-.059.758.109.67-.405.82.619.695-.2.639-.891.74.013.764,1.027.7-.31.726-.249.694.7.758-.707.676.622.8-.772.752-.1.7.361.764-.118.535,1.227.927-.968.526,1.024.832-.34.687.268.618.444.9-.377.164,1.447,1.04-.494.485.591.459.562.6.388.123.806.489.475-.045.768.48.5.51.56-.017.7.836.712-.708.7-.1.716-.272.671.081.825-.816.365-.536.417-.629.22-.223,1.005-.618.586-.768.277-.8-.861-.748.813-.668-1.143-.839,1.014-.681-.488-.493-.95-.888.421-.393-.8-1.014.274-.574-.487-.381-.67-.665-.418-.417-.574-.632-.337-.162-1.2-1.081.528-.658-.3-.714-.139-.707-.16-.718-.438-.7.62-.7.044-.8-1.078-.617,1.03-.852-.894-.483,1.437-.7.049-1-1.1-.5.921-.531.681-1.094-.974-.234,1.414-.749.039-.8-.024-.339.923-.77.052-.89-.114-.135,1.147-1.13-.434-.467.595-.318.775-.836.083-.054,1.06-.583.395-.406.6-1.241-.289-.463.56-.119.888-.532.473-.857.182-.34.655-.049.9-1.1.013-.6.432.4,1.237-1.368-.171.4,1.189-1.221.034-.162.756.093.887-1.114.2-.219.7.838,1.218-.976.314-.99.337.285.912-.109.73.329.9-1.073.35-.025.753.254.843-1.3.318-.372.641.079.782-.274.673.361.848.424.849-1.462.369.126.773.869.924-1.035.516-.148.706-.459.651-.214.7.365.778-.18.7-.26.691.734.77-.3.706-.455.709-.238.725,1.238.745-.07.715-.238.721.145.713-.147.725-.114.73.4.686-1.218.86.659.656.861.6-.78.862.187.708,1.091.5-.716.909.1.729.729.541-.234.834.733.508.3.649-.7,1.078.616.532.26.691.612.5,1,.253-.678,1.267,1.1.149.293.674.56.475.56.461.543.465.4.6.382.631.292.763.335.755,1.019-.132.618.367.171,1.086,1.291-.764.5.545.474.648.852-.164.451.778.911-.423.419,1.006.6.547.809-.21.794-.274.511,1.19.738.091.875-1.092.614,1.069.759-.32.757-.666.7.569.73-.551.747,1.3.69-1.135.7-.242.824.98.722-.211.635-.708.71-.132.8.261.539-.873,1.007.959.314-1.519.786.114,1.062.819.312-1.25.887.248.8,0,.314-1.058.778-.064.645-.338.383-.8.609-.379.551-.473,1.194.521.2-1.012.846-.056.257-.884.6-.4,1.219.416.36-.722.812-.139-.293-1.523,1.089.178.472-.554.468-.549-.035-.93.893-.221.529-.508.683-.421-.471-1.17.776-.422.521-.792,1.026,1.021.692-1.238.583,1.041,1.107-.7.611.629.394.77-.43.921.8.418.118.952-.427.82-.639.384-1.086-.1-.7.3.212,1.261-.922.068-.6.4.138,1.19-1-.023-.549.455-.6.4-.169.886-1.036-.1-.28.765-.7.266-.156.936-.5.524-1.385-.648-.546.431-.182.952-.2.965-.806.08-.347.788-1.063-.367-.4.731-.717.181-.9-.169-.5.561-.371.842-.579.451-.723.149-.706.168-.741.091-.726.113-.676.187-.566.489-.647.282-.811-.234-.4,1.1-.871-.467-.494.9-.925-.8-.591.566-.583.712-.8-.432-.8-.623-.585.944-.694.279-.7.388-.732.019-.711-1.145-.734.7-.729.109-.717-.143-.713-.161-.667-.556-.809.705-.639-.693-.642-.524-.884.871-.624-.592-.657-.356-.893.608-.7-.221-.5-.877-.653-.309-.673-.237-.738-.069-.823.112-.391-.912-.544-.509-1.162.731-.034-1.474-.812.006-1.131.477-.465-.636-.443-.639-.4-.676-.216-.875-.837-.086-.88-.078.159-1.225-1.4.412-.312-.712-.2-.8-.073-.869-1.514.31.177-1.051-.508-.516-.25-.695-.453-.556-.709-.411.326-1.01-1.37-.08.4-1.012-.972-.34-.009-.792.371-.929-.961-.4.345-.887.19-.806-.123-.693-.3-.643-1.337-.386.844-.94-.8-.554.185-.767-.917-.569-.09-.724.6-.81.18-.739.122-.726-.43-.676-.144-.708-.52-.692.982-.756.12-.711Z" transform="translate(-592.526 4224.74)" fill="#fff"/><path d="M1281.305,1234.9l-.23-.72.193-.711.17-.7-.087-.725-.074-.731.636-.634-.64-.827.508-.64.118-.708.235-.681.5-.607.057-.72.088-.718.093-.722.222-.682.164-.706.1-.736.528-.557.593-.513-.224-.909.683-.457-.041-.846.348-.639.532-.524.311-.662.961-.207.39-.592.45-.546-.056-.973.734-.316.748-.274.338-.66.4-.613.589-.411.3-.774,1,.137.414-.64.49-.563.629-.352.63-.35.87.186.608-.354.694-.127.664-.2.557-.693.7-.2.766.347.692-.151.7-.269.666.318.657.036.735-.541.5.84.534.235.88-.159.509.572.763.05.6.516.729-.038.718.133.773-.184.6.663.645.315.764-.016.733.138.766.128.3.916.569.421.859.067.291.768.713.3.686.364.358.66.1.835.912.251-.2.982,1.022.25.174.741.157.731-.023.792.1.722.778.5.476.625-.234.818-.147.77.821.583-.066.754.324.7-.255.759.288.72-.577.738.606.729-.165.724-.029.726-.077.723-.488.687.615.784-.284.7-.723.632.586.816-.55.638-.273.677.141.764-.074.723-.155.706-.276.671-.315.655-.421.612.026.773-.193.7-.353.632-.684.467.3.951-.945.3-.025.809-.6.467-.324.638-.423.573-.565.461-.439.555-.368.622-.584.422-.083.942-.936.037-.467.545-.663.3-.161,1-.653.335-.95-.182-.311.905-.958-.3-.515.563-.682.207-.7.15-.547.592-.783-.126-.551.706-.824-.385-.651.367-.713.044-.666.425-.709.184-.739-.24-.716.045-.718-.062-.733.359-.737.014-.646-.848-.776.414-.738,0-.725-.109-.562-.7-.648-.3-.689-.169-.928.349-.416-.819-.616-.357-.95.167-.171-1.037-1.057.2-.565-.485-.353-.7-.312-.7-.248-.725-.573-.449-.3-.654-1.033-.2.186-.947-.325-.634-.641-.495.214-.868-.526-.56-.381-.63.291-.832-.889-.51.126-.775-.119-.714-.556-.644.086-.746-.122-.718-.059-.728-.132-.725.24-.739-.115-.727Zm32.3-5.631-.25-.709.128-.719.063-.725-.234-.694-.261-.679.4-.809-.9-.532.195-.784-.23-.678-.155-.7.061-.8-.407-.617-.415-.6-.447-.575-.367-.611-.46-.55-.551-.471-.231-.715-.245-.752-.929-.051-.311-.744-.821.02-.6-.233-.6-.308-.64.111-.916-.23-.494.606-.464.561.034.985-.775.275-.776.123-.509.507-.633.372-.734.021-.748.414-.658-.746-.7.269-.681.234-.664.092-.62.235-.886-.1-.506.543-.586.444-.464.537-.041.89-.388.591-.786.291-.341.635-.187.728-.64.437-.367.615.207.909-.958.321-.3.65.31.888-.374.611.091.764-.577.568-.107.7-.208.68.18.742-.608.631-.195.7.224.732.138.72.228.711-.621.734.008.737.529.689-.3.768.39.681.388.659.023.733-.206.821.81.483-.361.936,1,.318.186.7.256.69.192.783.392.665.934.073.724.2.37.741.522.611.927-.387.623.366.731-.1.664.4.718-.225.74.574.688-.655.728.072.711-.109.713-.1.814.247.495-.866.74-.046.921.3.358-.947.844.035.7-.267.438-.662.518-.517.53-.49.581-.438.58-.453.634-.423.224-.757.356-.636.456-.568.736-.419-.266-.969.935-.359-.061-.826.508-.587.16-.723.223-.7.35-.67.152-.724.007-.75.248-.7-.516-.8.671-.667-.064-.741.2-.731Z" transform="translate(-592.526 4224.74)" fill="#fff"/><path d="M1331.543,1249.028l.219-.71-.081-.7-.326-.689-.131-.7.213-.7.268-.7-.278-.693.008-.689-.573-.689.391-.716.459-.712-.747-.723.824-.7-.426-.721.111-.711-.495-.728.549-.7-.275-.724-.162-.729.037-.72.072-.716.791-.67.012-.713-.071-.718-.348-.738-.276-.738.346-.687-.067-.723.167-.7-.07-.723.616-.649.025-.714.2-.687.11-.7-.345-.745.52-.661-.256-.733-.313-.739.033-.707.26-.685.524-.656-.392-.743.633-.649-.684-.771.271-.689.2-.7-.166-.728.081-.709.525-.674-.344-.734.575-.67-.34-.727.025-.7-.261-.708.111-.725.229-.706-.122-.792.646-.554.42-.574.293-.663.819-.117.147-1.094.75-.218.829.416.674-.012.692-.256.615.418.554.376.848-.261.789.112.508.593.326.752.419.538.607.486.163.78-.063.773-.213.683-.59.67.563.582.471.622.782-.319.695-.258.853.8.761-.19.48-.889.86.152.454-.755.586-.492.682-.269.968.553.546-.644.607-.514h.76l.839.391.524-1.017.774.16.7-.249.816.716.664-.652.736.075.728-.307.674.8.75-.409.788-.233.672.341.459.825,1-.492.469.681.48.569.858.085.026,1.007,1,.078.434.61.291.689.119.746.509.595-.378.843.626.615.062.73-.324.736.165.721.035.733-.313.695-.316.691.385.765-.144.711-.388.684.479.781-.144.709-.45.676.078.737-.406.683.373.769-.33.691-.476.678-.1.722.471.787-.571.671.083.743.652.8-.459.682-.061.723-.52.673.195.75.389.765-.688.662-.287.709.455.749-.131.713-.076.715-.137.715.329.721-.112.716.37.709-.448.732.507.666-.236.746.638.5.225.492.4.649.775-.3.866.27.722-.754.879.425-.165.783.3.766-.446.625-.225.7-.482.56-.707.385.288,1.129-.477.582-1.045.033-.48.536-.558.451-.426.629-.387.75-.915-.1-.457.756-.763.119-.69.437-.8-.7-.7.059-.9.207-.365-.813-.281-.678-.207-.667-.575-.528.008-.756-.113-.712-.687-.642-.034-.755-.346-.734.262-.769.139-.754-.1-.713-.344-.724.4-.7-.156-.722.672-.683-.778-.758.558-.685-.4-.736.331-.692.214-.7-.364-.741.277-.7.621-.669-.7-.77.207-.7.181-.7-.286-.744-.011-.722.405-.687-.007-.724-.136-.735.105-.715.087-.716.816-.648-.09-.731-.627-.781.882-.638-.081-.727v-.718l.275-.693-.667-.784.316-.689.2-.7-.039-.72.47-.673-.264-.782-.18-.748-.054-.738.132-.817-.68-.511-.485-.494-.53-.453-.639-.371-.683-.587-.8.454-.739-.075-.707.26-.681.288-.713.131-.644.359-.879-.259-.542.612-.536.562-.969-.265-.373.829-.875,0-.3.866-.771.19-.727.282-.321.754-.516.519-.712.341-.345.719-.641.444-.3.882-.993-.194-.58.67-.613.248-.586.291-.355.546-.6.392-.4.6-.032.717.333.727-.067.722-.819.655v.726l.393.758-.179.71-.084.721-.629.677.685.789-.4.7,0,.734-.5.692.061.735-.153.721.873.78-.968.677.241.74.238.734.34.731-.213.719-.519.731.509.718-.068.728.273.7.079.709-.593.844.724.578.131.714.069.865.2.514.2.6-.225.631.311.878-.148.8-1.087.14-.1.881-.813.189-.422.658-.508.667-.9-.24-.614.686-.791-.679-.794.457-.445-.686-.7-.4.321-.909-.27-.64-.135-.7-.544-.673-.172-.734Z" transform="translate(-592.526 4224.74)" fill="#fff"/><path d="M1393.032,1242.447l.054-.726.415-.7.159-.719-.285-.749-.616-.776.507-.695.609-.677.127-.716-.185-.743-.285-.753-.214-.749.144-.719-.012-.734.79-.666-.557-.787.458-.7-.7-.8.306-.707.584-.681-.3-.762-.379-.77.138-.72.816-.658.1-.725.109-.724-.159-.75.455-.692-.957-.819.148-.722.131-.717-.038-.726.577-.688-.4-.777.637-.773-.137-.788-.115-.907-.875-.46-.851-.266-.732.572-.835-.272-.674.456-.823-.081-.594.573-.419.843-.706.2-.742.184-.958-.053-.418.7-.094.98-1.017-.12-.709-.031-.381.855-.761-.422-.618.5-.717.6-.72-.148-.641-.47-.681-.161-.564-.486-.921.338-.522-.566-.039-1.108-1.037.045-.266-.711-.05-.743.086-.7-.576-.634.358-.638-.122-.685.427-.531-.109-.839.263-.847,1.093.162.44-.7.555-.642,1.055.886.628-.365.7-.148.644-.495.676-.363.781.306.731-.138.6-.937.9.847.6-.967.78.157.733-.125.851.686.615-.957.759.08.7-.406.831.688.707-.353.732-.154.809.435.6-1.18.692-.08.468-.242,1.171-.106-.558-.881.912-.6-.1-.706-.967-.8.472-.651-.049-.7.988-.6-.134-.715-.109-.711.331-.672.088-.7.151-.693-1.024-.789.965-.631.123-.7-.952-.754.789-.713.2-.732-.941-.858.9-.64.462-.647-.823-1.038,1.41-.214.257-.618.328-.6.039-1.216.782-.451.975.343.78-.273.747.435.92-.424.845.179.437.9.285.906.655.278.584.383.29.653.5.466.355.567.3.591.957.589-1.172.6.514.941-.41.716-1.253-.1-.4.691.2.944-.414.626-.427.631-.344.673.595.965-1.041.465.26.845-.553.631-.361.692.734.884.123.714-.9.683.282.752.691.366.739-.229.565.9.722-.427.694-.087.7-.2.69-.318.842.968.685-.35.648-.662.793.5.627-.881.793.509.779.416.6-1.221.76.234.749.18.7-.509.752.233.723.433.737-.251.778-.3.7.411.492.69.343.462.649.511.143.435-1.042.577.742,1.018-.393.709-1.049.085-.589.31-.261,1.247-.813-.023-.748-.459-.671-.471-.734.43-.749.293-.694-.192-.7-.806-.739.516-.717.218-.726.009-.7.208-.8-.438-.741.006-.709.211-.736.082-.6.679-.7.217-.7.2-.852-.283-.539.592-.446.626-.612.31-.63.354-.84.309.685,1.157-1.159.291.172.8-.682.583-.219.692.9.9-.018.719-.322.669-.2.692-.757.609.388.773-.3.68.094.732-.26.689-.285.688.321.756.477.77-1.078.609.417.766-.726.654.279.752.118.736-.429.687.783.793-.035.722-.838.656.015.725-.16.712.23.739.03.723.271.738-1.008.643.986.786-.419.688-.363.69.664.763-1.2.628.662.756.019.737.381.725-.322.733-.63.871.585.666.95.3.033.9.929-.191.407.957.754.152.764-.845.712.468.683-.342.7-.059.866.81.743-.053.581-.745.82.27.385-1.306,1.039.957.366-1.25.883.373.46-.871.938.494.817.146.545-.2.3.164.633.271.214.966-.865.373-.834.274-.262.681-.378.618-.122.943-1.171-.267-.4.646-.543.48-.644.33-.444.684-.838-.026-.706.194-.23,1.279-1.11-.773-.322,1.229-1-.673-.65.332-.561.752-.821-.335-.635.653-.752-.046-.739.149-.695-.655-.761.611-.66-.479-.8.284-.484-.87-.565-.392-1.008.407-.617-.425-.39-.673-.235-.737-.3-.617-.68-.4.219-.866-.844-.413-.239-.675.5-.841-.153-.665-.456-.635.019-.7-.012-.7-.832-.683.04-.72.547-.713Z" transform="translate(-592.526 4224.74)" fill="#fff"/><path d="M1429.775,1241.163l-.349-.62-.065-.64.162-.644.271-.718.217-.709-.338-.738.184-.709-.506-.781.626-.655.409-.665-.615-.834.3-.685.148-.711-.119-.775.619-.6.588-.585-.08-.772.022-.75.6-.558-.359-.9.525-.578-.044-.8.781-.458.03-.778.5-.562.26-.677-.051-.846.413-.609.411-.607.294-.677.6-.484.6-.474.014-.874.546-.508.319-.676.837-.263.255-.731.39-.628.867-.184.184-.831.789-.226.568-.441.458-.567.764-.192.335-.739.378-.722.654-.339.683-.28.515-.582.841.048.607-.412.849.2.6-.437.694-.161.695-.14.576-.849.784.312.718-.106.725.057.743-.388.725.37.739.007.609.671.8-.26.694.231.716.217.413.723.61.378.911.009.071,1.073.528.477.907-.032.666-.045.641.787.7-.32.523-.591.576-.3.782-.157.638-.416.788.014.725-.082.706-.252.715.364.854-.761.637.613.469.682,1.069-.237.257.846.289.713.7.494-.3.857.826.728-.411.776-.82.425-.176.769-.438.826-.975-.258-.318.741-.439.556-.563.48-.612.484-.282.681-.212.7-.329.648-.305.662-.212.7-.149.71.316.818.082.74-.394.648.009.727-.584.632-.352.672-.047.721.527.807-.536.646-.305.679.1.738.342.772-.631.643-.034.723.245.756-.434.673.332.761-.131.71-.241.7.373.748-.846.667.568.731-.138.728.075.726-.023.729.021.728-.367.772.856.615-.5.836.522.618.294.655.361.641.684.257.711-.082.693.428.7-.276.772.4.581-.714.682-.13.782.074.557-.505.808.114.57-.188.643-.2.5.514-.436.7.592.794-.692.532-.067.762-.747.353-.35.6-.079.9-.826.176-.784.14-.181.951-.85-.024-.393.774-.6.45-.732.142-.8-.194-.64.448-.74-.14-.71-.4-.713.3-.753.136-.806.072-.5-.748-.746-.156-.487-.572-.493-.523-.752-.28-.381-.634-.631-.382-.352-.628-.614-.43-.767.016-.511.619-.544.473-.822-.1-.486.606-.85-.154-.64.279-.7.147-.571.439-.7.1-.54.556-.635.324-.8-.246-.541.7-.786-.306-.607.528-.7.1-.732-.174-.651.643-.724-.061-.718-.347-.707-.133-.712.122-.735.295-.735.088-.663-.483-.741.084-.692-.214-.766.06-.5-.813-.9.367-.366-.947-.663-.232-.466-.564-.666-.247-.706-.245-.541-.465-.271-.7-.612-.411-.747-.365.362-1.04-.326-.6-1.053-.309-.2-.7.064-.779-.1-.71-.474-.619.4-.8-.366-.658.088-.723-.056-.709Zm26,3.909.313-.751.4-.614.478-.6.478-.664.34-.739-.285-.824.176-.768-.553-.742.582-.687.358-.689-.684-.772.228-.7.068-.714-.217-.739.528-.664.49-.667-.209-.746-.117-.737.479-.665-.543-.793.376-.675-.24-.758.634-.638-.184-.753.32-.679.044-.716-.314-.771.188-.685.19-.683.055-.709.4-.628.378-.633-.359-.765.193-.646-.244-.55-.018-.768-.718.006-.65.244-.793-.371-.631.555-.741-.324-.678-.077-.689,0-.5-.543-.77-.007-.794-.157-.471-.574-.383-.628-.637-.162-.566-.535-.713.2-.859-.274-.624.487-.688.294-.662.348-.228,1.005-.811.064-.523.485-.577.424-.213.78-.722.3-.4.59-.88.232-.044.856-.366.61-.269.668-.71.409-.318.645.15.884-1.023.29-.328.647.213.881-.05.75-.963.39-.044.754.143.808-.24.672-.434.616-.072.724-.433.629-.244.684.015.74-.494.64.737.85-.516.643-.505.671.741.784-.46.684-.228.717.417.709-.488.739.846.649-.179.738-.428.824.546.621.667.522-.41.949.641.491.423.58.329.671.361.712.656.4.709.278.671.34.712.262.746.111.751-.009.7-.521.679-.282.724.2.677-.23.781.341.755.088.687-.232.519-.808.807.208.749-.037.6-.443.487-.679.87.2.619-.373.459-.638.792-.079.329-.75Z" transform="translate(-592.526 4224.74)" fill="#fff"/><path d="M1483.242,1238.1l-.092-.644.04-.638.734-.7-.125-.712-.27-.729.325-.689-.062-.722-.208-.749.552-.64-.215-.762.013-.73.154-.7.217-.688.2-.691.475-.606.2-.684.346-.633.02-.753.1-.731.728-.467-.3-.922.433-.592.559-.521.092-.766.751-.4.154-.739.686-.409.047-.828.785-.317.2-.742.44-.563.152-.81.674-.367.522-.495.514-.5.4-.621.844-.13.35-.687.424-.619.929.048.344-.745.517-.52.959.2.466-.6.371-.838.689-.243.764-.054.769.007.547-.585.676-.249.66-.325.721-.1.791.308h.713l.638-.623.755.455.683-.563.722.583.714-.166.752-.525.688.434.7.131.649.438.862-.655.593.643.807-.207.46.907.833-.218.74.05.465.69.8-.055.325.9.86-.115.487.554.7.217.3.778.536.424.925.012.6.419.288.706.141.764.783.363.358.648.088.884-.474.862-.035.677.462.872-.428.658-.309.71-.824.288-.339.7-.768.2-.452.647-.742.149-.762-.034-.552.855-.781-.466-.861.38-.638-.631-.377-.658-.334-.645-.608-.637.3-.992-1-.3-.011-.948-.7-.365-.593-.4-.575-.442-.817.093-.4-1.028-.77-.013-.741-.053-.787.378-.7-.032-.692-.771-.726.369-.756-.141-.587.77-.914-.622-.438.98-.8-.078-.628.366-.482.6-.788.1-.542.488-.664.331-.668.351-.693.349-.171.857-.753.312-.517.534.16,1.036-.928.233-.522.542-.319.672.229.966-.868.366-.058.785-.625.523-.025.784-.005.773-.8.5-.188.714-.062.748-.135.722-.027.743-.532.647.091.762-.229.713.6.792-.537.691.109.736.289.728-.2.728-.315.757.077.738.139.731.547.646-.217.806.029.776.768.506-.108.864.862.354.4.581.516.482.282.76.694.284.453.7.92-.266.588.471.622.5.7.276.812-.46.721.041.7.426.748-.459.723.116.716.123.71-.178.74.55.671-.757.762.588.657-.6.737.162.767.279.6-.739.824.477.575-.7.854.455.58-.591.581-.527.885.394.569-.538.542-.569.6-.385.669-.225.859.163.623-.357.757-.1.64-.327.366-.829.717-.19.742-.217.62-.434.489-.754.842.609.783-.148-.273.934.726.646-.549.682-.5.462-.5.594-.232.884-.653.406-.574.5-.592.477-.915.057-.434.674-.35.817-.8.176-.718.209-.64.329-.373.775-.64.341-.925-.186-.3.972-.76.1-.766.056-.54.56-.678.246-.773-.034-.662.276-.657.317-.664.324-.794-.248-.722.016-.591.855-.735-.01-.793-.66-.649.924h-.729l-.735-.027-.732-.539-.723.23-.723.009-.685-.571-.725.138-.792.593-.705-.232-.626-.615-.726-.012-.639-.389-.771.107-.809.137-.42-.939-.648-.275-.63-.314-.933.22-.411-.717-.449-.6-.879-.022-.23-.828-.477-.511-.671-.338-.587-.443-.338-.642-.6-.465.043-.856-.6-.484-.341-.634.089-.8-.456-.589-.285-.662-.35-.652-.431-.643-.039-.735-.072-.726.61-.806-.535-.66-.185-.714Z" transform="translate(-592.526 4224.74)" fill="#fff"/><path d="M1547.208,1242.456l-.321-.744-.482-.76,1.279-.651-.179-.741-.012-.732-.8-.791,1.01-.648-.62-.776.058-.724.609-.679-.167-.745-.563-.78.845-.659.124-.725-.766-.805.532-.691.773-.665-.6-.789-.124-.747.544-.684-.664-.8.654-.673.129-.722-.4-.772.715-.668-.822-.81.89-.652.265-.711-.723-.8-.049-.732-.126-.732,1.305-.655-.65-.792.413-.785-1.013-.637-.056-.577-.274-.571-.745-.619-.726.6-.678.5-.854-.417-.665.386-.674.31-.732.191-.508.617-.553.484-1.026-.168-.1,1.075-.688.3-.484.568-.595.493-.826-.155-.744-.315-.649-.04-.663.345-.727.323-.707-.084-.688-.179-.753-.032-.371-.9-.453-.519-.753-.144-.824-.235-.6-.553-.012-.853-.272-.712.163-.76-.393-.732,1.188-.444-.191-.719v-.782l1.088.039.021-1.084.519-.653.871.123.774.045.531-.87.949.974.625-.57.682-.31.688-.259.824.412.719-.208.682-.453.822.415.627-.8.778.173.762.088.68-.491.7-.4.759.082.764.152.8.384.732-.1.7-.566.679-.546.765.137.811-.054.156-.774.832-.637.028-.7-.968-.8.021-.7,1.128-.583-.767-.775-.217-.72,1.3-.571-1.143-.811.062-.7.688-.639-.059-.709-.13-.714-.065-.709.837-.642-.306-.719.024-.754.031-.753-.481-.817.152-.769,1.172-.521-.5-.924.451-.646.445-.614.189-.867.934-.168.681-.39.643-.839.9,1,.785-.421.918-.3.524.893,1.093-.278.618.591-.088,1.216.984-.008.182.795.111.762,1.205.125.488.677-.495.886.158.765-.144.82-1.119-.01.307,1.232-1,.211.023.832-.488.584-.319.666.327.89-1.382.334.04.8-.277.708-.206.724.872.944-.45.653-.278.693.433.671-.693.893,1.122-.138.362.748.713-.042.7.189.679-.465.788.644.68-.433.674-.469.785.495.7-.259.728-.031.74.062.764.274.71-.175.654-.71.7-.367.777.485.746.317.688-.918.718.733.69.334.763-.571.816-.262.3,1.113,1.122-.145.222.869-.622.447.24.756-.852.435.4,1.065-.44.69-1.122-.236-.538.348-.517,1.106-.774-.667-.663-.6-.692.065-.7.056-.788.494-.714-.069-.728-.255-.722.182-.686.437-.7.164-.823-.655-.6.822-.9-.857-.628.608-.647.432-.754-.006-.628.479-.94-.561-.727.234-.4.8-.7.283-.257.762-.877.262.41,1.023-.118.656-.359.6-1.08.491.352.8.038.737-.336.67.309.776-.836.6.927.853-1.169.557.058.729-.072.713.747.81-.528.658-.328.683.758.8-.679.649.045.728-.37.687.233.747-.584.672.633.782-.692.665.711.785-.843.656-.122.715.083.73-.353.7.25.739.734.772-.285.7-.536.678.532.754-.569.676.018.718-.1.706-.589.668-.021.762.265.764.879.68-.764.856-.012.859,1.034.344.482.5.557.436.716.1.693.117.714-.093.746.77.72-.25.69-.332.759.142.539-.971.967.988.5-.964.831.29.571-.618.9.422.319-1.325,1.033.779.475-.812.577-.513.912.77.382.119.342.335-.38.585.408,1.07-.665.463-1.011.1-.106.878-.287.777-.765.242-.464.61-.678.321-.933-.119-.424.708-.451.719-.965-.3-.311,1.1-1.059-.647-.481.789-.78-.028-.717.136-.608.567-.65.532-.788-.147-.79-.528-.7.083-.7.057-.785.754-.692-.4-.558-.786-.842.354-.375-.933-1.053.489-.777-.227-.493-.618.107-1.085-.245-.647-1.008-.21.187-.876-.144-.676-.212-.651-.939-.5.818-.874-.523-.627,0-.7-.665-.669.493-.737-.328-.706.02-.72Z" transform="translate(-592.526 4224.74)" fill="#fff"/></g></svg>