<svg xmlns="http://www.w3.org/2000/svg" width="392.916" height="79.23" viewBox="0 0 392.916 79.23"><g transform="translate(-605 -1017)"><path d="M424,728.938l-1.538-.635.456-.742-.043-.721-.1-.723.821-.715-.561-.73.645-.7-1.1-.76.239-.721-.295-.737.9-.69-.335-.739,1.018-.685-1.44-.778.059-.719,1.163-.673-.455-.742.065-.72.745-.692-.884-.763-.5-.747.129-.717.926-.683-.679-.755.07-.723.348-.711-.439-.749.033-.727.18-.721.751-.693-.313-.745-.165-.738,1.064-.677-.2-.74-1.02-.782-.062-.733.285-.715.226-.717-.022-.73-.412-.751.066-.73.686-.693.382-.706.347-.706-.313-.742-.149-.738.276-.7-.821-.777,1.015-.655-.808-.782.737-.673.163-.717.041-.727-.1-.739-.52-.773-.186-.749,1.3-.627-1.15-.821.122-.721.762-.667.021-.728-.57-.778.149-.716,1-.64-.085-.737-.117-.74.692-.667-.586-.787.735-.652.07-.72.074-.718-.951-.839.067-.727.214-.7.169-.7.553-.682-.647-.775,1.059-.677.073-.744-1.417-.746,0-.712.084-.712-.04-.69-.275-.587.273-.962-.71-.162-.592-.621-.87.811-.484-1.031-.865.574-.858.33-.538-.657-.377-.844-1.137.48.153-1.295-.764-.225-.126-.687.481-.658-.219-.3-.359-.723-.461-.848.39-.69.657-.507,1.041-.056-.075-.99.352-.773.755-.186.824.074.6-.394.572-.576.811.282.658-.389.741.728.666-.108.733-.445.689.637.767-.232.755-1.006.724.3.73.138.743.2.747.1.775.509.651-1.336.8.853.76.23.615-1.373.844,1.312.583-1.323.77.476.7-.126.777.477.63-.709.778.522.71-.059.663-.432.652-.516.809.711.729.084.575-1.143.788.543.651-.555.75.239.695-.21.775.453.727.1.612-.9.7-.138.733.127.691-.263.776.529.719.007.7-.186.728.127.664-.566.71-.1.77.6.666-.63.657-.845.72-.043.8,1.152.72.051.684-.619.689-.663.718-.137.721-.091.739.488.712-.443.733.515.716-.57.724.477.683-.19.646.4.652.181.769-.467.961.043.324,1.047.64.479.254.764-.318.882,1.246.513-1.171.814.34.639.49,1.046-.438.712-1.517-.515-.264.723-.369.825-.87-.4-.618,1.049-.663-.743-.674-.283-.7-.228-.771.155-.627-.662-.784.419-.743.3-.709-.068-.673-1.212-.758,1.354-.718-1.12-.694.86-.767-.961-.641.962-.731-.208-.64.642-.717-.068-.7.118-.768-.374-.637.557-.691.172-.806-.585-.633.515-.784-.385-.582.8-.855-.738-.678.246-.668.31-.771-.227-.478,1.295-.91-.916-.462,1.334-.758-.144-.713.086-.628.5-.7.127-.794-.292-.678.245-.636.356-.623.33-.908-.6-.578.481-.506.522-.962-.236-.215.852-1.214-.086-.022.909-.682.5.161.85-.411.633L435,669.8l-.142.7-.053.72-.225.684.489.82.011.726-.083.707.085.736-.275.675-.97.564.549.815-.1.711-.067.715-.269.683.186.755-.528.643-.847.59.993.882-.444.651.047.733.419.8-.218.68-.894.547.083.716-.555.636-.366.756.819.665.256.862.844.026.711-.1.729.314.721-.022.645-.873.781.577.672-.61.759.333.663-.746.732.024.808.9.713-.2.643-.965.8.869.686-.5.75.26.679-.613.735.055.7-.329.73.037.75.27.762.4.669-.812.744.158.743.162.74.106.745.168.658-1.052.771.5.676-.854.747.136.752.207.8.4.736-.458.771.021.8.872.745-.1.744-.438.6.5.922-1.032.741.276.252.947.744.26-.168.9,1.089.363-1.146.835,1.047.721-.7.551.1.888-.834.36.018,1.2-1.326-.821-.5.647-.743.16-.673-.429-.774.868-.7,0-.7-1.145-.713.714-.74-.827-.714.276-.73-.134-.7.389-.646.957-.75-.511-.707.1-.733-.167-.685.348-.788-.677-.682.369-.662.529-.763-.323-.682.36-.668.455-.79-.452-.745-.091-.78-.3-.5,1.517-.849-.733-.713.13-.653.471-.746-.076-.84-.55-.5,1.169-.756-.132-.689.2-.681.224-.916-.683-.477.99-.565.542-.9-.406-.554.582-.833-.029-.713.3-.158.966-.593.407-.322.64-.234.683-.493.611-.041.716.3.763-1.164.521.91.826.253.719-1.118.6-.06.7.108.709-.1.694.334.721-.808.652,1,.761.2.713-.2.693.025.706-.521.7-.219.725.446.749-1.04.7-.047.736.618.741.787.727-.317.727-.257.734.6.706-1.028.777.892.675-.277.749-.84.816.5.691-.3.791,1.054.579-.046.744.291.684-.549.875,1.227.44-.382.836.419.72-.314.723-1.017.437.9,1.117-.8.406-.649.37-.623.272-.363.682-.516.9-.842-.45-.694-.207-.611-.346-.774-.029-.464-.572-.116-.791-.867-.242-.883-.5Z" transform="translate(186.766 363.207)" fill="#fff"/><path d="M469.729,714.005l-.522-.724.38-.707-.463-.747.074-.723.13-.716.071-.722.709-.625-.549-.818.443-.653.541-.617-.409-.832.05-.736.081-.733.925-.471-.442-.905.913-.439-.179-.837.57-.543.006-.782.317-.649.185-.717.309-.659.859-.342.292-.657.539-.5.333-.632-.138-.982.9-.228.135-.812.3-.7.647-.4.932-.1-.076-1.1.853-.148.757-.217.176-.916.642-.352.407-.683.634-.37,1.045.323.191-1.111.774-.1.644-.333.64-.345.843.171.559-.557.793.126.513-.826.737-.058.676-.336.8.372.682-.312.774.491.649-.906.734-.017.733.646.717-.271.714.049.678.464.76-.456.757-.209.707.176.6.65.79-.235.689.214.628.391.769-.013.672.274.623.377.448.693.717.172.67.279.245.892.639.308.94-.017.576.447.411.614.4.6.484.531.644.423.4.615.053.811.162.716.139.706.457.566.341.629.069.714.652.584-.434.8.57.656-.372.728-.1.722-.085.718-.066.728.087.814-.188.764-1,.267.1,1.015-.587.525-.851.128-.587.4-.44.679-.664.3-.884-.171-.607.38-.61.388-.795-.058-.517.622-.8-.1-.665.251-.669.243-.481.8-.679.241-.7.158-.7.16-.767-.072-.581.584-.847-.386-.7.15-.5.973-.708.155-.723.084-.714.124-.7.216-.794-.332-.714.1-.753-.183-.639.651-.776-.433-.67.519-.69.389-.774-.241-.708-.411-.821.469-.616-.762-.782.1-.7-.272-.6-.513-.8-.125-.827.1-.754.341-.706.044-.731.161-.877.454.242.787.129.688-.177.642-.257.661.119.666.271.693-.174.747.295.676-.252.819.3.684.558.557.057.8.538.534.9.183.354.613.473.523.5.519.578.433.513.613.948-.417.5.729.656.362.868-.58.555.922.813-.615.669.4.717.033.7.366.734-.341.719.362.717.011.709-.219.7-.28.747.423.73.043.652-.684.754.28.669-.372.734.071.687-.2.765.156.725-.066.565-.65.669-.236.716-.111.631-.347.794.061.677-.247.62-.372.691-.233.479-.607.6-.391.812-.078.384-.692.267-.813.568-.464.987.144.581-.221.575-.4.815-.144.72.377.471.79-.582.675-.225.711-.687.339-.218.739-.686.342-.408.6-.652.349-.567.429-.319.709-.433.6-.808.126-.521.487-.64.326-.782.1-.238.931-.976-.228-.47.586-.371.795-.615.367-1.007-.425-.527.526-.515.585-.8-.08-.457.786-.793-.1-.68.2-.684.188-.638.363-.766-.143-.631.438-.667.34-.714.093-.784-.6-.641.852-.746-.608-.7.5-.712-.586-.731.508-.712-.193-.743.28-.721-.152-.727-.065-.683-.371-.759.147-.724-.1-.618-.554-.756.05-.608-.484-.809.156-.5-.725-.68-.207-.688-.205-.53-.516-.966.229-.265-.915-1,.148-.467-.6-.521-.515-.667-.376-.484-.562-.253-.737-.467-.561-.495-.552-.446-.593.1-.866-.427-.6-.4-.619.152-.812-.495-.6.367-.829-.421-.632.1-.737-.364-.663.036-.721-.006-.713-.049-.708-.079-.709Zm32.619-13.83-.607-.682.184-.793-.716-.511-.3-.628-.337-.614-.465-.526L500,695.47l-.991.09-.441-.647-.483-.7-.907.258-.719-.1-.714-.065-.561-.878-.827.585-.653-.783-.764.421-.728-.335-.713.333-.712.063-.673.273-.677.2-.86-.344-.66.336-.751.122-.628.4-.294.947-.918-.11-.364.742-.422.613-.681.291-.944.05.087,1.1-.828.215-.724.358.053.938-.481.537-.067.77-.332.6-1.024.4.673.9-.337.64.173.555.534.137.713.454.7-.361.635.439.937-.244.514.506.71.188.462.754.772.014.648.7.8-.8.711,0,.815.565.676-.384.719-.093.787.286.62-.654.648-.442.716-.1.827.34.6-.579.7-.171.744-.033.6-.485.67-.245.693-.191.831.075.55-.518.548-.474.948.037.466-.636-.06-.939.2-.6Z" transform="translate(186.766 363.207)" fill="#fff"/><path d="M520.849,718.487l.125-.656.167-.647-.41-.629.118-.727.164-.72-.022-.726-.2-.746.567-.672-.442-.785.191-.71.614-.633-.3-.793.644-.605.2-.69.229-.682-.542-.9.3-.673.174-.71.324-.661.1-.738.571-.562.029-.772.321-.656.853-.411-.131-.859.835-.392-.408-1.026.971-.3-.132-.911.84-.342.068-.812.656-.434-.107-.958.681-.409.816-.287.036-.894.738-.327.1-.876.51-.524.552-.482.514-.519.945-.037.106-.981.762-.214.813-.114.246-.893.537-.515.567-.485,1,.3.33-.952.953.347.492-.7.786.063.6-.5.71-.162.689-.288.725-.135.768.517.706-.1.723.2.72-.044.8-.6.625.7.806-.194.789.061.577.532.3.891,1.072-.271.3.82.353.718.95.027.454.453.677-.118.592.078.794.719.384-1.033.686-.063.664-.382.681-.355.856.215.649-.484.772.277.755-.65.766.224.819.037.491.784.738.254.116.921,1.145.094.364.76-.422.924.322.721-.15.753-.666.472-.077.888-.543.7-.552.287-.86.083-.149.8-.419.552-.519.508-.084.749-.291.633-.342.618-.632.528-.027.745-.081.714-.752.557-.018.742.473.815-.064.714-.258.684-.219.691-.075.715.152.748-.119.707-.47.653-.294.682-.272.689.11.742.02.73-.22.7.415.773-.636.652.42.768-.463.678-.123.713-.038.721.072.721.338.725.157.72-.693.759.746.68.033.714-.3.77.164.712.55.58.232.633.028.9.734.343.762.056.729.389.712-.409.77.294.73-.155.71-.212.458-.815.639-.3.672-.23.709-.155.524.432.665.3-.509.7-.112.591.541.934-.35.662-.464.579-.468.561-.435.594-.842.156-.555.43-.732.166-.3.843-.863-.131-.457.691-.572.555-.77-.043-.762-.206-.643.659-.74-.6-.722.234-.7-.2-.582-.5-.676-.141-.735-.127-.8-.142-.5-.558-.361-.669-.132-.849-.812-.24-.674-.275-.531-.309-.723-.1-.624.333-.544.484-.748.059-.56.452-.825-.1-.6.352-.523.55-.77-.033-.591.4-.465.8-.731.059-.706.118-.718.053-.7.083-.744-.18-.578.849-.771-.433-.708-.106-.668.8-.725-.788-.72.717-.705-.348-.713-.019-.674-.393-.751.269-.64-.467-.682-.16-.734.017-.757.024-.5-.684-.591-.37-.909.221-.42-.684-.736-.186-.432-.6-.563-.434-.24-.728-.341-.6-.789-.306-.393-.6-.218-.687-.388-.607.076-.786-.173-.677-.252-.654-.05-.7-.421-.634-.133-.7.292-.745-.4-.672Zm26.113,3.617.648-.417.608-.513-.034-.852.322-.672.281-.713.026-.769-.213-.775.525-.7-.493-.747.138-.712.557-.674-.382-.753.573-.666.11-.7.13-.7-.674-.8.179-.7.039-.72.184-.7-.059-.733.426-.669-.162-.747.138-.708.706-.626-.372-.781.677-.617-.707-.835.815-.57-.422-.8.68-.57-.213-.764.448-.619-.505-.79.359-.637.337-.815-.856-.26-.548-.574-.651.624-.706.113-.722.055-.728.08-.683-.63-.814.531-.577-.553-.381-.688-.9.03-.617-.422-.569-.482-.125-.995-.845.534-.783-.63-.591.649-.8-.019-.519.6-.637.352-.531.52-.547.43h-.918l-.479.554-.645.387-.431.592.068.983-.894.211-.091.814-.2.711-.557.48-.884.309.381,1.029-.747.409-.62.495.234.9-.39.606.018.777-.3.642-1.022.385.581.962-.485.589-.19.688-.142.7-.638.575.155.776-.508.626.505.825-.238.678.085.727-.586.65.148.732-.613.684.832.74-.01.7-.619.739.341.7.077.718-.269.8.693.578.51.568.214.653-.123.871.74.365.428.542.387.611.721.188.593.33.6.336.577.59.745-.082.709-.078.729.578.715-.187.642-.683.684-.156.715.018.713-.04.679-.2.611-.44.675-.192.789.126.737-.065.732-.111.572-.484.59-.419.69-.23.332-.8.9.041Z" transform="translate(186.766 363.207)" fill="#fff"/><path d="M588.936,719.753l.331-.708-.815-.777.456-.7-.312-.753.684-.683-.476-.766.727-.669-.331-.752-.689-.785.508-.689.559-.684-.334-.759-.508-.777.453-.7.777-.668-.807-.811.119-.725-.125-.746.495-.689-.063-.741.409-.7-.632-.792.335-.7-.156-.749.054-.729.545-.684-.462-.775.15-.719.178-.72.431-.693.169-.715.042-.725.06-.766-.357-.761.237-.781-.734-.413-.231-.525-.721-.767-.828-.032-.555,1.279-.887-.562-.83-.081-.449.939-.47.7-1.117-.529-.608.468-.775.232-.016,1.186-.715.282-.711.212-.341.844-.748.094-.733-.058-.689.151-.722.373-.632-.783-.827.643-.675-.3-.428-.914-.894.313-.229-.981-.5-.442-.391-.518-1.313.022-.2-.8-.26-.758.077-.8-.176-.743.616-.618-.1-.808.427-.614,1.133.031.122-.981,1.019.384.2-1.4,1.018.75.493-.978.876.622.616-.663.786.326.561-1.022.812.324.847.562.612-.876.819.392.623-.836.74-.085.75-.023.734-.125.852.782.61-1.063.791.362.808.49.641-.932.725-.274.7-.269.956.908.2-1.186,1.175-.091-.533-.877.532-.637-.373-.735.089-.689-.149-.715.019-.694.908-.606-.053-.706.338-.668-.044-.708-.918-.786.9-.625-.52-.747-.277-.724.363-.674.919-.644-1.172-.819.735-.712.557-.689-.745-.868.317-.722-.213-.89.379-.736,1.405-.032-.476-1.382.931-.249.732-.419.8-.313.852.611.8-.416.625.69,1.088-.586.654.566.835.272.091,1.025.73.277-.16,1.072,1.418-.155.373.7-.612,1.028.517.595-.093.713-.79.34.166.995-.093.779-.42.525-1,.308.256.911-.29.663-.492.6.154.818-.2.7-.309.678-.759.577.129.788.036.75-.955.639.193.79,1,.457.343.25.448.384.64.243.692-.036.664-.409.7-.055.778.457.753.2.747.168.681-.384.705-.25.745.106.637-.812.815.724.645-.8.784.5.728.025.719-.066.7-.162.737-.475.754-.17.614,1.116.913-.855.778.37.173.97.217.64.533.421-.178.827L617.1,687l-.233.651-.341.637-.84,0-.356.77-.735-.425-.636.036-.664-.02-.772.809-.71-.057-.7-.17-.714-.106-.736-.407-.7.623-.8-.794-.743.044-.554,1.285-.705.1-.725.026-.716.11-.677.266-.866-.492-.726.148-.84-.164-.347,1.031-1.005-.3-.209.957-.132.8-.672.3-.782.388.536.947-1.075.424.233.782-.269.678-.6.622.057.744.242.768.4.785-.231.681-.4.662-.772.62.539.789.26.751-.251.691-.428.671.039.725.232.746-.464.676.164.74-.718.657.032.73.36.758-.533.68.168.74.8.79-.306.7-.184.708-.245.7-.164.708-.515.681,1.029.791-.813.658-.295.7,1.051.789-1.211.632,1,.783-.517.673,0,.738-.478.745.569.716-.393.821.207.776.627.567.747.289.278.971.74.415.9-.748.705.569.711-.416.74.217.705-.193.793.331.754.008.557-.838.686-.225.741-.024.648-.357.848.266.712-.165.655-.33.736-.087.531-.642.732-.162.275.636.51.24.371.989-.388.674-1.245.027-.5.483-.131.848-.179.89-.52.553-.571.5-.858.072-.438.7-.864-.011-.432.765-.845-.034-.6.464-.795.006-.718.163-.548.68-.643.469-.868-.379-.7.262-.752-.035-.765-.434-.685.969-.682-1.044-.717.329-.818.633-.747-.108-.332-1.357-.752.085-.842.087-.271-.849-1.075.158-.117-.889-.393-.58-.335-.613-.545-.525.179-.821-.618-.544-.473-.631-.116-.72.883-.84-1.216-.583.884-.776-.736-.683.831-.717-.756-.721Z" transform="translate(186.766 363.207)" fill="#fff"/><path d="M624.176,714.643l.373-.715-.527-.721.549-.7-.6-.737-.031-.723.6-.69.024-.717-.554-.753.422-.7-.041-.727.527-.692-.132-.736-.281-.746-.225-.719.677-.666-.448-.735.281-.688-.093-.718.509-.672-.676-.753.562-.667-.018-.707-.183-.717-.011-.7-.158-.7.588-.687.236-.73-.561-.689.239-.728-.615-.66.325-.732.3-.711-.132-.692.026-.686-.3-.754.023-.764.721-.474.458-.5.661-.229.249-.893.738.111.549-.354.623-.164.644.116.733.285.857-.614.644.675.738.166.8-.1.382.8.47.511.9-.079.317.68.623.4-.11.791.458.6-.526.653.1.737.257.857-.573.562-.632.489-.034.779.148.791-.457.6-.66.564.416.838-.2.685-.021.723-.433.636-.048.717-.364.658.35.789-.3.672.037.727-.1.705-.435.657.257.763-.158.7-.175.7-.347.681-.166.705-.087.715-.1.714.168.739-.285.693.322.747-.272.7-.535.685-.12.717.776.743-.53.7-.221.738.5.734.319.727-.659.758.1.737-.113.757.719.656-.055.747-.037.765.6.58.172.7.23.7.487.541.682.3.3.816.879-.161.626.3.607.64.781-.359.721.532.748.007.749-.036.564-.881.705-.083.659-.261.7-.16.591-.421.79-.01.511-.569.636-.328.939.124.322-.812.927.021.036-1.109,1.033.056.125-.928.892-.235.1-.836.61-.531-.33-.91.5-.607.627-.631-.4-.826.45-.69-.422-.795.084-.738.112-.7.042-.7.67-.651-.607-.764.379-.676.469-.666-.512-.763-.061-.715-.044-.716.818-.623-.618-.782.788-.624-.377-.763.4-.67-.215-.748.1-.708-.057-.73.062-.713.673-.624.019-.713.291-.67.035-.708-.556-.807.693-.595-.264-.776-.108-.738.323-.673.7-.625-.737-.812.551-.649.409-.674-.519-.774.179-.7-.207-.821.262-.77,1.058-.325-.267-1.11.77-.353.634-.444.683-.374.854.228.662-.466.778.283.733-.676.732.166.767-.051.539.7.729.115.237.853,1.093-.117.429.665-.366.9.317.646-.188.677-.682.363.009.907-.135.769-.412.584-.8.392.054.832-.306.649-.431.606.023.77-.211.685-.274.669-.579.6.027.759-.044.742-.734.6-.008.752.465.833-.074.728-.267.7-.229.705-.083.732.146.763-.124.722-.475.674-.3.7-.273.708.108.761.018.749-.222.719.412.8-.641.672.413.789-.473.688-.133.715-.057.722.034.73.281.744.1.725-.756.687.677.742-.044.712-.4.721.052.721.42.685.036.707-.4.807.278.692.374.647.1.846.827.273.553.686.832.109.78-.043.649-.71.693-.2.7-.189.682-.255.788-.092.457-.7.833.312.236.1.97.205.079.707-.176.772-.27.7-.274.692-.786.332-.456.521-.684.286-.148.877-.868.007-.336.752-.475.634-.763.071-.778-.1-.547.736-.8-.517-.676.3-.731-.114-.68-.4-.718-.006-.761.045-.826.064-.641-.424-.518-.579-.271-.812-.818-.174-.674-.392-.368-.658-.23-.74-.481-.555-.61-.434-.492-.568-.656.3-.844-.069-.568.462-.394.656-.771.166-.487.547-.255.9-.7.259-.663.31-.691.249-.67.27-.777.018-.37.967-.86-.244-.723.049-.509.914-.864-.642-.6.826-.756-.243-.719.07-.723-.312-.726.351-.7-.391-.7-.083-.732.1-.755.112-.584-.622-.639-.3-.883.324-.5-.634-.76-.105-.5-.553-.611-.379-.313-.706-.4-.574-.814-.246-.44-.575-.266-.679-.426-.589.031-.794-.208-.672-.285-.648-.084-.706-.45-.619-.165-.7.258-.768-.434-.655-.542-.655-.067-.72.636-.771.011-.716-.368-.7-.384-.71-.074-.723Z" transform="translate(186.766 363.207)" fill="#fff"/><path d="M680.057,727.41l-.607-.743.691-.672-.513-.754.17-.7.241-.694-.368-.755.176-.7.213-.693.159-.7.414-.671-.522-.788.326-.684.286-.69-.069-.736.113-.713.353-.679.072-.718.16-.7.247-.69-.09-.737-.534-.8.457-.659.519-.648-.072-.736-.546-.8.593-.634-.148-.731.547-.644-.294-.742-.048-.709-.124-.706.04-.693.344-.7.346-.727-.609-.657.453-.765-.74-.6-.183-.672.431-.8-.157-.689-.781-.567.077-.823-.473-.591-.167-.911-.749-.351-.832-.089-.78-.049-.493-.867-.875.264-.606-.47-.714-.184-.339-.774-1.03.1-.089-.9-.413-.564-.453-.614-.131-.748-.123-.748.747-.53.488-.486-.123-.844.686-.379.118-.927.819-.171.771-.1.569-.434.665-.257.605-.582.714-.3.786.4.728.054.784.313.873-.56.764.491h.76l.712.273.521.563.337.689,1.046.124-.03.929.412.621.68.519-.253.908.04.76.723.54-.191.738.348.663-.325.775.527.607-.163.865.812.351.733-.5.769.144.85.041.575-.6.473-.731.757-.11.862.1.327-.881.643-.3.567-.449.771-.055.593-.4.743-.092.432-.753.73-.125.589-.435.656-.288.788.045.531-.606.694-.189.7-.155.757.035.7-.12.683-.175.69-.14.648-.382.734.109.66-.476.731.168.71.481.675.111.795-.734.6.661.6.407.831-.224.8.039.251.969.583.363.379.589.952.1.267.7.143.72.63.531.051.744-.089.729.064.321.175.748-.689.523.132.887-.588.5-.859-.056-.506.647-.729-.447-.645-.116-.523-.308-1.051.044-.367-.662-.471-.508-.436-.51-.651-.168-.568-.519-.736.174-.706-.054-.76-.557-.614.615-.836-.395-.43,1.024-.905-.454-.453.8-.868-.241-.489.639-.775.019-.342.9-.772.045-.86-.084-.35.823-.8.053-.333.811-.6.368-.618.343-.571.42-.942-.085-.138.977-.77.217-.831.177-.137.943-.421.61-.4.611-1.057.057.111,1.02-1.018.178,0,.88-.648.481-.045.8-.3.664-.106.735-.186.7-.766.548-.088.742-.338.681-.06.741.561.845-.705.634.3.776.13.748-.314.686-.7.645.769.815-.551.671-.4.7.56.763-.148.713.3.724-.046.708-.823.743.928.665-.212.735.121.7.2.681-.277.82.564.564-.281.713.488.847-.424.65-.235.746-.862.261-.343.667-.913.008-.1,1.122-.685.343-.917-.367-.617.437-.719.036-.638-.489-.838.244-.825-.321-.37-.762.288-.875-.523-.667-.016-.756Z" transform="translate(186.766 363.207)" fill="#fff"/><path d="M721.525,714.005l-.084-.724.477-.7-.141-.724.275-.7-.048-.723-.072-.731-.3-.772.276-.69.735-.593-.477-.833.457-.634.4-.637.122-.707-.36-.864.863-.473.022-.752-.025-.782.719-.482.137-.721.03-.782.28-.671.431-.592.491-.551.541-.512.534-.506.387-.595.16-.762.5-.519.673-.373-.048-.979.616-.419.213-.8,1.124.113.21-.821.8-.173.331-.721.368-.71.989.148.469-.576.738-.157.308-.9.929.226.4-.812.7-.194.729-.108.53-.653.722-.13.732-.072.717-.1.764.167.6-.72.75.125.734.109.7-.218.72-.019.721.24.71-.019.7.088.693.192.719-.119.794-.529.652.463.612.544.722-.005.861-.424.535.688.752.018.486.69.794-.036.688.231.71.213.607.4.4.689.339.72.888.037.164.869.944.059.531.5.016.91.429.552.893.26.046.813.414.586-.135.841.431.572.546.558.456.62-.461.837.6.617-.161.736.168.707-.492.709.628.827-.665.62-.164.713-.1.772-.348.679-.333.726-.942.116-.714.222-.313.826-.766.1-.37.834-.808-.007-.779.018-.593.42-.649.293-.512.643-.61.423-.837-.186-.7.171-.765-.027-.484.822-.8-.152-.624.4-.67.266-.731.051-.758-.057-.517.881-.825-.335-.687.227-.621.539-.819-.4-.744-.064-.6.71-.759-.161-.676.355-.774-.337-.671.451-.765-.389-.686.329-.75.523-.734-.37-.684-.446-.778.134-.822.222-.662-.448-.56-.676-.912.342-.717-.167-.719.118-.758-.155-.585.418-.609.465.3.748-.288.6.1.657-.006.638-.292.662.423.675.034.7.054.7-.071.748.155.705.279.663.322.645.592.461.271.69.764.236.384.616.3.819.6.453,1-.4.454.752.619.448.83-.279.755-.139.574.8.722.051.7.256.77-.575.7.218.714.23.723-.39.709.1.714.122.708-.094.7-.306.753.439.657-.6.713,0,.778.4.629-.558.795.366.71-.114.712-.115.486-.918.7-.109.655-.266.694-.151.593-.4.778.026.521-.54.638-.289.919.181.351-.787.912.081.076-1.09,1,.1.2-.9.9.021.469-.64.722.219.886-.4.506.68-.121.616.23.719-.7.336-.066.857-.477.513-.525.49-.488.524-.934.053-.064.975-.742.229-.8.139-.188.9-.489.537-.511.516-1.008-.214-.21.977-.979-.229-.372.761-.776.068-.479.605-.64.309-.579.445-.639.325-.88-.262-.626.336-.725.062-.642.294-.484.858-.843-.374-.6.558-.657.374-.748-.084-.79-.493-.609.914-.756-.409-.721-.3-.7.609-.72-.118-.733.3-.724-.078-.662-.871-.8.8-.7-.357-.724-.08-.727-.062-.62-.6-.773.169-.6-.531-.875.426-.655-.345-.751-.079-.474-.748-.741-.112-.365-.838-1.049.375-.61-.417-.2-.955-.731-.228-.521-.495-.207-.793-.869-.175-.7-.379-.384-.633.047-.888-.716-.422-.309-.66-.129-.736-.521-.575-.237-.691-.127-.723.223-.8-.349-.656-.243-.688.486-.791-.22-.685-.674-.661-.1-.721.118-.73Zm32.62-13.809-.17-.7.278-.818-.423-.648-.141-.774-.52-.567-.6-.464-.794-.2-.46-.554-.3-.912-.948.233-.552-.557-.631-.45-.74-.121-.831.438-.621-.773-.759.154-.747.26-.725-.5-.728.19-.683.377-.687.17-.714.063-.732.06-.753.063-.749.129-.659.34-.486.63-.664.312-.772.181-.169.973-.663.325-.253.776-1.128-.1-.149.851-.768.319-.151.8-.1.783-.961.293-.117.765-.5.618.437.856-.7.677.719.576.545.311.719.154.708-.462.754.19.621.458.566.484.5.657.927-.253.63.433.708.321.762-.109.751-.008.784.16.714-.134.728-.056.744.018.683-.32.588-.76.781.19.808.234.669-.348.53-.808.832.264.611-.453.838.179.539-.611.609-.4.551-.473.6-.349.77-.148.8-.251.012-.912L754.5,701Z" transform="translate(186.766 363.207)" fill="#fff"/><path d="M773.533,723.249l.062-.684-.388-.807.3-.686.645-.512.135-.733.213-.725.688-.4.159-.805.4-.638.458-.6.979-.009.328-.744.505-.559,1,.216.621-.321.4-.833.62-.529.83.36.881-.231.359.967-.594.595-.463.579-.612.462-.346.687-.192.784-.31.668-.564.533-.441.639.2.807-.577.71.669.612.35.507-.192,1.008.907.056.213.951.867-.093.574.444.688.18.709.082.762-.177.584.592.668.286.691.163.745-.267.657.551.724-.107.723-.255.7.046.706-.084.73.447.722-.2.737.187.719-.167.71-.223.669-.482.732.057.823.478.581-.773.773.116.765.008.672-.313.435-.826.944.277.516-.576.4-.664.858-.132.359-.672.122-.762.221-.645.263-.64.211-.692.153-.769.017-.8-.289-.746-.648-.522-.386-.653-.328-.757-1,.023-.49-.573-.827-.055-.217-1.123-.879.058-.47-.7-.82-.029-.808-.017-.378-.938-.765-.1-.585-.518-.918.311-.464-.853-.881.268-.652-.349-.632-.408-.835.159-.656-.344-.642-.381-.657-.332-.554-.567-.9.278-.586-.5-.6-.471-.73-.157-.662-.332-.55-.55-.629-.321-.568-.426-.49-.521-.667-.288-.961-.02-.261-.77-.142-.807-.548-.465-.923-.295.112-.878-.488-.588.23-.816-.5-.624-.192-.715-.191-.736.041-.734.407-.688.477-.631-.361-.81.717-.515-.321-.889.265-.686.846-.339.378-.584-.03-.93.764-.288.445-.564.844-.1.433-.571.387-.679.467-.611.936.194.4-.766.748-.093.6-.411.824.176.432-.921.836.278.664-.255.638-.393.69-.2.673-.318.8.45.733.147.641-.6.738.225.672-.613.736.326.719.291.71-.151.723-.007.747-.369.75-.116.679.544.71.181.659.4.848-.45.6.564.752.031.709.191.612.422.536.541.991-.278.347.833.628.367.82.157.166.9.344.651.916.172.2.756.6.486-.047.842.624.512-.208.939.338.8.443.8-.508.658-.622.486-.2.73-.275.812-.785.218-.855-.13-.5.792-.752.1-.752.175-.7-.312-.718.022-.641-.383-.87.158-.52-.62-.6-.532-.311-.727.178-.79-.405-.71-.007-.607-.131-.6-.149-.684-.443-.539-.577-.4-.618-.326-.731-.01-.608-.392-.747.245-.648-.3-.664-.54-.715-.1-.689.821-.743-.462-.747-.123-.608.621-.594.469-.882-.431-.652.324-.734.168-.281.912-.661.27-.662.333-.147.788-.451.514-.4.581-.107.692.207.691-.445.752.681.565.191.636.015.873.83.181.293.836.629.411.642.38.975-.393.635.374.687.259.629.383.731.151.537.594.772.043.656.319.439.846.865-.161.455.816,1.006-.478.4.945.9-.222.447.8.821-.032.523.594.938-.238.5.618.4.77.894-.078.421.691.885,0,.584.449.544.5.571.466.114.94.988.046.251.759.127.809.89.257.5.567.447.615-.4.961.9.469-.511.877.58.628-.246.751.33.712-.034.731.084.748-.083.74-.73.574-.132.7-.435.582-.242.659.211.971-.9.263-.151.812-.346.7-.693.346-.937-.015-.1,1.1h-.872l-.785.066-.368.859-.709.207-.556.576-.707.219-.949-.548-.44,1.039-.775-.076-.7.191-.7.209-.8-.325-.655.449-.77-.252-.635.741-.736-.041-.707.256-.766-.449-.713.256-.748-.537-.7.874-.732,0-.741-.65-.716.273-.714-.041-.69-.448-.747.478-.745.239-.712-.138-.646-.61-.776.293-.709-.152-.669-.327-.766.1-.7-.187-.671-.287-.55-.618-.738-.056-.708-.163-.4-.833-.685-.188-.922.186-.65-.339-.514-.539-.495-.54-.55-.468-.689-.375-.436-.617-.042-.824-.082-.723.012-.692Z" transform="translate(186.766 363.207)" fill="#fff"/></g></svg>