<svg xmlns="http://www.w3.org/2000/svg" width="408.839" height="82.204" viewBox="0 0 408.839 82.204">
  <g id="グループ_713" data-name="グループ 713" transform="translate(-1020.611 -803.419)">
    <g id="グループ_712" data-name="グループ 712">
      <g id="グループ_704" data-name="グループ 704">
        <path id="パス_299" data-name="パス 299" d="M1025.317,881.9l-.9-.7.308-.739.4-.724-.759-.759.574-.708-.338-.75-.139-.741-.094-.737.014-.73.269-.723.113-.736-.079-.728.233-.722-.456-.73.365-.719-.482-.731.064-.723.754-.715.607-.717-.941-.739.1-.724-.509-.732.13-.718,1.124-.705-.382-.728L1025.2,863l.643-.718-.544-.733.178-.722-.7-.736.363-.723-.411-.733.778-.716-.219-.732-.462-.735.34-.723.155-.725-.4-.736.413-.725-.465-.74.3-.729-.5-.738.3-.725.01-.729.444-.717.01-.728-.261-.738-.35-.743.352-.71.073-.721-.495-.749.823-.687-.762-.768,1.158-.665-.941-.779,1.154-.658-.308-.746.542-.693-.2-.743-.635-.778-.244-.753,1.349-.627-.756-.8-.014-.737-.186-.754,1.311-.611-.216-.755-.73-.811,1.118-.614-1.358-.89.933-.626-.05-.741.842-.621-1.2-.9.314-.7-.174-.772.923-.584-.129-.762.324-.675.2-.7-.189-.751.938-.687-1.164-.689.692-.815-.425-.808-1.012.366-.46-1.118-.919,1.108-.68-.6-.53-.707-.885.17.023-1.221-1.193.248-.151-.805-.885-.331.767-1.146-.567-.5-.349-.46.235-.521-.473-.775.338-.7.914-.19.108-.912.492-.633,1.142.671.278-1.227.839.237.666-.341.653-.333.771.282.777.292.516-1,.752.149.615-.522.808.405.709-.076.534-.951.832.543.77.248.636-.44.757.231.566-.877.648-.428.878,1,.658-.45.62-.676.8.451.571-1.032.87,1.035.592-.921.817.789.632-.683.745.291.706-.069.638-.924.76.548.7-.278.76.818.655-1.3.735.435.73.629.712-.031.7-.69.727.82.715-.219.719-.3.7.342.723-.975.7.284.66,1.06.711-.261.733-.436.76-.579.712.085.649.588.664.359.63.5.828-.642.517.958.765-.226.562.591.8-.259.783-.123.666.25.35.977.78-.05.512.522.538.442.618.31.776.081,1.122-.353-.175,1.432,1.154-.267.223.826.072.9,1.043.037-.121.975.866.268.02.807,1.2.2-.147.87.476.6.273.687-.909.982.874.524.707.61-.568.815-.023.72-.058.714.092.71-.132.716-.467.841,1.412.772-.427.709.276.778-.109.74-.319.7-.484.641-.138.719-.333.659-.668.527.272.881.1.847-1.363.152-.533.513.878,1.322-.644.473-.615.47.016.9-1.336-.091-.426.565.06.988-.805.25-.875.148.02,1.023-.921.067.182,1.277-1.317-.433,0,1.139-.629.37-.257.886-1.26-.544-.683.25.071,1.47-.582.463-.94-.191-.365.818-.95-.221-.293.955-.994-.324-.815-.006-.744.118-.046,1.513-.871-.124-.666.289-.736.131-.763.041-.636.327-.514.689-.665.3-.859-.4-.768-.138-.362,1.547-.737.034-.9-.733-.729-.005-.523,1.045-.918-.98-.526,1.124-.833-.575-.647.492-.824-.581-.591.879-.766-.244-.664.429-.74-.1-.669.418-.749-.134-.647.608-.856-1.039-.593,1.048-.778-.48-.607.859-.648-1.109-.428-.1h-.509l.631-.124.109-1,.65-.287.669-.227.465-.782.7-.353.921.8.621-.422.837.3.536-.667.6-.443.514-.675,1.006.733.4-.98.753-.005.868.288.653-.292.761-.026.271-1.245.893.3.338-1.042.973.472.466-.709.667-.244.73-.1.638-.306.838.086.082-1.38.833.067.436-.65.953.223.785-.088.276-.879.739-.172.132-1.032.735-.181.478-.528,1.273.451.057-1.047.552-.443.142-.886,1.364.4.345-.675-.246-1.208.994-.047.492-.515.942-.163.183-.773.134-.784.05-.814.23-.676,1.508.045-.221-.939.819-.413.062-.771-.857-1.074,1-.4.063-.719.3-.661.318-.676-.855-.8.048-.67.26-.673-.028-.68.423-.746-.2-.681.455-.859-.548-.6-.926-.381-.657-.406-.007-.757.508-1.24-1.607.442-.051-.879-.073-1.008-.69-.3-.548-.5-1.142.67-.108-1.483-.9.285-.707-.173-.572-.7-1.014,1.154-.439-1.441-.789.258-.663-.509-.816.653-.631-1.01-.8.8-.73.238-.728.355-.713-1.074-.7.532-.672.524-.687-.013-.8-1.153-.67.467-.771-.42-.65.5-.672.273-.595.654-.635.361-.746-.2-.887-.768-.564.677-.71.032-.561.638-.59.5-.582.209-1.206-.88.005,1.213-.947.139.408.958-1.34.365,1.273,1-.523.617-1.121.484.652.873-.405.64.517.848-1.084.486.359.813-.674.578-.416.631-.278.664.3.8-.154.694.021.735-.756.557.74.9-1.048.493,1.062.972-.951.518.408.823-.041.721v.729l-1.393.426,1.079.966-1.175.479-.283.673.326.8-.064.719-.2.692-.644.6.747.881-.8.576.052.743.588.84-.258.682.08.743-.635.617-.379.665.1.745-.12.708-.166.7-.851.6.287.774.538.8-.306.686-.531.663.094.735.04.725-.344.689-.051.715.667.767-.452.685v.715l.757.726-1.428.675.631.744.49.741-.863.686.155.723.878.751-1.532.664,1.325.764.092.721-.626.706.226.726.271.718-.079.716.092.719-1.1.73-.2.726,1.315.7-.072.721-.248.743-.19.742.2.721-.71.823.6.674.731.629.146.713-.228.789.342.68-.163.79-.164.8.844.554,0,.76.294.617-.631.709.324.73-.253.686-.894.382.557,1.086-.108.884-1.028.1-.789.151-.065,1.274-.909-.1-.834-.4-.642.287-.787.524-.9-.064-.586-.67.591-1.232-.775-.366-.7-.584Z" fill="#fff"/>
      </g>
      <g id="グループ_705" data-name="グループ 705">
        <path id="パス_300" data-name="パス 300" d="M1089.39,880.012l.045-.716.4-.691-.406-.748.739-.651-.553-.767.246-.694.28-.689-.184-.736.636-.644-.471-.778.267-.691.084-.714.3-.687-.08-.738.077-.717-.274-.767.465-.663.262-.69-.412-.785-.05-.732.792-.608.053-.718-.368-.777.524-.65.107-.706.011-.715-.231-.741.26-.677-.172-.723.344-.675-.352-.722.285-.688.352-.705.01-.713-.4-.672-.265-.667.55-.8-.477-.63-.448-.627-.026-.713-.438-.631.053-.8-.321-.683-.246-.847-1.087.164-.245-1.09-.889.1-.827.1-.505-.944-.755.062-.771-.07-.352-.776-.581-.377-.945-.157.037-.9-.393-.63-.058-.738.616-.6-.252-.73.623-.439.03-.742.19-.791.845-.188.47-.556.422-.731.882.136.706-.125.721,0,.576-.91.793.615.709-.157.823-.283.77.519.877-.4.75.217.392.84.7.222.986.076.163.857.726.439.38.676-.153.9.551.588.182.735.287.686-.291.752.275.675-.183.752.71.552-.091.764.511.6.779-.348.711-.18.681-.306.649-.4.789-.169.823.02.358-.812.6-.38.936.25.459-.645.4-.778.848.109.453-.691.771-.041.659-.27.521-.586.861.206.707-.136.44-.829.9.41.514-.673.637-.343.734-.018.653-.3.818.418.624-.447.676-.231.663-.483.748.457.7-.4.694.519.721-.127.707.094.7.165.525.593.88-.188.24.96,1.078-.261.01,1.046,1.061.018-.171,1,.89.338.076.766-.277.779.367.666.2.329-.263.685-.084.718-.212.741-.839.2-.5.471-.568.62-.768-.664-.764.356-.4-.764-.533-.369-.47-.545-.761-.323-.534-.439-.537-.5-.762.088-.675-.319-.728.088-.662.233-.747-.222-.642.338-.856-.359-.553.592-.722.11-.5.633-.859-.185-.613.372-.389.806-.863-.115-.695.221-.476.609-.371.762-.883-.075-.407.68-.907-.073-.353.746-.679.272-.218.867-.611.4-.973,0-.025,1.055-.693.332-.827.235-.015.957-.415.586-.939.23.189.986-.772.4-.42.617-.272.689-.086.753-.581.59-.127.735-.194.716.487.845-.107.718-.341.687-.145.722-.631.638.538.808-.74.633-.1.722.635.8-.244.7-.5.686.281.745-.038.721.315.724-.57.716-.085.729.322.707.14.71-.065.736.579.607-.3.817.419.615-.173.7.262.785-.577.538.01.865-.494.569-.467.593-.8.2-.667.286-.542.505-.816-.187-.565.656-.734-.17-.82.419-.674-.528-.19-.836-.537-.461.1-.746-.888-.6.233-.767Z" fill="#fff"/>
      </g>
      <g id="グループ_706" data-name="グループ 706">
        <path id="パス_301" data-name="パス 301" d="M1133.645,864.824l.421-.706-.76-.745.847-.664-.5-.759.366-.68-.414-.781.93-.577-.184-.755-.327-.8.461-.633.134-.707.525-.595-.3-.841.362-.64.107-.727.863-.438.288-.646-.288-.9.338-.638.744-.434-.275-.951.928-.311.229-.691.006-.841.945-.239.068-.82.176-.766.771-.315.636-.4.514-.489-.047-1.022.889-.132.148-.89.785-.2.413-.631.764-.183.6-.387.4-.708.925.169.42-.729.839.117.485-.681.773.048.657-.268.675-.222.668-.309.745.2.7-.035.7.158.67-.348.69-.364.7.052.588.532.793-.106.16.965.639.447.855.1.752.133.708.283.773-.478.61.764.78-.221.65.344.873-.253.651.375.5.636.547.487.784.138.616.406.168.906.975.031.191.82.286.692.963.175.3.687.548.525-.309,1.011.948.321-.156.874.633.516.015.77.3.659.407.637.1.728.056.732.421.663-.254.775-.139.74.737.666-.527.756.505.719.1.729.045.731-.724.7.05.723.551.767-.1.723-.715.649.1.737-.291.683.543.826-.952.551.531.849-.843.539-.04.725-.061.727-.232.678-.014.754-.677.512-.1.727.14.845-.222.7-.418.6-.328.648-.493.552-.683.419-.231.7-.77.321-.425.562.123,1.032-.492.538-.965.071-.235.78-.687.307-.276.786-.617.389-.655.323-.817.056-.3.874-.724.185-.627.352-.708.177-.586.452-.634.361-.875-.351-.617.4-.7.139-.606.55-.73.018-.659.432-.814-.691-.7.08-.682.384-.705.373-.725-.087-.738.289-.681-.831-.751.343-.643-.6-.781.336-.6-.6-.769.136-.678-.233-.779.033-.435-.819-.657-.253-.7-.2-.586-.4-.989.165-.608-.429-.1-1.01-.624-.374-.729-.3.009-.957-.42-.56-1.093-.109-.081-.816-.379-.616-.1-.759-.4-.6-.81-.449.168-.84-.593-.566.137-.8-.023-.738-.585-.609.149-.772-.149-.708-.4-.673.209-.755.149-.739-.667-.683.458-.75-.276-.721Zm32.3-5.632.4-.728-.824-.672.739-.782-.643-.646.176-.75-.638-.605.651-.882-.489-.623-.665-.546.067-.77-.291-.653.043-.795-.785-.424-.193-.694-.47-.544.169-.955-.4-.616-.934-.177-.44-.544-.2-.842-.977.1-.262-.934-.746-.15-.766.279-.731-.643-.54.737-.237.732-.773.315-.644.394-.539.435-.16,1.021-.909-.142-.553.737-.806-.255-.749.229-.675-.348-.694-.043-.667.4-.783-.493-.519.657-.843-.038-.26.791-.7.29-.411.579-.413.577-.3.663-.668.381-.435.566-.547.5-.078.8-.012.8-.313.621-.668.456.084.8-.932.388-.214.689.089.779-.184.687-.421.633.393.8-.77.588.286.761-.221.694.485.742-.112.7-.347.706-.125.731.362.71.113.713-.487.791.759.622-.271.792-.046.772.836.512.1.721.441.586-.375.992.963.292-.025.887.749.34.3.709.591.437.7.271.56.449.6.419.77-.011.586.552.684.365.8-.592.7.59.719-.508.709-.144.7-.136.821.578.707-.234.555-.762.686-.175.9.358.6-.461.745-.149.313-.938,1.054.328.208-.988,1,.107.473-.593.438-.609.521-.517.3-.7.813-.293.286-.7.006-.862.28-.663.427-.582.293-.653.421-.6.6-.55.05-.756.634-.576.185-.721-.568-.881.149-.7.758-.614-.3-.778.305-.7-.37-.755.1-.721Z" fill="#fff"/>
      </g>
      <g id="グループ_707" data-name="グループ 707">
        <path id="パス_302" data-name="パス 302" d="M1181.095,869.925l.075-.741-.5-.744-.278-.753.983-.657,0-.724-.4-.777-.286-.781.25-.707.051-.739.04-.746.175-.718,1.4-.4-.394-.85.189-.7.6-.57-.555-.956,1.232-.325-.219-.856.755-.467-.877-1.175.765-.456.392-.619-.285-.973,1.581.032-.631-1.2.56-.519.276-.692.294-.69.8-.336,1.087-.1-.233-1.08.521-.514.668-.385.274-.718.593-.437.884-.146-.5-1.528.975-.046,1.147.192.055-1.018.135-.978.5-.554.832-.118.724-.26.326-.875,1.167.531.221-1.145,1.17.754.155-1.5,1.188,1.086.366-1.2.941.685.6-.551.743.079.577-1.094.821.765.691-.48.724-.264.736-.214.743.765.694.443.961-1.233.552,1.132.914-.675.571.952.7.584.524-1.342,1.013.04-.55-.914.82-.626.094-.7-.89-.82.248-.686.744-.625-.46-.772.441-.661-.436-.777,1.378-.543-1.183-.873.989-.586-.358-.765-.323-.761,0-.717.55-.644.129-.7-.038-.725.721-.608.62-.625.169-.689-.628-.813.163-.686-.741-.829.411-.645.113-.694.892-.571.462-.637-.6-.822.949-.571-.325-.8.133-.718-.315-.794-.15-.767-.091-.757,1.167-.533-.875-.9.3-.689.875-.573-.635-.876.35-.673.448-.792.929-.854-1.506-.827,1-.562.553-.492.3-.58-.248-1.314,1.06.135.557-.519.522-.742.891.323.675-.359.868.553.693-.132.828-.888.647.794.5.747,1.123-.625.253,1.014.152.882.443.481.6.411.584.459.412.616.8.751-1.021.62.4,1.014-.274.819-1.495-.287-.014,1.026-1.113-.144.475,1.584-1.2-.094-.3.72-.855.359.321,1.044-.874.409-.2.744.129.847-.3.682.3.862-.242.693-1.516.391.526.9-.1.723.114.77-.048.733.2.786-1.079.509-.267.685.789.91-1.17.494.727.892-.876.558-.4.657.176.775.112.76-.34.67-.526.634.339.8.613.85-.779.593-.091.722-.494.649-.2.7.553.831.22.77-.411.663-.945.579-.164.707.241.768-.706.625-.141.715.288.774-.377.68-.086.72.518.793-.813.628.3.762.255.752-.5.67-.373.686.774.8.336.747-1.077.623-.065.714,1.138.806-1.433.61-.032.717,1.158.794-.479.687.558.749-.51.69-.3.705.528.745.139.721-1.021.678.949.759-1.384.673.461.746-.012.724-.081.723.342.739.485.742-1.35.677.221.733.313.733.383.733-.092.721-.447.719.373.732.669.719-.044.716-1.3.764,1.371.653-.94.787.875.634-.8.839.908.554v.716l-.375.957,1.407-.148.22.424.457.1.736.5.637-.773.834.647.727-.159.454-.94,1.143.914.751-.193.548-.59.187-1.394,1,.293.612.585.52.835-.245.748-.149.74-.778.391-.383.578-.448.533-.861.156-.4.547-.4.561-.2.848-.328.755-.707.251-.487.6-.708.231-.574.508-.941-.413-.766-.133-.571.534-.672.22-.639.9-.765-1.3-.646.038-.638-.05-.85.543-.564-.5-.483-.521-.7-.227-.256-.7-.49-.477-.457-.523-.43-.545-.911-.023-.167-.456-.6.241-.72-.11-.931-.419-.348.963-.932-.306-.17,1.253-.925-.281-.747.067-.7.15-.231,1.24-.718.137-1.009-.7-.437.892-.789-.173-.573.586-.852-.587-.572.688-.692.149-.725-.126-.661.543-.7.615-.741-.627-.732.018-.669-.851-.719.129-.9,1.106-.751-.126-.7-.325-.342-1.427-.889.394-.88.189-.661-.37-.214-1.111-1.023.245-.524-.547-.774-.253-.225-.841-.986-.13.054-1,.033-.889-1.3-.077.569-1.12-.35-.617-.553-.558.131-.8-.7-.556.052-.758-.491-.65-.266-.71.7-.811-.084-.71-.247-.716Zm26,4.77.52-.506-.026-.88.058-.732,1.133-.234.18-.709-.287-.8-.26-.734.217-.653-.03-.686-.081-.691.022-.7,1.287-.715-.582-.759v-.738l.414-.734-.819-.756,1.059-.728-.5-.749.532-.736-1.264-.763.514-.741.093-.747-.686-.762,1.42-.718-1.124-.775.232-.735-.117-.69-.13-.675.449-.682.739-.808-1.025-.444-.455-.36-.66-.426-.765-.136-.42-.646.079-.885-1.615-.078.293-.861.451-1.073-1.035-.151-.85.174-.43,0-.651-.444-.706-.169-.6.651-.929-.857-.4,1.081-1.12-.82-.062,1.5-1.343-.882-.053,1.259-1.13-.3-.325.778-.694.329.178,1.217-1.111-.066-.159.825-.271.7-.267.685-1.019.152-.722.4.777,1.333-1.224.112.406,1.038-1.064.262-.766.449.886,1.183-1.033.347.469.948-.94.428-.237.688.734.966-.344.638-.815.539.385.819-.484.635.4.79-1.386.536,1.2.867-.964.635.409.753.4.731.094.694-.437.709.018.705.218.682-.5.8-.343.842.16.757.966.43.275.672,1.089.107.171.686.474.449.109,1.051.512.681.963-.388.5,1,.832-.316.734.08.734-.424.7-.3.685-.267.829.972.567-1.114.725.038.861.581.511-.947h.739l.771.05.958.494.1-1.72.991.485.8-.049.607-.437-.018-1.314.987.158Z" fill="#fff"/>
      </g>
      <g id="グループ_708" data-name="グループ 708">
        <path id="パス_303" data-name="パス 303" d="M1238.759,867.268l.425-.718.1-.713-.041-.716-.435-.734.237-.712.522-.693-.438-.743-.038-.725.6-.686-.408-.75.512-.693.177-.716-.571-.765.372-.684.1-.7-.543-.741.805-.655.144-.7-.209-.722-.29-.726.375-.68-.11-.714-.415-.73.713-.666-.355-.715.139-.694.069-.717-.3-.695-.218-.689.612-.753-.394-.684.452-.713-.47-.7-.04-.706,0-.724.236-.69.14-.757.827-.288.335-.665.828.042.364-.73.717.244.573-.38.639.021.733.34.845-.546.678.518.645.44.614.28.652.2.837-.051.512.517.4.606.479.513.266.653-.143.695.148.72-.063.732-.592.554.07.807-.381.621-.7.493.135.809-.589.576.432.855-.25.671-.056.718-.067.714-.5.622-.508.63-.086.714.423.8-.68.61.14.747-.2.692.216.759-.679.627.365.779-.106.712.264.76-.608.65.145.743-.409.679.226.746-.05.716-.34.692.049.73-.117.713.142.727.258.72-.569.705-.059.738.325.736-.275.744.15.736.655.7-.2.744.332.688-.416.808.665.592-.357.873.16.759.527.581.489.575.88.11.334.738.822-.083.483.81.716.254.777-.216.735.046.706-.217.759.263.735-.072.746-.074.536-.711.634-.342.774-.021.519-.577.826.007.338-.845.641-.313.827-.069.456-.594.562-.449.687-.345.3-.74.693-.382.347-.662.752-.478.172-.766-.1-.813.434-.675-.384-.82.077-.732.377-.709.059-.747-.341-.735.744-.648-.281-.732-.149-.723.195-.693-.222-.735.815-.631-.377-.746-.02-.713.662-.639-.58-.778.294-.682.014-.716.26-.688.333-.679-.518-.788.333-.678-.026-.724.06-.712.763-.605-.11-.73-.549-.8.376-.656-.061-.731.813-.582-.2-.76.3-.683.281-.686-.347-.764.361-.674.3-.687-.14-.737-.371-.754-.047-.8.646-.617.111-.78.346-.72.768-.309.763-.148.657-.241.634-.355.7-.192.71-.418.763.361.706-.224.625.416.6.3.788-.073.579.406.6.416.04.8.625.5-.177.723-.255.619-.076.758-.88.277.015.887-.362.629-.651.481.229.918-.538.549-.059.75-.282.662-.4.631-.548.6-.017.746-.178.713-.436.661.435.844-.595.634.25.792-.451.663-.265.7.65.855-.64.641-.127.723-.011.742-.209.714-.215.716-.221.716.137.765.229.775.1.757-.293.713-.566.681.14.76.391.779-.286.7-.186.709-.144.714-.109.718.14.733-.339.708.505.736-.659.713.023.728.05.73.1.727.592.654.243.666-.507.884.449.637.822.309.022,1.014.814.143.747-.365.689-.157.806.49.813.08.622-.519.714-.236.348-.927.857.051.6-.723,1.035.439-.368.872-.045.532.029.62.234.81-.826.346-.385.538.056.943-.36.668-1.034-.1-.419.585-.346.776-.98-.329-.549.433-.536.585-.8-.336-.632.359-.689.105-.73-.061-.732-.036-.647-.444-.7-.116-.61-.361-.895.173-.741-.25-.485-.61-.258-.792-.931-.153-.159-.822-.232-.733-.453-.577-.619-.459-.629-.341-.762-.061-.713.238-.225.934-.509.48-1.056-.215-.541.47-.594.394-.425.654-.53.514-.788.073-.349.884-.9-.212-.513.632-.744.07-.733.049-.564.711-.74.038-.781-.333-.695.215-.7.457-.735-.314-.712-.4-.751.563-.7-.359-.781.334-.658-.458-.592-.576-.911.516-.509-.721-.489-.618-1.022.376-.651-.373-.1-1.055-.955-.009-.577-.477.092-1-.985-.191-.134-.774-.454-.583.107-.833-.052-.732-.614-.541.119-.77-.188-.679-.781-.569.284-.783.234-.755-.4-.663.133-.729-.754-.66.367-.747-.277-.707-.088-.722.365-.727Z" fill="#fff"/>
      </g>
      <g id="グループ_709" data-name="グループ 709">
        <path id="パス_304" data-name="パス 304" d="M1291.668,868.005l-.488-.631-.027-.638.166-.715.514-.691-.057-.71-.626-.767.11-.714.176-.7.579-.634-.441-.8.377-.658-.082-.754.367-.65.4-.632.129-.705-.01-.755.69-.516-.116-.8.063-.749.426-.6.636-.495-.161-.871.778-.406v-.811l.546-.512.4-.588.607-.455-.184-.986,1.035-.14-.163-1.014,1.053-.077-.078-.992.54-.484.443-.571.5-.521.819-.178.394-.624.707-.265.519-.482.346-.725.731-.2.372-.738.9.1.6-.375.52-.537.5-.621.9.257.716-.1.465-.8.8.158.525-.787.849.466.574-.767.784.332.658-.534.732.049.73.152.717-.143.734-.147.734.013.69.43.661.443.682.2.8-.377.74.016.751.025.664.324.428.9.905-.373.573.451.59.393.653.263.524.5.817.008.248.9.493.485.8.1.505.486.663.339-.047.953.41.52.669.391.139.691.549.69-.263.845.433.776-.759.562-.269.628v.839l-.625.437-.29.762-.95-.039-.406.7-.751.1-.526.708-.806-.218-.707.494-.732-.637-.571-.406-.449-.44-.711-.524-.389-.668.182-.924-.35-.732-.433-.655h-1.057l-.406-.573-.678-.2-.559-.449-.522-.682-.735-.106-.737-.039-.707-.193-.752.314-.7-.23-.76-.508-.712.378-.646.49-.8-.172-.78.02-.595.511-.461.7-.976-.247-.659.364-.486.6-.232.876-.521.487-1.066-.059-.274.763-.114.863-.713.345-.346.646-.583.477-.293.678-.453.575-.543.534-.478.583.3.957-.834.425-.126.742-.194.706-.445.621.271.848-.422.634-.154.711-.242.693-.167.712-.45.674.108.758.471.777-.711.682-.091.737-.037.741.747.711.085.714.158.706.1.707-.352.8-.086.782.719.553.022.764.618.505-.091.889.948.2-.171,1.125.857.173.634.355.4.806.83-.016.722.139.708.147.7.154.649.607.782-.359.709.363.746-.262.731-.4.725.872.718-.231.715-.122.713-.111.749.328.646-.737.673-.314.733.127.673-.262.791.33.738.006.674-.269.575-.586.868.386.663-.294.411-.96.806.115.758-.044.721-.139.554-.514.583-.438.625-.351.823.023.623-.37.271-.974,1,.223.394-.847.878.121.611-.375.355.44.261.689.719.683-.286.853-.663.544-.69.365-.564.505-.214.911-.726.326-.43.678-1.062-.126-.161,1.044-.838.133-.611.445-.483.582-.8.069-.649.312-.334.863-.912-.157-.4.78-.875-.144-.532.562-.737.094-.711.136-.621.377-.786-.123-.566.606-.6.595-.785-.172-.728.033-.706.14-.765-.354-.64.754-.746-.231-.695.491-.746-.55-.721.2-.713-.422-.733.46-.714-.153-.757.348-.665-.574-.732.045-.7-.185-.663-.327-.819.322-.59-.575-.615-.407-.671-.224-.724-.113-.772-.059-.529-.544-.52-.517-.58-.4-.723-.227-.672-.33-.076-.952-.46-.519-1.046-.057-.273-.707-.671-.434-.038-.826-.694-.457.053-.828-.022-.763-.481-.585-.357-.647.407-.85-.565-.594-.185-.694.294-.772-.477-.659-.368-.687-.138-.725Z" fill="#fff"/>
      </g>
      <g id="グループ_710" data-name="グループ 710">
        <path id="パス_305" data-name="パス 305" d="M1355.011,872.378l.317-.71-1.119-.8.851-.678-.441-.762-.145-.743,1.2-.642-.131-.734-.057-.731.033-.725.413-.695-.283-.754-.7-.792.76-.667-.278-.759.238-.716.509-.693-.257-.758-.211-.754.635-.676-.573-.788-.022-.736.88-.651-.264-.758-.566-.787.394-.7-.127-.746-.26-.756.394-.7.5-.692-.736-.79,1.2-.638,0-.74-1.057-.8.893-.768-.913-.643-.208-.48-.277-.169-.577-.541-.717.254-.743.122-.618.478-.914-.486-.838-.057-.491.752-.6.454-.4.736-.739.2-1.02-.092-.486.611.016,1.149-.721.343-.723.285-.791-.156-.711.208-.734.086-.638-.751-.758.3-.546-.661-.89.441-.581-.476-.6-.4-.273-.827-.827-.19-.591-.524.258-.917.2-.714-.32-.617-.128-.651-.336-.763.344-.635.287-.656.255-.863,1.036.061.422-.778.9.226.7-.173.534-.864.907.757.555-1.025.826.555.72-.083.674-.48.758.018.714-.257.812.353.649-.665.866.76.59-1.088.86.786.636-.82.678-.548.841.758.649-.834.862.987.646-1,.81.388.686-.4.524-.416.422-.443-.33-.779.491-.632.338-.662.357-.662-.889-.792,1.222-.57-.9-.79.8-.621.047-.7.234-.681-.8-.776.406-.668.1-.7-.4-.735.74-.649.252-.688-.429-.777-.407-.791.706-.691-.613-.865.1-.795,1.093-.474-.5-1.051.412-.736.7-.506.856-.283.617-.623.811-.339.871.374.886-.581.64.9.622.5.83.089.482.665.433.561.968.013.512.531.381.637.035.808.68.513.209.762-.65.67-.485.439.072.919-.4.578-.259.666-.785.42-.693.522.049.826-.3.685.359.892-.618.588-.24.711.155.8-.806.589.186.8-.39.717.163.768.766.515.143.7.757-.145.6.734.721-.58.734.5.687-.409.721-.061.768.325.743.134.611-.972.7-.23.836.865.62-.959.8.6.668-.585.739.047.735.056.745.253.7-.642.732.135.7.523.731-.182.65.315.761-.018.477.544.156.685.676.422-.761.724-.1.757-.921.279L1383,841.3l-.852.191-.592.6-.819-.466-.676.879-.729-.278-.733.1-.655-.51-.7-.325-.751.763-.71-.342-.707.192-.694.24-.825-.852-.687.365-.593.827-.806-.4-.682.3-.621.523-.719.11-1.016-.987-.517.8-.477.647-1.013-.349-.734.313.054,1.1-.326.587-1.011.273.716,1.025-.232.625-.018.7-1.155.5-.224.694.412.8-.573.635.066.738-.456.655-.047.716.831.83-.513.654.274.752-.2.7-.653.646.745.8-.164.7-.719.65.032.728.488.77-.422.686.482.767-.934.645.46.764-.15.712.226.742-.433.689-.1.714.106.728.426.749-1.311.622.643.762.174.729.064.72-.045.713-.045.71-.717.659-.013.748.434.742-.192.743.029.748.888.456.3.508-.194,1.1.516.751,1.036-.64.68.078.7.853.688-1.024.752.522.751.148.691-.28.78.182.513-1,.655-.306.786.162.926.563.683-.278.609-.474.722-.132.6-.475.666-.269.738-.5.358.88.228.312-.276.589-.287.63-.57.443.109,1.009-.673.372-.485.543-.431.628-.723.261-.871.005-.522.507-.277.976-.721.22-.619.418-.553.591-.986-.457-.55.616-.722.16-.6.6-.864-.392-.717.122-.611.855-.757.139-.778-.717-.72.236-.67-.509-.8.549-.756-.024-.711-.245-.723-.23-.39-.835-.618-.35-.977-.005.025-1.034-.207-.7-.969-.247.136-.863-.242-.655-.1-.7-.913-.516.73-.865-.639-.621.7-.775-.219-.681.138-.7-1.128-.693.454-.717Z" fill="#fff"/>
      </g>
      <g id="グループ_711" data-name="グループ 711">
        <path id="パス_306" data-name="パス 306" d="M1391.377,875.875l.384-.673-.584-.846.749-.536.028-.765.51-.548.1-.789.739-.363.63-.4.112-.862.557-.469.48-.554.813-.142.515-.5.367-.762.7-.256.817.052.616-.325.636-.726.742.482.119.642-.161.686-.646.435-.035.935-.618.456-.544.528-.629.5-.2.765-.234.724-.021.764-.247.734-.131.787.525.6.616.407.231.8.853.005.391.761.807-.071.6.4.79-.2.511.831.7.146.69.21.772-.372.719-.1.646.632.747-.475.7.145.693.544.716-.564.719-.131.738.528.693-.634.713-.064.765.455.763.221.634-.707.733,0,.63-.486.891.574.5-.868.683-.194.879.223.456-.718.492-.544.967.108.669-.4-.085-1.034.4-.548.419-.576,0-.712.148-.679.529-.8-.663-.646-.422-.6-.367-.594-.124-.817-.72-.326-.18-.948-.936.013-.376-.8-.8-.12-.589-.484-.7-.256-.577-.5-.924.216-.683-.259-.48-.728-.64-.379-.735-.156-.736-.132-.6-.495-.721-.161-.865.246-.559-.614-.6-.5-.657-.329-.836.138-.617-.415-.63-.383-.713-.2-.594-.471-.6-.435-.99.36-.506-.653-.547-.489-.713-.214-.421-.642-.583-.4-.527-.472-.428-.565-.476-.516-.3-.642-.73-.382.1-.835-.581-.521.073-.754-.482-.619.211-.738-.028-.7-.1-.7.318-.665.009-.693.2-.657-.4-.867.64-.517.145-.716.142-.753.684-.406.7-.337-.163-1.1h1.012l.112-.95.545-.492.84-.062.53-.5.67-.27.548-.5.746-.1.491-.679.82.136.567-.541.712-.133.7-.164.681-.234.839.5.647-.367.611-.687.8.555.668-.387.735.21.7-.092.687-.519.729.442.712.226.735-.673.714.378.744-.163.677.478.713.114.72.075.77-.107.7.2.756.047.642.381.75.119.388.861.889-.109.384.755.609.376.52.492.685.316.647.395.619.453-.095.971.469.544.34.627.053.745.792.651.25.9-.206.756-.584.583-.367.576-.21.708-.766.191-.444.535-.658.2-.656.144-.639.318-.7-.044-.7.242-.758.365-.562-.756-.615-.232-.628-.278-.506-.5-.311-.65.118-.734.173-.684-.75-.62.473-.922-.827-.338-.676-.241-.411-.561-.5-.562-.724-.06-.743.14-.672-.056-.658-.152-.666-.242-.688-.46-.711.239-.7.16-.707.04-.79-.283-.645.411-.663.285-.472.7-.716.107-.53.459-.95-.08-.119.926-.872.2-.176.757-.439.6-.057.742-.02.721.12.73.293.666.225.674.2.767.639.416.523.548.563.527.987-.35.492.675.639.358.654.33.623.407.785.03.835-.106.408.907.713.185.627.4.72.184.774.062.7.238.47.771.78.053.648.349.646.342.613.4.651.319.858-.07.776.122.528.55.319.849.525.5.872.029.627.387.207.872.546.454.71.307.586.454.455.573.227.724.155.731.418.575.466.578.125.713.05.717.252.674.649.671-.174.751.06.743-.074.74-.738.613.021.731.174.819-.226.715-.465.6-.483.565-.8.3-.007.916-.59.445-.338.715-.709.293-.461.615-.971-.174-.469.616-.645.324-.638.339-.516.665-.941-.444-.593.483-.694.2-.6.554-.868-.52-.571.754-.738,0-.664.437-.814-.532-.626.815-.744-.1-.737-.086-.729-.012-.705.44-.748-.456-.715.441-.74-.638-.732.009-.715.321-.7-.322-.738.452-.689-.4-.677-.38-.786.616-.7-.224-.7-.2-.681-.265-.693-.181-.807.283-.72-.119-.614-.475-.766.014-.449-.854-.861.224-.567-.489-.749-.113-.585-.436-.473-.6-.543-.458-.767-.188-.112-.91-.827-.2-.687-.413-.208-.745-.367-.659.239-.8Z" fill="#fff"/>
      </g>
    </g>
  </g>
</svg>
