<svg xmlns="http://www.w3.org/2000/svg" width="42.034" height="29.942" viewBox="0 0 42.034 29.942"><defs><style>.a{fill:#77766c;}.b{fill:#fff;}</style></defs><g transform="translate(-359 -3802.77)"><g transform="translate(359 3729.125)"><path class="a" d="M39.359,103.586a2.535,2.535,0,0,0,2.675-2.542V80.749a2.57,2.57,0,0,0-1.37-2.349,2.015,2.015,0,0,0-2.418.55l-4.27,4.9a2.025,2.025,0,0,1-3.138,0l-8.252-9.457a2.025,2.025,0,0,0-3.138,0L11.2,83.846a2.025,2.025,0,0,1-3.138,0l-4.27-4.9A2.015,2.015,0,0,0,1.37,78.4,2.57,2.57,0,0,0,0,80.749v20.295a2.538,2.538,0,0,0,2.678,2.542H39.359Z"/></g><path class="b" d="M1.89,0a.766.766,0,0,1-.56-.238A.766.766,0,0,1,1.092-.8V-1.12a1.54,1.54,0,0,1,.63-1.274A20.556,20.556,0,0,0,4.837-5.208,3.071,3.071,0,0,0,5.6-7.1q0-1.288-1.428-1.288a6.244,6.244,0,0,0-2.128.476.539.539,0,0,1-.5-.056A.489.489,0,0,1,1.3-8.4v-.588a1.075,1.075,0,0,1,.21-.651,1.012,1.012,0,0,1,.56-.385,9.6,9.6,0,0,1,2.45-.336,3.834,3.834,0,0,1,2.611.805A2.816,2.816,0,0,1,8.05-7.322a4.032,4.032,0,0,1-.777,2.345A18.393,18.393,0,0,1,4.242-1.96a.04.04,0,0,0-.014.028.012.012,0,0,0,.014.014H7.308a.744.744,0,0,1,.553.238.778.778,0,0,1,.231.56V-.8a.778.778,0,0,1-.231.56A.744.744,0,0,1,7.308,0Z" transform="translate(376 3827)"/></g></svg>