<svg xmlns="http://www.w3.org/2000/svg" width="42.034" height="29.942" viewBox="0 0 42.034 29.942"><defs><style>.a{fill:#a2a2a2;}.b{fill:#fff;}</style></defs><g transform="translate(-359 -3802.77)"><g transform="translate(359 3729.125)"><path class="a" d="M39.359,103.586a2.535,2.535,0,0,0,2.675-2.542V80.749a2.57,2.57,0,0,0-1.37-2.349,2.015,2.015,0,0,0-2.418.55l-4.27,4.9a2.025,2.025,0,0,1-3.138,0l-8.252-9.457a2.025,2.025,0,0,0-3.138,0L11.2,83.846a2.025,2.025,0,0,1-3.138,0l-4.27-4.9A2.015,2.015,0,0,0,1.37,78.4,2.57,2.57,0,0,0,0,80.749v20.295a2.538,2.538,0,0,0,2.678,2.542H39.359Z"/></g><path class="b" d="M2-.056a.918.918,0,0,1-.553-.35,1.022,1.022,0,0,1-.217-.644v-.434a.535.535,0,0,1,.238-.462.605.605,0,0,1,.518-.1,7.633,7.633,0,0,0,1.806.294q2.058,0,2.058-1.722a1.237,1.237,0,0,0-1.4-1.4,1.465,1.465,0,0,0-.56.1q-.084.028-.343.133t-.392.154a3.1,3.1,0,0,1-.336.1,1.643,1.643,0,0,1-.385.049H2a.721.721,0,0,1-.546-.238.74.74,0,0,1-.21-.56l.2-4.284a.865.865,0,0,1,.266-.567.794.794,0,0,1,.574-.231H6.916a.766.766,0,0,1,.56.238.766.766,0,0,1,.238.56V-9.1a.766.766,0,0,1-.238.56.766.766,0,0,1-.56.238H3.752q-.126,0-.126.112L3.542-6.412a.012.012,0,0,0,.014.014h.028a3.439,3.439,0,0,1,1.33-.28,3.3,3.3,0,0,1,2.415.833,3.179,3.179,0,0,1,.847,2.373Q8.176.14,3.892.14A9.352,9.352,0,0,1,2-.056Z" transform="translate(376 3827)"/></g></svg>