<svg xmlns="http://www.w3.org/2000/svg" width="336.357" height="115.822" viewBox="0 0 336.357 115.822"><g transform="translate(-632 -901.678)"><path d="M575.633,667.018l.323-.735-.311-.735,1.161-.73-.046-.732.114-.73.029-.728-.068-.731-.612-.757-.106-.745-.173-.752,1.05-.669-.406-.758-.329-.734.892-.7-.054-.725.12-.722.214-.722-1.364-.744,1.068-.707-.523-.73.477-.718-.589-.732.594-.719-.011-.722-.1-.725-.782-.734.371-.725-.507-.735.9-.719.241-.728-.144-.732.075-.729-.728-.738-.37-.734.6-.719.8-.719.1-.727-.413-.734.209-.725.163-.722-1.275-.745.928-.7-.849-.745.036-.72-.1-.726,1.265-.651-1.005-.777,1.008-.656-.624-.759.289-.693-.041-.717-.314-.739.992-.64-.708-.773,1.131-.625-.473-.758-.337-.745.364-.686.363-.685-.914-.806.168-.707.186-.706.279-.7.46-.678-.785-.805.988-.623.482-.674-1.342-.869.581-.663.981-.615-.662-.8.757-.635.127-.706-.751-.812.872-.62.175-.7-.42-.774.577-.643-.767-.826-.412-.785,1.388-.6-.465-.777-.734-.61-.085-.423-.443-.64-.856.464-.653-.851-.779.238-.621-.467-.535-.488-.586-.367-1.032-.036-.141-.841-.315-.655-.279-.658.267-.88-1-.35-.29-.712-.182-.8,1.024-.608-.335-.966,1.131.053.068-1.118.684-.388.991.513.693-.145.471-1.369.758-.209.868,1,.567-.845.663-.277.756.209.871.727.449-1.316.929.971.6-.613.68-.217.579-.709.9.853.688-.151.5-1.185.872.869.554-.958.845.771.684-.276.768.286.652-.487.658-.434.773.379.531-1.371.737.111.819.869.616-.921.755.389.754.485.676-.481.7-.229.755.759.707-.05.675-.994.71-.149.732.684.7-.849.719-.074.726.677.719-.258.715-.541.694.951.724-.635.7.167.688.357.742-.492.652.716.734-.262.765-.405.6.835.73-.092.534.97.8-.459.9-.716.419,1.209.615.362.846-.339.494.676.626.292.621.294.736.081.388.723,1.1-.5.04,1.32,1.053-.306.9.016.409.685.836.178-.513,1.584,1.463-.392.131.86.128.8.785.347.024.819.18.7.261.653,1.289.315-.8,1.008.35.647-.106.742.373.665.229.7-.25.735.968.7-.02.749-1.385.68.7.775-.59.654.859.89-.813.581-.581.589.444.892-1.089.378-.145.7.536,1.028-.429.612-.812.391-.071.793.137.955-1.24.054.321,1.126-1.276-.052-.557.466-.229.744.22,1.178L620,622.62l-.083.935-.6.429-.706.3-.175.906-.727.271-.593.428-.725.249-.671.307-.586.418-.467.6-.211,1.024-.927-.106-.475.63-.614.393-.934-.205-.237,1.1-.9-.168-.951-.3-.269,1.107-.977-.391-.4.874-.46.768-.961-.4-.836-.135-.306,1.191-.73.145-.631.4-.735.1-.529.419-.97.385.994.65-.667,1.276,1.292-.01-.117,1.128,1.358-.333-.277,1.275.6.411.194.795.388.607.528.473,1,.048.893.158-.453,1.356.765.278.79.258.668.373.544.484.054.927.96.107-.411,1.356,1.25-.155-.093,1.065.971.09.283.722.682.364.054.934.74.315,1,.082-.274,1.241,1.016.068.491.543.615.443.125.868.756.32L618,654.037l1.146.007.467.572.832.282-.574,1.373,1.21-.015.27.706.46.562.2.77.346.658.879.208-.085,1.026,1.008.085.092.9.15.86.631.425,1.215-.166.174.9-.024.924,1.616-.1.122.837.421.693-.638,1.055.1.671-.653.476.8,1.124-.511.583-1.376-.32-.141.7-.668-.242-.7,1.283-.5-1.129-.555-.307-.339-.587-1.442.553-.465-.648.583-1.371-1.064-.186-.432-.625.044-.919-1.05-.232-.187-.767-.436-.606-.874-.219.42-1.172-1.019-.113-.519-.478-.044-.831-.126-.775-1.172.037.492-1.261-.487-.5-1.271.141.6-1.378-.79-.253-.132-.8-1.012-.081-.637-.388.242-1.172-1.295.21-.062-.912-.04-.947-.593-.428-.449-.568-.415-.6-1.513.495-.147-.864-.738-.269-.651-.354-.1-.922-.1-.933-.778-.226-.447-.571-1.108.132.416-1.482-.584-.423-.937-.039-.5-.5-.174-.881-1.057.076-.678-.327-.531-.486-.75-.227-.039-1.074-.524-.507-1.012.113.169-1.427-.976.1-.478-.585-.746-.187-.7-.233-.614-.37-.831.1-.177-1.451-.872.232-.673-.509-.974.534-.8.044-.645-.972-.824.374-.65-.44-.1-.892-1.312-.163.945-.823-.424-.773.37-.643-.539-.953,1.349-.176.362-.524.549-.322-.166-1.318.727-.292.737-.185.7-.461.781-.1.762,1.137.685-.751.758.159.79.251.6-.835.692-.248.783.137.576-.714.971.769.444-1.119.982.683.572-.647.667-.331.777-.027.664-.346.565-.562.618-.412,1.115.727.366-.9.4-.781.624-.322.728-.142.67-.258.678-.258.6-.381.294-.819,1.28.545.107-1.05.67-.3.213-.85.482-.516,1.4.447-.267-1.3.659-.348,1.1.031.029-.935-.2-1.071,1.517.257-.113-.969.033-.825.956-.252.689-.455-.387-1.006.859-.4-.064-.808.271-.667.82-.531-1.03-.981.923-.56.3-.71-.693-.767-.438-.668.683-.749-.785-.558.894-.973-1.493-.185.163-.808.261-.993-1.078-.085-.447-.506.018-1.035-.75-.226-.239-.915-1.348.816-.325-.815-.456-.673-.588-.455-.848.25-.556-.644-.683-.221-.906,1.005-.644-.3-.616-.6-.651-.469-.732.228-.667-.409-.727.277-.687-.37-.709.079-.7-.087-.718-.063-.734.267-.692.8-.8-1.077-.636,1.091-.719.038-.746-.136-.762-.149-.694.274-.849-.547-.523,1.059-.64.441-.917-.721-.553.774-.919-.676-.542.786-.589.415-.9-.394-.639.365-.836.107-.22.924.072.877-.374.487-.083.713.134.76-.877.54.55.851-1.4.429.26.788-.071.717.15.764.3.8-1.115.491.728.881-.743.573-.27.673.688.87-1.357.453-.253.68.079.747.487.828.256.777-.652.6-.339.664.689.86-.68.6.461.815-.559.628-.528.636-.7.608.22.771,1,.9-1.14.538-.013.73.371.79-.8.605-.2.7-.338.681,1,.875-.015.724-.018.722-.986.6-.018.725.386.772-.293.689.46.771-1.154.608.973.818-.6.668-.465.685.221.735-.038.721.2.727.551.726-1.1.679,1.112.73-1.211.683.783.722-.414.7-.382.7.438.718.194.711.2.709.175.709-.341.7-.673.688-.175.7.045.7.222.7.614.706-.416.7.827.709-.664.7.638.7-1.453.7.524.709.067.743-.551.79.765.68-.076.758-.12.775.238.716,1.118.525-.619.888.518.638-.583.907.913.533.676.588-1.152.843.75.605.106.793-1.194.286-.235.556-.248.643-.668.228.026,1.317-1.153-.659-.437.724-.726-.036-.633.091-.78.557-.52-.682-.147-.769-1.158.006-.635-.61.711-.916Z" transform="translate(60.598 312.713)" fill="#f2ebd8"/><path d="M638.7,656.614l.255-.666-.463-.611.388-.646-.407-.729.12-.724-.067-.733-.067-.738.518-.678.313-.687.159-.7.168-.7-.373-.8.151-.711.255-.685.236-.687.2-.7.2-.7.447-.615-.313-.868.532-.581.409-.618.318-.647.045-.765.542-.548.468-.573.147-.727.176-.721-.063-.865.592-.5.582-.5.2-.731.643-.444.356-.632.666-.406.174-.771.547-.486.629-.409.3-.692.56-.46.234-.779.793-.218.606-.393.154-.921.7-.284.691-.278.408-.667.746-.177.592-.4.4-.78.611-.428.855.115.815.119.432-.938.848.311.6-.555.721-.112.716-.146.739.124.72.189.734-.229.739-.067.708.269.8-.256.759.117.584.57.83.016.653.388.391.734.337.75.864.093.27.8.808.074.561.551.733-.043.719-.049.621-.38.719-.158.358-.9.918.219.6-.558.793.123.737.118.741-.579.727.321.862-.188.348,1.03.763.143.668.39.736.462.035.894.3.735.332.812-.572.729-.479.592-.538.445-.4.729-.869,0-.576.5-.227.776-.238.7-.826.343.089.86-.077.737-.769.454.343.878-.83.481-.066.727.34.817-.8.559.219.769-.005.725-.66.62-.155.7.527.808-.191.7-.016.723-.761.612.266.76.087.737-.621.645-.177.705.749.819-.548.658-.459.674.515.78-.161.706-.314.695.232.735-.421.708.109.731.2.727-.132.737.292.713.3.693-.579.816.527.647-.2.839.7.515.137.9.766.428.846-.247.72-.231.68-.087.7.067.724.037.589-.46.652-.221.729-.088.77.02.6-.115.429.085.175.393.882.542-.5.713-.176.7-.072.789-1.012.188.012.9-.5.527-.752.24-.684.26-.126,1.043-1.009-.275-.324.9-.674.28-.662.319-.826-.291-.671.215-.721-.185-.682.08-.7.049-.688-.108-.8.183-.52-.629-.678-.23-.489-.526-.84-.135-.054-.953-.762-.277-.687-.335-.426-.542-.585-.449-.766,0-.5.64-.877-.23-.415.756-.664.237-.551.478-.8-.066-.687.172-.449.753-.751.008-.731.032-.488.774-.756-.05-.761-.133-.625.384-.732-.1-.593.767-.785-.55-.649.655-.726-.111-.716-.072-.721.276-.68-.851-.758.709-.638-.791-.816.746-.592-.8-.653-.286-.843.422-.594-.5-.694-.172-.75-.08-.346-.868-.652-.253-.649-.289-.78-.175-.475-.552-.671-.376.128-1.011-.308-.619-.561-.471-.541-.515-.479-.574.335-.889-.443-.59.033-.737-.775-.541.466-.816-.878-.582.518-.786.178-.73Zm26.077,3.715.759-.343.086-.863.686-.514-.172-.847.235-.711-.02-.764-.077-.76.474-.7.268-.7.106-.707.108-.707-.449-.757.07-.714.166-.7.137-.7.088-.712.076-.714.325-.685-.481-.783.394-.675.255-.69.149-.7-.156-.747.371-.673.284-.682-.079-.733-.057-.73-.346-.773.394-.643.387-.634-.063-.73.432-.622.056-.71.354-.714-.448-.7-.384-.667-.741-.5-.749.364-.716.034-.639.483-.731-.332-.655-.138-.784.458-.6-.462-.492-.516-.733-.19-.318-.683-.485-.511-.834-.031-.6-.01-.723-.385-.845-.191-.4.967-.9-.157-.441.709-.628.37-.547.445-.667.3-.673.332-.335.679-.4.6-.609.423-.124.8L652,638.6l-.659.407-.071.789-.351.607-.677.433-.682.452.1.853-.7.464.081.821-.612.522-.183.7-.3.657-.077.734-.423.62.385.866-.74.534.15.781-.453.63-.349.663.435.815-.34.666.311.761-.869.623.253.747.153.723.282.716-.365.707.127.7.345.682-.343.764-.053.751.07.743.613.564-.151.857.344.675.691.433.621.41.173.885.874.047.721.128.452.768.847-.407.592.747.736-.094.689-.544.748.612.671-.427.68-.216.8.417.714-.107.54-.794.7-.1.648-.293.89.4.543-.6.583-.441.869.191.689-.247.213-1.082.841.025.812-.118Z" transform="translate(60.598 312.713)" fill="#f2ebd8"/><path d="M693.547,664.482l.117-.709-.117-.7.426-.712-.63-.686.808-.707-.3-.7-.074-.695.4-.69-.273-.689-.526-.717.519-.713-.3-.719.189-.712-.225-.719.529-.7-.095-.715-.393-.727.485-.7-.389-.737.357-.7.148-.709.093-.711-.059-.718-.185-.728.357-.686-.4-.745.167-.7.639-.656-.363-.749.457-.665-.66-.79.012-.718.559-.646-.437-.77.676-.626-.534-.76.839-.632,0-.71.251-.686-.087-.718.106-.7-.281-.733.127-.694.338-.681.226-.7-.157-.729-.314-.742-.129-.724.312-.69.026-.708.11-.7.051-.7.307-.69.207-.7.017-.681-.163-.717.388-.611-.488-.93.666-.482.766-.265.268-.668.64-.233.64-.139.544-.727.731-.229.741-.086.732.148.632.446.594.41.347.84.791.082.424.592.419.511.6.456.151.745.115.814-.372.639.041.624-.327.866.906-.05.677.165.74.228.684-.4.761.058.52-.64.743-.107.76-.063.739-.09.6-.433.642-.354.609-.482.9.461.611-.5.7-.171.739.006.592-.8.807.442.721-.079.707-.226.717-.395.745-.049.74.165.705.273.621.521.737-.026.724.106.671.273.5.58.851.022.177.926.488.482.389.565.564.442.132.714.856.382.038.752-.2.773.388.636.562.666-.6.746.562.728-.065.733-.072.721-.4.684-.188.705.361.766-.628.657.473.781.1.736-.918.624.13.742-.384.685.82.82-.332.691-.537.671.407.779-.074.725.113.747-.125.72-.741.652-.209.71.247.757.253.752-.023.727-.792.652-.063.722.253.752-.348.706.1.723.565.735-.127.711.295.717-.081.71-.172.713-.639.748.6.673-.129.745.647.52.241.551.442.871.779-.826.886.359.745.157.963-.457.465.867-.777.668.067.788-.025.822-.4.643-.525.551-.725.375-.145.841-.874.193-.376.658-.694.315-.3.8-.588.475-.973-.213-.564.468-.671.258-.648.463h-.758l-.749-.185-.685-.308-.284-.77-1.129-.008.363-1.065-.908-.418-.283-.717.578-.884-.835-.621-.069-.757.055-.761.288-.762.245-.748-.677-.716.289-.708.337-.7-.343-.728.212-.705-.122-.723-.324-.736.861-.657-.21-.726-.08-.719-.037-.718v-.717l.483-.679.06-.709-.3-.741-.337-.747.864-.647-.757-.786.705-.661.188-.706-.334-.753-.083-.731.693-.66-.644-.783.335-.692-.283-.748.334-.69.089-.712-.294-.746.472-.675.6-.662-.493-.767-.124-.731.094-.707.218-.693-.169-.753.479-.75-.062-.769-.022-.814-.345-.756-1.106-.027-.083-1.193-1.027.581-.6-.785-.777.6-.715-.149-.754-.153-.823-.293-.619.606-.784-.005-.438.928-.843-.122-.8.05-.726.238-.516.607-.764.2-.55.527-.291.846-.651.362-.616.418-.375.669-1,.075-.295.772-.5.556-.541.493-.77.032-.494.852-.733.013-.7.257-.376.654-.215.669-.279.61,0,.69-.31.655-.484.684.013.725-.136.713.567.773-.166.712-.518.684-.089.722.405.766-.134.721-.027.731-.348.7.1.736-.489.7.179.741.233.74L700.4,655l.387.738.193.726-.827.718-.119.735.583.718.162.715-.172.737-.037.74.024.743.462.638.435.583.358.541-.259.931.34.629-.143.7-.009.785-.606.513-.255.719-.22.831-.593.522-1.1-.268-.327.928-.78.087-.756-.012-.717.632-.808-.338-.828-.311-.4-.753-.278-.733.226-.828-.539-.657.045-.755-.093-.739Z" transform="translate(60.598 312.713)" fill="#f2ebd8"/><path d="M742.762,667.145l.584-.825-.181-.7.172-.737-.526-.681.457-.747.515-.74-.457-.7-.559-.7-.478-.707.3-.729.688-.735.23-.722-1.073-.7-.016-.72.8-.731-.18-.716.665-.725-.417-.714-.255-.716-.469-.715,1.013-.725-.286-.716-.383-.711.383-.716-.6-.713.033-.718.77-.722-.178-.719.327-.722-1.065-.719-.452-.715,1.109-.721-1.175-.72.388-.717.732-.723-.735-.72-.23-.736,1.441-.705-.268-.709-.512-.713.147-.709.2-.707-.7-.725,1.177-.685-.93-.736,1-.683-.4-.724.334-.7-1.331-.765.122-.711.649-.689-.017-.716.817-.677-.2-.725-.535-.745.559-.681-.041-.714-.154-.723-.011-.715.366-.691-.357-.74.344-.693.383-.69-.983-.789-.282-.742.043-.718-.058-.726,1.629-.586-.417-.752-.256-.74-.062-.727.64-.665-.069-.729.263-.7.266-.7-.941-.814-.027-.73.886-.638.124-.717-1.154-.853,1.619-.533-.722-.776-.293-.735.533-.641-.08-.713.307-.666-.09-.714.61-.635.082-.7-.589-.78.232-.679.5-.643.334-.661-.626-.792-.089-.717.827-.619.068-.706-1.272-.688.731-.7-.3-.68.2-.7.07-.756-.262-.8,1.133-.5.259-.614-.543-1.1.54-.59.924-.086.226-1.08.921.211.7-.65.872-.256.734.712.635.733.7.044.988-.924.34,1.349.663.215,1.12-.64.693.367.483.659-.18,1.186.628.342.179.668.952.32-.358.854-.069.647.5.634-.394.538.167,1.006-.562.436-1.186-.023.049.973-.675.442.566,1.2-.347.619-.833.371.112.861-.856.4-1.065.34,0,.81.775,1.1-.437.609-.94.449-.636.572.205.843-.208.707-.636.59-.133.736,1.013.973-.09.713-1.138.49-.007.736-.239.687-.582.624.718.866-.466.649-.481.65.847.865-.459.655-.764.618,1.13.881.139.738-.532.654-1.129.595.752.8-.936.625.486.767.014.72.77.78-.481.678-.637.674.475.751-.554.686.118.728-.259.709,1.072.769-.058.716-.2.713-.241.707.43.729-.84.7.266.728-.4.717.145.728.505.727-1.1.719.655.728-.861.736,1.171.683-.52.723.179.7.1.923,1.177-.765.422.138,1.039.75.647-.456.45-.743.281-.928.939.133.633-.355.422-.683.617-.377.615-.389.669-.3.483-.583,1.235.553.225-.953.193-.986,1.048.261.225-.938.94.085.8-.12.494-.558.743-.21.054-1.183.436-.556,1.36.635-.1-1.225.976.06.534-.473-.334-1.206,1.328.152-.383-1.06.563-.461.106-.683.588-.59.383-.647.7-.425-.261-1.133.417-.839,1.142.449.668-.307.667.493.658.224.528.533,1.39-.954.628.558.215.939.356.681.314.675.39.61.435.6.038.759.444.62-.218.711,1.143.357-.769.683.086.9-1.049.13-.341.657-1.043-.293-.024,1.288-.532.538-.894-.163-.443.663-.517.529-1.035-.407-.354.839-.938-.218-.251,1.016-1.153-.612-.217,1.071-.843-.057-.574.423-.8.041-.5.567-.81.007-.519.53-.348.823-.408.708-1.152-.6.084,1.566-.564.425-1.134-.565-.795.031-.649.291-.436.65-.363.79-.619.346-1.081-.094.338,1.413-1.2.392.218.905,1.432-.187-.645,1.462,1.343-.279-.338,1.293.389.608.694.3.4.588,1.291-.311.707.278.319.667.244.751.314.686.725.256-.138,1.153,1.475-.492.289.725.725.284.472.544.561.456-.421,1.458.495.528,1.158-.148-.021,1.056.506.508,1.124-.125.821.182-.538,1.581.816.185.415.615,1.3-.312-.183,1.237.7.3.992-.024.4.61-.091,1.173h.939l.789.137.372.607.327.8.392.586-.355.714,1.149.947-1.264.459.294,1.09-.737.527-.743.644-.975-.984-.686.493-.425-.72-1.288.771-.423-.767-.745-.28-.192-.76-.292-.686-.231-.757-1.068.055.436-1.43-.9-.108-.8-.2-.882-.1-.485-.5.145-1.174-1.023.059-.211-.808-.061-.975-.7-.285-1.043.093.054-1.1-.631-.361-.955-.005-.464-.54-.3-.724-.267-.768-.7-.284-1.016.058-.293-.746-.826-.167-.233-.78-.06-1.009-.712-.259-.511-.495-.843-.075-.87-.025-.278-.809-.246-.871-1.107.321.187-1.5-1.165.448-.609-.344-.7-.164-.551-.157-.57-.91-.35.9-1.109-.083.606,1.055-.838.481.118.723.011.744-.751.744-.084.745.523.743.434.738-.781.754.821.728-.136.748.683.7-1.247.843.349.733.819.606-.678.963,1.157.362-.569,1.14.764.328.175.716-.066.747-.113.773-.52.568-.735.343-.892.054-.356.565-.487.44-.693-.147-.523.846-.875.4-.7-.6-.308-.836-.04-.759-.256-.581Z" transform="translate(60.598 312.713)" fill="#f2ebd8"/><path d="M789.563,666.486l.757-.3-.589-.759.607-.7-.8-.771.96-.681-.878-.763.146-.718.8-.7-.916-.75.179-.715.791-.7.153-.719-1.234-.739,0-.718,1.091-.707-.4-.724-.077-.721.492-.718-.675-.726.734-.718-.932-.73.254-.724-.016-.721-.011-.725-.137-.73.633-.719-.218-.738.585-.69-.073-.7-.9-.732.94-.677-.589-.729.309-.7-.457-.724.31-.693-.013-.71-.377-.732.774-.666-.572-.752.733-.664-.9-.784,1.013-.631.1-.7.229-.689-.692-.793.985-.6-.183-.736-.422-.774.157-.693.531-.627-.146-.742.625-.578-.385-.819.905-.44.144-.656-.732-1.144,1.121-.155-.092-1.015.552-.572.672-.454.789-.156.756-.259.754.882.781-.626.508,1.1.746-.132.518.511.8-.023.629.347.7.319.845.274.269.769.273.725.354.694-.3.821-.227.723-.164.694.221.911-.91.345.359,1.091-1.279.019.589,1.2-1.052.188.174.909-1.021.253-.386.609-.473.579.039.8-.342.636.419.888-.772.5-.035.723-.557.6.4.814-.649.6.721.844-.572.623-.309.673.032.719.214.732-.851.626.759.785-.157.692-.462.681-.1.71-.216.739.691.787.316.758-.867.711.689.768-.425.735-.524.744.382.746-.338.754,1.022.717.176.734-1.044.8.067.736-.007.746-.094.755.359.691.2.7.1.7,1.1.475-.829.793-.216.652.97.938-.591.62-.191.764-.795.361-.006,1.023-1.094-.12-.215,1.068-.991-.343-.677.213-.706.346-.319-.206-.871.061-.78-.4-.009-1.03-.7-.482-.009-.808Zm3.295-56.956.8-.637-.472-.8.76-.455-.408-1.013,1.154-.051-.208-1.122.63-.412,1.015.2.13-1.159.736-.177.926.472.676-.049.453-1.348.751-.1.758,1.044.737-.354.747.067.515.693.958-.258.175,1.01,1.173-.178.319.755.445.626.368.675.412.678-.422.876.29.7-.608.629-.031.654.672.93-1.106.32.232.891-.611.453-.048.862-.7.348-.507.508-.378.762-.979-.308-.468.82-.841-.514-.668,1-.66-.989-.648-.149-.589-.332-.916.467-.219-1.108-.7-.1-.863.023-.509-.5-.19-.782-.648-.351.034-.828-.819-.332.449-.869-.233-.573Z" transform="translate(60.598 312.713)" fill="#f2ebd8"/><path d="M814.977,664.487l.637-.729.077-.7-.7-.681.511-.709-.058-.694.133-.7-.732-.693.565-.691.28-.689-.13-.715-.076-.715-.117-.716.272-.709-.032-.714-.709-.732.049-.714.617-.693.21-.705-.073-.722.155-.711-.269-.732.2-.705.236-.7-.515-.75.5-.675-.206-.729-.386-.75.483-.672-.021-.718-.145-.73.01-.718.889-.614.125-.7.074-.707.1-.7.045-.709-.166-.725.281-.684-.183-.727-.374-.744.586-.65.16-.693-.309-.734.03-.707.156-.7.49-.675-.069-.723-.646-.766.337-.687.242-.694-.433-.733.078-.7.2-.691.475-.685-.457-.738-.042-.751.587-.611.433-.578.324-.582-.157-1.017.885-.142.346-.844.8-.055.78.241.679.005.636.269.759-.476.5.672.862-.26.455.673.413.65,1.092-.2-.067,1.027.912.363-.018.836-.732.566.181.827-.005.692.373.523.349.623.754-.01.719-.255.779.272.577-.718,1.009.6.375-.931.655-.308.9.295.386-1.006.712-.184.688-.255.776.046.708-.171.722-.105.794.276.569-.9.832.657.622-.923.762.327.73,0,.728-.224.734-.034.653.566.8-.379.694.245.629.4.45.717.98-.312.479.607.771.216.22.829.656.389-.043.9.368.576.232.644.718.493.2.7.291.693-.64.785.835.683-.839.7.174.725-.292.694.527.777-.058.719-.737.646.563.789.14.743-.52.667.331.764-.236.7-.171.71-.125.712.027.733.03.734-.316.7.254.763-.069.726-.377.692-.238.708.23.756-.631.663-.194.707.778.808-.608.669.4.761-.261.7-.1.705-.512.7.119.722.036.719.446.722-.71.715.565.713.277.7-.012.7.035.688.219.621.389.41.407.51.838.265.788-.1.714-.185.666.032-.185.571.065.639.455.937-1.054.3-.279.651-.145.769-.465.562-.574.464-.236.776-.6.446-.782.209-.6.391-.186,1.029-1-.261-.495.632-.587.6-.876-.538-.679.274-.74,0-.524-.578-1.045.161.113-1.074-.694-.425.145-.836-1.046-.463.1-.8.12-.778-.388-.713-.1-.751.728-.777-.019-.74,0-.7-.839-.731.013-.718.46-.7.263-.7-.643-.751.839-.668-.629-.75.657-.669.032-.711-.531-.753-.091-.724.742-.661.186-.7-.317-.742.308-.693-.658-.775.161-.708.676-.663.156-.708.038-.72-.03-.726.3-.7.057-.718-.619-.78.078-.715.569-.668-.349-.752.36-.684-.12-.731.509-.672-.022-.721.1-.71-.184-.734.267-.691-.456-.785.029-.739.34-.8-.6-.631-.382-.589,0-.995-.825-.222-.661-.489-.852.481-.718-.832-.767.159-.711.382-.755.025-.643.47-.736.112-.721.186-.7.254-.791.08-.389.857-.5.59-.746.181-.575.454-.488.56-.735.252-.7.32-.708.346-.242.8-.878.252.021,1.045-.587.564-1.03-.346-.649.258-.534.7-.875-.011-.592.546-.18.8.014.763-.09.679-.014.687-.029.723-.832.654.157.739-.27.7.7.786-.458.689-.325.7.491.772-.458.7.489.771-.844.666.394.758.051.731.115.734-.452.7.186.735.23.732-.7.71.748.733-.2.723.074.724.23.707-.346.746.023.73-.207.785.427.66.793.443-.383,1.085.53.414.336.706.1.816-.192.786-.891.384-.56.477-.194.8-.581.468-.6.433-.82-.006-.626.3-.651.328-.716.512-.8-.243-.859-.262-.338-.8-.327-.706.118-.807.2-.767-.931-.638.657-.793Z" transform="translate(60.598 312.713)" fill="#f2ebd8"/><path d="M864.264,703.017l-.117-1.348-.878.128-.722-.2-.085-1.062-.493-.388-1.5.231.794-1.19-1.046-.477,1-.771-.206-.545,0-.577-.657-.988.811-.487.209-1.005,1.366.862.339-1.182.8.127.813-.213.79.422-.258.972.138.815.894.356-.245,1.255.683.518,1.108-.292.517.667.883-.252.818-.307.6.6.751-.133.728-.079.682,1.148.765-.505.7-.566.714.254.772.878.693-.412.793.51.711-.228.489-1.345.856.627.561-.688.841.349.664-.288.432-.847.911.323.343-.9.529-.46.607-.317.689-.215.971.086.211-.849.381-.611,1.167.1-.2-1.1,1.269.045.134-.8-.131-.918.529-.52.008-.781.537-.535-.249-.847.564-.543.669-.542.6-.592-.665-.9-.525-.819.341-.642.411-.647-.115-.72,1.047-.608-.708-.774.084-.71.348-.694.45-.694-.679-.739.395-.7-.568-.735-.152-.718.32-.7.464-.7-.516-.719-.113-.706.731-.7-.092-.7-.315-.686-.371-.676.465-.715-.091-.69.73-.77-.611-.64-.069-.7-.608-.578.576-.975-.819-.792-.871.852-.746-.416-.729.047-.459.737-.5.57-.887-.277-.941-.31-.612.42-.275,1.3-.712.259-.832-.114-.9-.446-.637.416-.626.547-.816-.363-.608.848-.695.52-.826-.8-.725.117-.756-.651-.726.916-.719-.387-.766.511-.747-.037-.736-.133-.509-1.073-1.05,1.061-.552-.73-.639-.388-.46-.706-.537-.472-.49-.509-1,.148-.147-.911-.83-.174-.837-.256-.09-.857-.163-.748-.478-.55-1.054-.319.758-1.1-.516-.575-.681-.568.231-.808-.741-.617.5-.815-.6-.682-.263-.742.274-.758.194-.723-.483-.747.769-.683.665-.66-.937-.815.947-.6.137-.7-.011-.72-.122-.749.391-.647-.134-.764-.192-.79.049-.739.287-.672.727-.529-.555-.946.924-.442-.477-.951,1.05-.365-.561-1.016,1.688-.05-.643-1.079,1.268-.185.248-.665-.442-1.037,1.155-.181-.009-.821-.021-.849.295-.669.344-.64.187-.753.826-.3.3-.677.013-.909.694-.382.752-.318-.032-.993.583-.464,1.145.093-.219-1.244,1.111.112.544-.466-.019-1.136.608-.422.826-.128.854-.051.536-.481.635-.334.866.078.536-.476.366-.859.81.048.545-.552.621-.4.863.354.454-1.076.9.709.709,0,.612-.84.743.222.717-.2.78-.546.754.19.728.246.436.9.753.069.24.93.5.42.78.135.629.449.761.192.767-.116.521.27.7.6.777-.082.5-.457.134-.96.373-.705,1.285.705-.041-1.492.872.148.826.343.634.026.607-.339.842-.852.291,1.428,1.2-.874.066,1.207,1.177-.3v1.031l.61.4.266.656-.112.789,1.4.206-.952.915,1.072.618-1.45.612.974.975-1.112.326-.245.646.325,1.269-.612.573-1.262-.494-.281.9-.13.858-.9.1.078.906-1.382-.016-.026.823.234.89-.971.386-.2.706.688.967-1.038.447.327.828-.7.577-.2.7.688.87-.522.637-.321.682.2.764-.311.687.416.78-1.378.556.058.74.869.825-1.125.613.828.813-.1.72-.267.7.467.767-.384.7-.816.666-.31.709.448.763.41.761.212.749-1.165.649.06.741.43.771-.632.7-.188.722,1.409.805-1.072.679-.35.719,1.26.785-1.168.689,1.2.775-1.023.7.916.762-.675.72.425.747-.54.726.579.748-.717.726.567.743-.056.74.036.737-.609.73.723.738-.433.721.389.74-.634.743-.478.744.138.746.745.746.179.732.332.74,0,.738-.883.693.053.73-.48.69.724.792-.887.635.809.83-.962.594.015.729-.39.654,1.089.969-1.6.367.215.788-.608.558,1.157,1.131-.64.552-.4.624.284.926-.766.452-.482.567.151.938-1.545-.127-.325.617-.529.465-.042.876,0,.988-.58.464-.278.8-.585.477-.893.049-.653.339-.438.683-.675.31-.726.2-.731.158-.686.239-.646.336-.876-.33-.629.359-.729.017-.459,1.1-.873-.583-.623.533-.72.074-.611.813-.892-1.176-.591,1.113-.828-1.1-.689.316-.7.292-.718-.036-.714.281-.728-.42-.73-.171-.7-.138-.734.634-.731.16-.689-.329-.814.628-.673-.435-.8.266-.393-1.454-.864.466-.809.134-.351-1.106-.808.106Zm25.249-44.37,1.342.086-.134-.937.076-.768,1-.485.148-.77-1.168-1,1.325-.565-.84-.8,1.121-.6-.153-.73v-.719l-.815-.81.523-.656-.5-.779,1.521-.52-.915-.833.315-.669-.228-.749.071-.708.8-.6.23-.676-.473-.8,1.114-.525.08-.748-.743-.818.45-.677-.479-.76-.466-.745.5-.684-.227-.705-.211-.442.545-1.1-.894.119-.68.455-.62-.286-.725-.886-.717.366-.606-.667-.586-.064-1.321.555.164-1.121-.779-.5.242-.934-.822-.468-.674.676-.809-.535-.525.819-.6.365-.649.227-.719.128-.963-.2-.328.823-.469.564-1.152-.257.022,1.129-1.252-.244-.279.77-.054.936-.632.411-.185.772-.655.412.033.9-.69.4-.791.368-.737.429.4,1.053.281.946-.507.544-.574.528-.086.738-1.174.322.477.946-.264.67-.515.6-.6.594.508.883-.522.628.437.829.046.736-.406.662-.539.662.447.778.058.726-.776.681.058.738.289.734.37.691-.424.754.172.7-.574.934.763.542.286.693.78.376-.219,1.119.624.506,1.176-.311.332.823.623.455.843-.3.724-.21.668.656.737.657.729-.18.628-1.16.691-.072.749.27.834.549.66-.391.591-.563.841.273.422-.941.474-.661,1,.5.6-.4.971.222.123-1.155.8-.1.224-.875.506-.48.528-.455Z" transform="translate(60.598 312.713)" fill="#f2ebd8"/></g></svg>