<svg xmlns="http://www.w3.org/2000/svg" width="24" height="24" viewBox="0 0 24 24">
  <path id="シェイプ_691" data-name="シェイプ 691" d="M658.473,2023a1.443,1.443,0,0,0,1.527-1.443v-18.523a1.458,1.458,0,0,0-.783-1.334,1.154,1.154,0,0,0-1.38.313l-2.438,2.779a1.161,1.161,0,0,1-1.792,0l-4.711-5.369a1.16,1.16,0,0,0-1.792,0l-4.712,5.369a1.161,1.161,0,0,1-1.792,0l-2.438-2.78a1.156,1.156,0,0,0-1.381-.312,1.458,1.458,0,0,0-.782,1.334v18.523a1.445,1.445,0,0,0,1.529,1.443Z" transform="translate(-636 -1999)" fill="#8b533b"/>
</svg>
