<svg xmlns="http://www.w3.org/2000/svg" width="42.034" height="29.942" viewBox="0 0 42.034 29.942"><defs><style>.a{fill:#d9c000;}.b{fill:#fff;}</style></defs><g transform="translate(-359 -3802.77)"><g transform="translate(359 3729.125)"><path class="a" d="M39.359,103.586a2.535,2.535,0,0,0,2.675-2.542V80.749a2.57,2.57,0,0,0-1.37-2.349,2.015,2.015,0,0,0-2.418.55l-4.27,4.9a2.025,2.025,0,0,1-3.138,0l-8.252-9.457a2.025,2.025,0,0,0-3.138,0L11.2,83.846a2.025,2.025,0,0,1-3.138,0l-4.27-4.9A2.015,2.015,0,0,0,1.37,78.4,2.57,2.57,0,0,0,0,80.749v20.295a2.538,2.538,0,0,0,2.678,2.542H39.359Z"/></g><path class="b" d="M1.988-6.118a.356.356,0,0,1-.413.042.38.38,0,0,1-.217-.364V-7.462A1.469,1.469,0,0,1,2-8.722L3.416-9.758a2.375,2.375,0,0,1,1.442-.462H5.74a.766.766,0,0,1,.56.238.766.766,0,0,1,.238.56V-.8a.766.766,0,0,1-.238.56A.766.766,0,0,1,5.74,0H4.858A.766.766,0,0,1,4.3-.238.766.766,0,0,1,4.06-.8V-7.6H4.032Z" transform="translate(376 3827)"/></g></svg>