<svg xmlns="http://www.w3.org/2000/svg" width="619.151" height="81.877" viewBox="0 0 619.151 81.877"><g transform="translate(-490.425 -1843)"><path d="M423.1,1224.715l-.119-.734-.636-.735-.215-.736.734-.729-.693-.745,1.194-.707-.057-.73,0-.73-.066-.734-.1-.738.461-.7-.027-.761-.822-.749.66-.709-.238-.728.068-.723.266-.72-.156-.727-.067-.723-.766-.733.413-.718-.66-.733.129-.725.337-.717,1.093-.712-.379-.729-.749-.737-.171-.731.765-.721-.808-.74.431-.725-.171-.732.554-.723-.8-.739-.105-.729,1.03-.715-.96-.742.972-.715-.064-.729-.1-.727.382-.717-.184-.715.431-.7-.367-.728-.447-.739.026-.718.851-.668-.578-.753-.174-.73.118-.7-.137-.725.975-.642.137-.7-.194-.731-.371-.748-.018-.721-.458-.757.754-.652.261-.695-.205-.74-.277-.748-.037-.728.95-.63-.4-.764.31-.693.646-.658-.6-.788.618-.658-1.18-.854.607-.658-.19-.747,1.04-.6-.783-.815.048-.717,1.06-.6.149-.7-.768-.821-.371-.774,1.53-.508-.732-.824.566-.7-.316-.764-.262-.709-.422-.434-.67-.129-.689-.084-.662-.845-.566-.546-.657,0-.751.009-.848-.083-.012-.978-.6-.4-.854-.33-.091-.765.306-.9-.952-.369-.632-.625.6-.888.657-.581.25-.531.069-.854.779-.149.492-.626.517-.818.938.491.79.187.654-.586.733.1.571-.817.8.441.649-.352.863.691.434-1.387.7-.129.732.032.882.74.441-1.371.8.362.693-.154.76.215.574-.832.8.558.625-.672.693-.2.747.144.639-.585.788.415.766.317.74.179.691-.16.642-.61.779.619.623-.933.765.581.736.344.664-.766.694-.441.751.788.7-.505.7-.273.707-.513.741,1.208.717.25.71-1.279.723.552.71-.2.694.69.72-.58.706.027.719-.191.713-.007.672.477.754-.421.692.231.6.793.713-.025.624.464.879-.8.732.018.76-.042.511.812.677.207.5.666.75.016.865-.178.414.759.617.329.205,1.03,1.2-.584.049,1.234,1.372-.676.385.72.176.907.815.191.645.408-.088,1.021.925.208.771.393-.895,1.346,1.633-.008-1.019,1.222,1.315.286-.136.81-.076.76-.276.769-.063.71,1.516.564-.356.763-.968.753,1.372.725-1.058.7.993.818-.513.691-.339.689-.853.548-.192.673.625.943-.9.45-.383.608.393.959.074.86-.776.425-.685.441.188.975-.413.614-.9.254.043.949-.812.288-.853.22.129,1.088-.35.683-1.191-.155-.1.94-.962.023-.488.533-.248.83-1.039-.139-.114,1.036-.371.733-.69.3-.922-.066-.1,1.193-.872-.013-.918-.132-.428.7-.35.878-.995-.344-.313.979-.655.322-.638.357-1.142-.737-.128,1.477-1.164-.839-.592.454-.3,1.175-1.145-.918-.183,1.57-.978-.56-.732.082-1,.306-.548.93.6.96.9.361-.233,1.239.635.378.779.238.076.926,1.315-.273-.243,1.218.5.506.534.472.288.7h1.066l.1.867.914.148.088.881.593.443.232.767.676.363,1.03.043-.333,1.284.884.178.142.852.855.195.024.957,1.257-.158.481.546-.124,1.1.155.848.853.217.231.784,1.42-.3-.049,1.034.12.863.846.236.4.616.873.232,0,.944.531.513.542.508.2.768.665.4.229.745.67.4.212.766.857.227-.181,1.11,1.487-.337.487.529.006.977.449.585.764.276.46.642.591.537.107.843.484.611-.471.995,1.191.611-1.212.529.011.61.622,1.025-.187.779-.51.636-.919.3-.819-.326-.629-.463-.71.293-.3-.909-.489-.267-.365-.36-1.525.272-.052-.922-.818-.375-.505-.588-.26-.733-.32-.684-.605-.489.576-1.322-1.471.219.028-.884.019-.879-1.287.091.632-1.34-.834-.239-.841-.219.5-1.269-1.521.33-.073-.826-.058-.845-.518-.476-.075-.848-.864-.21-.251-.731-.84-.21.062-1.024-1.143.082.115-1.091-.522-.495-1.086.055-.4-.611-.472-.539-.516-.5-.93-.072.3-1.338-.7-.307-.665-.34-1.026.038,0-1.046-.665-.337-.842-.144.117-1.169-.334-.681-1.118.163.042-1.108-.5-.531-1.345.411-.3-.745-.688-.3.084-1.226-.583-.442-.579-.454-.419-.668-.993.121-.329-.807-.79-.131-.978.231-.647-.273-.619-.307-.551-.464-.5-.753-.831.028-.86.165-.72-.323-.709-.553-.621-.4-.5-.434-1.127.234-.726-.711.49-.921.652-.611-.089-.724.211-.659.563-.478-.386-1.08.349-.762,1.052.1.351-.951.8-.115.87.865.653-.834.693-.518.807.984.733-.152.6-.906L442,1188l.679-.356.834.316.473-1.155,1.032.985.51-.922.842.211.752-.109.607-.536.642-.406.47-.836.958.4.482-.745.627-.329.893.217.275-1.024,1.085.515.255-.994.994.273.567-.454.072-1.18,1.045.264.859-.048.63-.378.084-1.05,1.091.174.434-.614.045-1.01.708-.3.182-.816.128-.832,1.581.422-.577-1.392.434-.543.439-.542,1.25-.031-.335-1.044.662-.443.7-.459-.54-1.027,1.007-.363-.326-.869.355-.632-.172-.757.412-.636.79-.638-.277-.756-.934-.674.721-.747-.916-.524.734-.9-1.089-.321.7-1.109-.948-.257-.823-.208.529-1.389-.475-.584-1.083.182-.5-.489-.935.215-.411-.64-.553-.427-.724-.047-.474-.681-.742.1-.654-.228-.592-.615-.777.4-.56-1.042-.7-.124-.785.72-.664-.411-.679-.418-.738.54-.686-.447-.7-.091-.719.246-.71.992-.777-1.29-.689.724-.768-.386-.608,1.108-.749-.19-.691.265-.673.323-.771-.212-.661.348-.724.061-.9-.65-.471,1.1-.861-.447-.581.636-.656.125-.862-.319-.755.12-.584.482-.375.694-.309.645.213.735-.4.645-.1.708-.746.569.65.873-.223.683-.675.586-.53.618.007.734.248.785.007.728-.316.662.067.741-1.116.5.779.89.116.753-.574.613-.933.544.4.81.115.751-.2.69.589.842-.748.587-.821.576.938.905-1.22.508-.059.722.121.753.683.851-1.333.5.42.8-.324.678.166.758.512.81-.722.618.7.833-1.459.515-.116.715.9.851-.784.622.052.734v.725l.267.754.343.757-.478.674.046.726-.6.668-.573.678,1.324.811-.087.709-.006.707-.531.683-.618.694.485.718-.344.7.871.723-.324.7-.063.7-.674.7,1.093.73-1.309.678.778.721.143.705.127.7-.687.686-.038.7.145.7-.031.7.764.707-1.362.692.168.707.3.7-.543.706.962.709.038.726.238.71-.883.827,1.105.6-1.154.931.392.692.153.732.474.657.276.7-.225.82,1.3.433-.722.945.6.559.454.659-1.2.611.241.81-.439.581-.7.305.083,1.238-.865.091-.856-.077-.663.214-.479,1.025-.84-.086-.593-.983-1,.587-.383-.779-.377-.618-.691-.533.65-.874Z" transform="translate(72.832 696.214)" fill="#fff"/><path d="M485.24,1209.839l-.038-.717.036-.716.068-.713-.411-.755.259-.7-.136-.746.7-.629.193-.691-.6-.846.386-.66-.032-.753.668-.574-.1-.775.3-.664.3-.658-.116-.809.773-.477.266-.664.091-.744.486-.565.25-.675.018-.807.37-.626.482-.555.865-.3-.091-.923.319-.663.763-.329.09-.852.455-.57.48-.55.432-.6,1.122.11.193-.84.537-.482.484-.55.526-.508.548-.488.624-.381.671-.3.659-.31.654-.312.689-.233.8.052.435-.837.646-.36.942.573.492-.88.721-.117.774.175.663-.369.782.416.673-.388.68-.584.761.822.708-.734.721.113.721.027.721.033.707.165.678.321.691.167.661.287.774-.192.618.427.749-.014.65.3.6.409.639.3.817-.032.542.5.65.312.634.352.431.62.365.664.445.543.483.5.611.386.848.224-.017.9.652.412.211.7.612.481-.206.879.524.538.215.672.293.651.569.609-.461.8.342.674.286.714-.432.732.392.812-.861.571.3.872-.222.748-.828.383-.109.863-.691.388-.894.011-.5.513-.264.979-.8.043-.507.6-1.017-.482-.484.665-.708.158-.664.258-.691.19-.6.435-.718.121-.555.595-.717.125-.68.22-.706.139-.654.32-.789-.157-.635.4-.619.488-.833-.373-.6.59-.681.267-.777-.185-.732.007-.632.562-.706.18-.814-.554-.7.2-.678.391-.73-.022-.685.442-.786.065-.686-.789-.72-.112-.731-.077-.7-.248-.829.251-.686-.307-.625-.666-.908.671-.7-.024-.778-.22-.48.579-.813.323.425.79-.9.521.245.709.491.663-.235.655-.451.766.866.6-.342.786.088.725.614.545-.057.8.728.412.4.554-.142,1.029.883.157.343.7.853.024.388.729.524.593.787.012.81-.172.509.833.83-.394.6.721.716.127.741-.085.763-.532h.706l.7.388.72-.147.706-.158.723.507.727.2.7-.388.73.1.729.034.719-.07.721-.061.619-.639.7-.131.682-.192.774.177.532-.741.789.175.822.184.514-.684.573-.467.876.229.675-.261.281-.992.987.3.56-.466.431-.634.444-.579.715-.257.765-.2.121-1.088.782-.256.779.652.609.027.555.326.355.34.147.817-.684.369-.48.506-.179.774-.829.206-.671.325-.076.935-.767.216-.323.7-.753.2-.384.654-.4.657-1.074-.28-.32.779-.518.508-.844-.015-.247.979L516.6,1224l-.458.644-.794-.005-.464.675-.745.075-.686.194-.7.132-.486.745-.646.337-.8-.188-.714.074-.729-.017-.617.5-.642.476-.706.169-.778-.482-.716-.12-.7.1-.7.212-.721.217-.724.03-.718-.1-.689-.462-.7-.187-.757.3-.7-.2-.656-.42-.7-.1-.728,0-.7-.153-.648-.314-.865.332-.588-.491-.508-.625-.646-.274-.589-.385-1.018.325-.255-.929-.842-.056-.207-.878-.862-.1-.564-.463-.095-.873-.548-.461-.621-.434-.19-.726-.283-.651-.778-.411-.273-.676-.032-.763-.373-.632-.194-.695-.4-.646.12-.768-.412-.661.165-.756.135-.737.04-.718-.136-.705-.619-.7Zm32.62-13.821-.128-.738-.154-.73-.225-.715-.741-.436-.232-.692-.626-.392-.116-.934-.556-.525-1.015.251-.52-.537-.733-.087-.523-.707-.783.106-.69-.237-.71-.191-.758.305-.7-.594-.741-.008-.719.241-.744-.124-.706.2-.612.519-.68.191-.712.127-.9-.232-.39.854-.559.457-.829.035-.325.789-.548.447-.534.464-.451.55-1.125-.095-.129.867-.448.565-.326.646-.316.64-.276.651-.321.616-.333.62-.222.661-.092.686.1.641.594.608.715-.631.736-.148.592.9.916-.317.555.46.48.655.781.071.577.723.818-.167.761-.477.773.833.669-.807.733,0,.713-.116.709-.14.729-.04.756.083.723-.1.749-.02.619-.535.768.044.627-.441.7-.171.736-.1.68-.271.491-.664.712-.181.567-.441.523-.475.676-.319.672-.437.414-.7Z" transform="translate(72.832 696.214)" fill="#fff"/><path d="M537.008,1211.215l.045-.632-.467-.637.234-.712-.442-.733.413-.695-.306-.746.317-.69-.2-.752.071-.721.171-.7.347-.666.046-.726.542-.605.526-.591-.356-.846.781-.5-.081-.776.517-.563-.1-.8.453-.58.259-.662.192-.7-.1-.855.554-.52.146-.747.953-.261-.011-.855.422-.583.7-.382.608-.428.125-.806.691-.35.376-.612.108-.878.78-.24.607-.394.491-.516.581-.411.394-.646.806-.109.616-.345.3-.832.456-.637.939.2.406-.763.913.251.682-.186.368-.992.917.442.585-.481.758.095.606-.491.626-.52.782.339.729.152.678-.293.717.216.7-.468.721.027.739-.227.687.418.76-.266.738.005.6.7.792-.229.635.414.721.1.657.291.743.042.334.975.959-.395.664.262.219,1.047.61.317,1.022-.279.5.528.083,1.015.792.141.723.28.583.456-.143.979.32.588.915.361-.078.918-.343.828.3.728.161.823-.64.549-.579.479-.271.694-.771.218-.532.432-.5.511-.691.172-.579.463-.657.374-.737-.044-.748-.224-.8-.1-.839-.415.108-.952-.432-.685.168-.944-.544-.615-.421-.662-.906-.145-.184-.945-.877.047-.526-.588-.751-.066-.608-.544-.76.022-.744.035-.747.324-.693-.3-.75-.407-.7.383-.718.123-.787-.092-.573.6-.544.552-.755.074-.914-.124-.472.641-.5.556-.481.557-.77.225-.1.944-.606.407-.766.287-.39.622-.11.821-.81.312-.145.772-.917.3.355,1.037-1,.3.082.854-.413.612-.3.663.137.825-.592.559-.558.594.552.912-1,.5.132.784-.269.7-.207.714.091.755.147.748.068.733-.61.709.852.735,0,.713-.065.722-.59.8.81.625-.488.833.475.646.2.7.282.67-.1.864.567.546.815.306-.062,1.037.722.338.745.222.778.061.586.4.577.516.75-.008.646.453.786-.356.669.554.715.347.763-.752.723.588.719-.143.72.014.7-.464.715.066.706-.09.74.234.731.067.662-.416.692-.167.719-.032.74.03.553-.707.9.572.708-.158.587-.519.475-.774.971.527.452-.784.736-.089.612-.378.7-.194.458-.678.872.124.407-.751.581-.424.909.069.666-.345.622-.385.673-.746.542.823.14.765,0,.708.116.748-.379.709-.654.4-.289.821-1.1-.118-.251.879-.493.6-.765.252-.732.278-.289.894-.779.2-.809.064-.454.627-.486.588-.727.184-.582.434-.8.009-.44.728-.6.432-.67.275-.739.094-.6.46-.735.089-.709.155-.8-.24-.723.025-.67.28-.729-.062-.616.785-.708.236-.779-.651-.678.759-.734.026-.735-.054-.72-.467-.738.4-.732.018-.686-.507-.667-.463-.773.373-.683-.269-.637-.428-.846.45-.713-.157-.544-.663-.879.29-.39-.935-.784-.014-.758-.124-.441-.671-.392-.678-.58-.388-.925-.016-.259-.77-.661-.361-.746-.33-.178-.781-.619-.465.135-.918-.888-.347.232-.9-.379-.614-.588-.556.054-.777-.556-.6.589-.87-.791-.573.131-.755-.465-.673.352-.763-.169-.714Z" transform="translate(72.832 696.214)" fill="#fff"/><path d="M586.376,1208.033l.068-.715.238-.7-.254-.731.134-.709.235-.692-.191-.748.048-.722.769-.585-.415-.813.476-.625.189-.686.22-.677-.2-.807.221-.686.23-.683.772-.471.336-.627.131-.715-.137-.85.721-.446-.021-.818.346-.632.576-.5-.036-.87.349-.641.644-.437.659-.407.289-.682.638-.4.546-.465.125-.86.345-.681.74-.273.4-.639,1.005.1.406-.635.552-.453.406-.7.751-.15.764-.078.733-.085.51-.606.661-.266.554-.669.769.065.706-.169.7-.286.763.461.708-.472.669.453.646.28.637.1.616.047.5.326,1.027-.362.545.5.415.789.793-.153.711.414.7.14.776-.3.758-.006.642.429.8-.035.707.257.392.837.674.274.427.641.878.042.184.886.772.229.4.615.451.558.852.268-.133.978.832.331-.13.907.734.431.085.76.777.462.012.782-.174.822.811.515-.158.8-.146.771.265.679.678.633.021.74-.212.752.275.719.065.736-.457.721-.212.715.02.719.029.721.287.745.03.731-.575.662.285.763-.654.628.074.736-.127.7.1.755-.209.69-.238.68-.093.721.095.788-.342.651-.749.488.04.786-.658.492-.291.645.239.921-.394.611-.754.39.129.928-.979.208-.4.581-.025.885-.723.336-.084.891-.568.466-.81.2-.731.246-.037,1.065-.642.362-.986-.149-.375.711-.531.506-.8.031-.7.181-.423.768-.553.548-.714.167-.729.1-.692.2-.8-.211-.7.088-.626.492-.7.152-.689.273-.761-.4-.7.085-.694.633-.728.021-.713-.626-.747.436-.751.142-.635-.749-.793.351-.715-.164-.7-.21-.77-.005-.55-.639-.575-.487-.626-.341-.758-.1-.592-.416-.724-.228-.25-.858-.521-.473-1.038.053-.133-.882-.655-.386-.093-.838-.8-.309-.393-.614-.253-.691-.443-.587-.055-.771-.123-.721-.745-.485.209-.829-.668-.552-.126-.72.34-.817-.648-.607-.237-.7.281-.769-.341-.687.278-.753-.626-.686.456-.748.15-.73Zm32.3-5.631.045-.715.174-.728-.359-.688-.014-.717.045-.732-.417-.651-.221-.679.45-.861-.752-.53.08-.782-.24-.682-.25-.68-.683-.472-.324-.627-.357-.609.086-.9-.362-.647-.586-.474-.835-.207-.212-.821-.809-.131-.593-.357-.557-.5-.764.332-.6.068-.581.023-.7.346-.3.691-.649.4-.576.415-.294.827-.6.563-.833-.067-.731.318-.742-.709-.705.228-.694.037-.663.4-.689-.142-.754-.037-.762.177-.324.742-.462.521-.094.847-.64.378-.415.567-.273.67-.833.267-.018.836-.75.36-.577.493-.37.62-.244.683-.395.61.545.979-.3.63-.693.519.1.765-.548.6-.218.688.295.77.075.72-.3.678.255.721.019.7-.574.7.123.727-.253.745.56.686-.462.789.481.671.016.742.159.717.7.547-.391.9.765.47-.188.9.755.413.2.741.86.233.28.7.25.809.955-.062.413.676.521.609.745.147.847-.352.668.2.675.353.722-.212.716-.067.753.4.755.117.727-.159.712-.214.626-.507.661-.3.854.223.53-.633.9.181.561-.529.628-.394.462-.623.6-.409.594-.43.456-.58.262-.744.553-.465.87-.242.16-.789.743-.394.37-.646-.21-.939.362-.623.707-.487-.3-.893.9-.46.2-.711-.313-.841.5-.633-.379-.813.2-.693.512-.666.381-.7-.737-.783.14-.718Z" transform="translate(72.832 696.214)" fill="#fff"/><path d="M636.315,1222.074l.784-.789-.845-.724.282-.764-.493-.752.949-.763-.286-.756-.182-.757.251-.767-.463-.72.04-.72.513-.716-.477-.728-.191-.726.92-.7-.824-.745.4-.716-.132-.728-.141-.73.371-.712.383-.71-.683-.753.272-.714-.28-.74.488-.7.092-.721-.63-.759.6-.692.356-.7-.213-.736.336-.7-.576-.759-.212-.737.949-.662-.231-.74-.414-.753.508-.69-.7-.773.98-.654-.619-.77.769-.665-.433-.755.349-.69.046-.684-.655-.729.529-.654-.148-.692.732-.651-.994-.742.406-.666.553-.669,0-.692-.524-.7.744-.595-.036-.671-.02-.705.529-.474-.271-1.021.669-.391,1.013.3.436-.468.535-.541.687-.573.728.059.61.537.566.407.465.556.923-.244.237.946.735.172.247.723.726.287.622.47.26.706-.544.723.136.646-.449.577-.1.9.924.545.692-.4.266-.932,1.126.52.227-1.033.813-.071.861.016.31-.905.9.128.43-.748.794-.034.358-1.026.84.094.646-.417.714-.241.912.736.615-.705.7-.546.769.522.721.1.71.145.718.052.671.265.541.566,1.125-.788.523.641.8.228.576.546.381.693.2.768.4.617.253.687.05.819.816.231.549-.16.833.8.8-.131.088-1.352.732-.16.719-.212.375-.754,1.1.379.6-.39.341-.842.8-.047.833.052.379-.848.847.14.341-1.075,1.009.651.461-.905.722-.129.608-.618.9.779.721.018.589-1.122.733-.148.769.473.732-.442.727.546.772-.515.667.691.655.423.642.337.99-.839.57.626.664.31.573.471.485.561.594.382.79.2.553.5.057.877.165.722,1.356.07.23.734-.412.952.1.711.908.506-.746.9.924.576-.481.792.363.694-.537.743.637.708-.3.72.232.738-.213.711.19.753-.273.706.322.757-1.007.58.682.811-.549.646.548.789-.978.589-.088.7.3.751-.424.662.526.779-.133.7-.141.7.38.75.05.711-.861.634.139.716-.474.675.342.724.153.71.354.715-.851.673.621.717-.216.7-.47.708.037.694-.174.715.914.6-.356.757.84.27.09.822.731-.337.691-.114.744-.013.717-.109.449.464,1.174.5-.491.773,0,.818-.823.409-.6.46-.012.855-.611.437.011.955-.666.387-.437.6-1.159-.183-.13.933-.584.429-.348.794-1.131-.482-.532.467-.446,1.012-.846-.461-.709-.088-.5-.661-.671-.058-.7-.234-.714-.387-.477-.621.764-1.034-.663-.53.332-.757-.268-.666-.994-.656.65-.728-.106-.706.131-.7.181-.7-.737-.733.038-.707.245-.7.045-.707.446-.683-.019-.71.566-.674-.227-.724-.531-.742-.281-.729.359-.685.968-.637-1.17-.8.524-.675.633-.666-.081-.722.163-.7-.853-.784,1.114-.629-.409-.749.019-.713.482-.677-1.039-.793,1.122-.623-.262-.734.38-.68-.554-.748.814-.673-.652-.773-.192-.734-.287-.729.864-.724-.443-.716-.45-.681-.036-.7.836-.891-.5-.644.1-.866-.671-.52-.579-.5-.813-.11-.656-.147-.529-.485-.553-.9-.8.342-.732-.134-.69.42-.642.362-.653.153-.965-.844-.421.98-.86-.217-.356.881-1.1-.492.025,1.372-.743.144-1.056-.2-.121.973-.663.323-.111.893-1.044-.017-.152.819-.785.277-.612.459-.49.565-.038.823-.324.643-.158.713-.728.485.463.924-.919.459.783.956-.809.525.3.793-.042.706,0,.711-1.124.542.911.845-.93.6-.19.7.315.745v.716l-.111.7-.478.671.666.773-.607.66.095.72.536.751-.155.695.124.712-.458.68-.243.7.158.713-.015.709-.042.707-.585.736.367.7.594.643-.052.717-.163.788.415.629.16.592-.413.556-.321.581.042.915-.731.31-.5.5-.2.952-1.21-.58-.38.776-.584.626-.8-.58-.71.027-1.08.23.3-1.4-1.319-.013-.441-.71.206-.916-.362-.722-.3-.8.081-.742-.031-.738.943-.656.225-.7-.984-.815.139-.713.289-.7.252-.7-.042-.731.708-.661-.338-.76-.438-.768.048-.724.364-.687-.1-.731.328-.7.336-.7-.5-.766.21-.71-.066-.732.619-.68-.258-.743.121-.719.611-.693-.771-.77-.3-.743.594-.7.353-.715-.812-.764.407-.72.515-.7-.164-.725-.481-.728-.224-.714.109-.709.942-.743-.51-.7-.508-.669.156-.731.24-.78-.282-.683,0-.807-.441-.649-.473-.639-.927-.021-.489-.675-.716-.358-.778.7-.7-.235-.691.138-.753-.143-.795-.1-.26,1.283-1.107-.672-.2,1.063-.4.6-.543.39-.466.488-1.276-.256-.213.773-.527.491.1.973-.468.527-.416.57-.4.594-.69.363-.85.165-.485.442-.191.954-.784.011-.446.6-1.123-.234.358,1.1-.445.524-.686.535.54.827-.872.568.172.736.427.749-.991.62.87.773-.683.66-.4.685.862.784-.927.674.379.754-.283.715-.22.72.007.739.151.745.268.746-.275.722.335.741.245.731-.612.723-.285.737.713.718.548.7-.87.788.8.644.1.7.335.639-.185.773.475.551-.311.971,1.005.484-.879.678.552,1-.682.495-.337.688-.5.568-.6.452-.814.1-.582.449-.839-.236-.524.918-.779-.048-.626-.762-1.01.492.014-1.152-1.108-.1.545-1.02-.457-.574-.17-.679-.151-.693-.259-.691Z" transform="translate(72.832 696.214)" fill="#fff"/><path d="M710.635,1222.042l-.3-.736.311-.764.217-.757-.678-.745-.324-.752.8-.763,0-.756-.941-.767,1.089-.716-.01-.718-.941-.731.353-.718-.459-.731.386-.717.224-.719-.422-.739-.111-.729.8-.7-.74-.752,1.1-.683-.351-.739.018-.725.075-.722-.256-.738-.365-.745,1.078-.668-.151-.733-.221-.737-.271-.74.1-.718.389-.7-.249-.74-.474-.755.092-.72,1.089-.65-1-.8.829-.663-.58-.768.765-.668-.563-.764.2-.708.61-.672-.944-.75.208-.672.049-.682.453-.657-.516-.718.647-.656.046-.684-.568-.708,1.009-.661.128-.65-.151-.677-.765-.884.631-.57.5-.538.191-.721.564-.457.524-.508.794.059.639-.164.66-.029.583.47.6.042.612.086.752-.116.8.044.547.522.709.3.466.6.611.486-.115.925-.041.708.352.591-.1.659.358.8-1,.661.956.55.774-.169.382-.809.721-.194.706-.244.514-.556.749-.172.591-.426.606-.408.629-.374.433-.81.8-.045.647-.4.783-.011.852.355.583-.72.8.412.651-.891.762.493.71.223.694.177.837-.71.713.272.446.966.862-.232.465.622.769.164.088.915.782.251.424.579.21.708.675.46.733.36.027.785.6.177.863.485.663-.446.166-1.184.593-.377.669-.284,1.151.449.328-.828.408-.723.649-.343.966.239.364-.866.7-.23.571-.522.812.046.518-.731.864.263.809.2.507-1,.874.639.7-.17.688-.338.743.227.705-.454.736.159.74-.271.749-.081.661.689.712.09.741-.011.718.139.476.782,1.11-.716.114,1.334,1.023-.276.335.763,1.032-.034-.352,1.317.777.271.97.24-.008.862.369.635-.183.846.936.458,0,.767.346.682-.781.863.052.705.925.648-.022.739-.659.731.939.745-.96.689.158.731.536.79-1,.616.475.777.334.759-.671.63-.424.663-.183.694.921.834-.836.608.668.8-.593.639.231.744-.518.656-.108.7.457.759-.915.628.567.755-.7.655.574.743-.464.678.059.708.05.708.229.706-.432.7-.04.711-.249.712.5.688.579.655.085.646-.425.754.736.306-.028,1.154.97.013.64-.6.7-.185.717.263.931-.468-.484,1.023.429.7-.438.583.343.986-.484.578-.8.33-.581.448-.1.843-.429.59-1.072-.052.108,1.157-.929.03-.747.182-.061,1.165-.74.208-.567.559-1.007-.793-.562,1.045-.655-.771-.812.328-.461-.651-.587-.366-.669-.4-.238-.706-.107-.721-.572-.6.387-.8.244-.726-.986-.651.773-.727-.691-.7-.131-.714-.07-.714.994-.677-.1-.706-.814-.744.079-.706.931-.657-.228-.722.3-.69-.9-.769,1.206-.625-.923-.772,1.02-.637-.152-.719-.145-.722.079-.707-.267-.735.691-.663-.193-.731-.592-.764-.076-.723.2-.7.029-.713.263-.693.554-.669-.224-.727.666-.664.043-.705-1-.781.069-.721.95-.672-.517-.755.346-.724-.589-.73.082-.719.121-.728.48-.8-.937-.574.078-.755-.293-.652-.186-.727-.653-.391-.617-.315-.231-1.112-.831,0-.723-.225-.791.47-.712-.2-.668.474-.84-1.014-.736.159-.585.643-.506.683-.69.142-.428.681-1.157-.622-.3.867-1-.171-.177.953-.967-.03-.23.822-.534.479-.189.8-1.093-.011-.411.608-.266.719-.449.577.483,1.092-.278.619-1.193.23-.067.747.177.81-1.061.413-.216.694.953.968-.659.573-.11.7-.487.636.037.728.7.81-.716.62.451.763-.572.647-.3.688.537.764-.478.67-.024.711.358.743-.47.671-.357.683.81.765-.734.659.317.724-.035.7-.035.7-.5.7.635.7-.905.74.9.651-.158.72-.152.751.532.586-.412.981.779.42-.448.611-.334.611-.641.378-.285.671-.5.5-.262.85-.883-.037-.713.1-.47.893-.792.3-.629-1.058-.609-.259-1-.081.049-.967-.308-.667-.351-.667-.606-.659.166-.81-.316-.741.433-.7-.484-.766.422-.694.548-.677.123-.713-.4-.763-.177-.744.973-.634-.418-.767-.363-.762.23-.706-.289-.755.552-.671.185-.706.592-.674-1.028-.811,1.182-.631-.559-.771-.447-.761,1.085-.646-.375-.752-.325-.748.68-.687-.074-.731-.794-.769.708-.694-.2-.738.06-.73.8-.707-.563-.739.566-.7-.465-.732-.462-.72.629-.72-.218-.714-.584-.679.623-.769.067-.747.106-.784-1.243-.407.616-1.008-.539-.587-.794-.284-.221-.932-.958.313-.649-.163-.681-.843-.725.339-.592.94-.774-.416-.515.672-.607.252-.925-.33-.394.706-.614.324-.406.588-.874.085-.314.68-.78.258.148,1.037-.83.244-.577.451-.016.87-.417.576-.418.587-.423.6-.761.256-.869-.1-.374.921-.545.272-1.136-.206-.025.918.386.883-.812.467.426.789-.5.614-.126.688.369.739-.777.636-.243.689.789.762-.993.645.6.768.138.738-.3.713.133.738-.848.684.394.759.13.741.516.754-.726.7.5.742-.687.714.28.732.065.727.062.726-.471.753.806.671-.871.828,1.261.545-.878.92,1.226.4-.647,1.014,1.09.222.019.921-.661.628.166.782-.146.768-.641.428-.383.64-.425.657-.97-.15-.539.481-.5.788-.928-.82-.637.662-.574-.791-.585-.079-.507-.337-.829-.272-.32-.671.057-.768-.53-.634.226-.756-.194-.7Z" transform="translate(72.832 696.214)" fill="#fff"/><path d="M782.809,1209.839l-.284-.728.772-.695-.413-.74-.041-.728.657-.656-.575-.792.314-.686.047-.723.3-.676.388-.649-.437-.841.415-.641.075-.729.173-.705.86-.471.034-.744-.366-.913.521-.572.121-.739.935-.358.033-.782.5-.546.508-.53-.014-.841.621-.457.585-.464.237-.7.078-.842.333-.665.815-.258.308-.691.4-.621.732-.289.727-.266.57-.423.452-.567.533-.476.384-.7.812-.077.469-.6.769-.1.674-.24.463-.679.661-.283.624-.381.817.149.552-.621.754.016.718-.078.636-.457.8.426.635-.593.717-.09.74.288.693-.641.732.264.724-.207.721.081.7.248.67.436.722-.072.7.124.631.418.827-.418.56.635.793-.162.555.547.594.394.974-.419.4.8.608.358.654.29.526.486.493.515.458.54.676.3.733.274.627.408.3.69.034.857.577.456.777.369.15.743.2.7.191.689.18.685.375.63-.14.756.639.615-.575.77.039.684-.01.71-.044.712.338.829-.125.766-.96.378-.205.7-.034.923H821.4l-.431.6-.354.782-.572.471-.922-.2-.761.061-.526.551-.685.214-.4.888-.834-.147-.5.706-.693.209-.912-.418-.711.128-.643.332-.53.686-.85-.341-.688.184-.517.813-.644.386-.887-.561-.646.376-.6.613-.866-.589-.668.311-.636.505-.8-.39-.666.373-.7.175-.719.061-.71.127-.748-.243-.7.137-.7-.111-.773.5-.774.08-.707-.315-.639-.553-.869.389-.608-.576-.681-.466-.8-.1-.8.188-.758.16-.821.194-.617.684.456.819-.023.643-.862.592.049.7.024.689.37.691.249.689-.189.773.777.534-.324.86.633.509.163.716.254.7.869.21.4.57.248.8.673.306.815,0,.481.606.52.637.876-.337.6.477.789-.268.633.455.649.521.8-.675.669.555.7.4.747-.8.713-.035.718.773.7-.653.7-.122.76.657.659-.757.736.212.69-.222.77.333.746.093.627-.541.768.168.694-.191.515-.814.8.2.794.1.568-.545.743-.077.366-.926.814.068.512-.545.576-.4.8-.05.575-.418.6-.385.37-.69.449-.606.9,0,.6-.331.682-.349.828.006.647.493.461.745-.277.844-.439.574-1,.074-.206.746-.47.529-.653.349-.182.831-.921.044-.337.679-.727.222-.109,1-.74.2-.6.377-.366.729-1.028-.273-.262.921-.676.261-.586.417-.594.4-.756.085-.835-.115-.452.72-.675.229-.716.118-.616.382-.7.146-.764-.086-.474.968-.784-.181-.8-.358-.619.53-.653.477-.711.153-.739-.168-.721-.077-.715.327-.715-.6-.733.491-.687-.7-.767.692-.651-.869-.78.494-.645-.607-.742.106-.681-.254-.826.392-.582-.643-.756.031-.729-.1-.722-.145-.506-.664-.551-.492-.995.348-.344-.852-.87.009-.314-.8-.372-.661-1.019.061-.185-.839-.809-.247-.126-.826-.409-.582-.856-.314-.284-.687.006-.816-.578-.534-.079-.748-.518-.59.5-.9-.88-.515.344-.814-.382-.659-.342-.681-.141-.717.191-.746-.029-.72-.107-.72Zm32.62-13.808-.367-.667.566-.879-.677-.551-.406-.595.079-.944-.984-.134-.372-.645-.617-.382-.525-.534-.552-.558-.91.288-.6-.457-.73-.066-.711-.106-.628-.771-.765.14-.767.624-.717-.279-.7.21-.79-.615-.668.439-.753-.012-.761.041-.532.67-.778.032-.763.127-.539.55-.376.761-.493.532-.845.075-.4.643-.431.585-.724.293-.713.343-.512.54-.314.686-.355.646-.056.8-.658.492v.779l-.463.643-.173.759.6.641.617.244.7-.137.722.39.749-.332.55.522.566.512.8.095.474.817.877-.251.727.122.727.4.727-.629.761.186.686-.32.721-.062.746.073.782.228.683-.306.714-.146.782.111.562-.761.826.252.584-.588.791.081.739-.12.375-1,.875.182.655-.329.568-.467.65-.354.622-.437.568-.554.1-.815Z" transform="translate(72.832 696.214)" fill="#fff"/><path d="M835.81,1222.16l-.023-.7.059-.7-.589-.685.642-.711-.416-.689.574-.7-.132-.693.123-.689-.835-.689.334-.716.4-.712-.52-.721-.018-.715.185-.711.545-.7-.086-.714-.716-.737.064-.713.123-.717.55-.692-.58-.75.3-.7-.217-.731.267-.7.287-.692-.023-.715-.2-.732.587-.661-.347-.749-.16-.732.249-.691.486-.66-.475-.771.634-.638-.329-.742.3-.68.111-.7.354-.677-.691-.774.885-.627-.73-.772.9-.625-.686-.767.154-.7-.009-.713.049-.711.53-.672-.158-.728.33-.69,0-.712-.355-.728.317-.688-.409-.722.627-.677.011-.7-.154-.733-.19-.8.85-.462.47-.5-.1-.939.808-.176.261-.951.937.378.556-.826.768.438.735-.442.7.243.627.4.705.174.733.215.652.393.341.781.177.772.168.564.578.631-.038.765-.011.737-.177.578-.41.933,1.032-.218.654.272.728.087.715-.165.762.024.524-.657.929.306.7-.181.491-.69.685-.231.6-.479.909.449.673-.234.587-.585.74-.011.635-.5.778.241.638-.639.8.558.711-.061.7-.509.734.215.737-.34.627.745.767-.265.615.434.852-.257.488.68.86-.066.273.893.435.554.5.457.86.185.615.47-.151.918.194.668.2.657,1,.483-.09.772.26.715-.162.746-.514.709.054.721.062.73-.157.707.34.762-.3.694-.655.655.238.753.309.76-.476.673-.329.69.183.75.381.769-.826.636-.133.716.14.749.5.79-.055.728-.917.633.277.764.445.78-.435.683.049.731-.29.7.066.735-.16.71-.285.706-.208.716.718.744-.657.7.162.722.062.717-.239.718.563.711-.224.721.085.707.018.719.182.7.185.884.9.164.741-.656.921.53.718-.023.413.141.868.318-.083.816-.173.77-.328.693-.832.374-.633.438.022.925-.675.393-.223.8-.918.109-.088,1.017-1.158-.294-.319.8-.591.448-.879-.184-.534.6-.686.279-.737.108-.768-.092-.466-.75-.84-.03-.21-.767-.632-.474-.7-.546.7-.984-.379-.657-.213-.713-.154-.732.365-.766-.751-.717-.256-.757.258-.716-.137-.72.539-.7.212-.7-.068-.718-.4-.737.715-.674-.029-.712-.775-.764.48-.681.32-.692.228-.7-.2-.732-.094-.721.027-.715.495-.677.035-.716-.7-.782.812-.651-.525-.769.591-.67-.18-.74.269-.7.09-.715-.583-.777.191-.7.269-.7.266-.694.06-.713-.522-.769.3-.691-.2-.738.882-.636-.725-.785.473-.669.012-.752-.254-.737.318-.776-.112-.769-.865-.381.022-.941-.9.038-.486-.774-.8.17-.739-.257-.756-.109-.723.25-.815-.235-.612.633-.553.66-.808-.09-.723.183-.656.341-.89-.083-.275,1.01-.79.129-.326.816-.961-.055-.444.632-.857.163-.174.9-.6.453-.174.866-.91.2-.468.608-.7.3-.77.044-.475.744-.8-.014-.693.371-.4.661-.1.758.138.75-.323.666-.246.7-.07.719.215.744.137.735-.747.662-.082.721.762.795-.28.708.284.755-.474.7.378.756-.478.694-.338.707.232.742.121.733-.695.7.424.743.034.726-.453.725.423.727.339.718.125.711.1.7-.368.766.034.733.237.691.7.47.139.655-.136.882.571.672-.051.8-.817.49.084.878-.836.307-.569.428-.093.985-.817.137-.662.287-.478.863-.909-.633-.679-.05-.651.17-.8-.081-.158-.8-.434-.588-.675-.606.6-.859-.493-.683.085-.75Z" transform="translate(72.832 696.214)" fill="#fff"/><path d="M881.125,1213.133l.115-.753.367-.732.828-.681-.336-.749-.113-.741.183-.711.854-.608-.3-.772.013-.729-.677-.881.545-.631-.029-.761,1.272-.408-.82-.993,1.131-.405-.2-.827.521-.578.056-.75.213-.694.177-.713.09-.761.437-.6.784-.408.12-.753.571-.5.63-.452-.745-1.326,1.022-.2.529-.512.47-.548.607-.439.053-.876-.112-1.045,1.386.242.342-.655.652-.366.367-.645.219-.814.467-.566,1.15.225.244-.819.616-.373.609-.375.68-.272.59-.393.207-1.076.434-.785.834-.009,1.049.6.731-.05.409-1.052.671-.341.916.753.678-.2.632-.618.7-.326.731-.059.742.371.72.424.725-.178.768-.3.709.3.68.367.785-.071.914-.873.667.432.453-.216.316-.351,1.27-.469-.251-.74-.647-.79-.018-.718.351-.673.307-.678.942-.6-.932-.83.306-.683-.432-.775.481-.656-.309-.76,1.28-.543-.432-.774.111-.7.032-.718-.628-.811,1.417-.509-.364-.77.133-.7-.555-.8,1.361-.5-.97-.865.352-.654-.448-.782,1.25-.511-1.164-.9.435-.641.388-.665.251-.7-.563-.839.986-.568-.607-.845,1.268-.52.117-.718-.447-.819.658-.62-.719-.878.744-.6.7-.595-1.067-.973.4-.8.294-.805.294-.693.213-.651-.449-1.014.373-.764.914-.211.37-.822,1.187.668.3-1.144.82.142.626-.573.783.018.8.38.712.152.853-.442.359,1.217,1.011-.464.972-.027.406.778.668.471-.142,1.068.3.664-.1.74,1.5.639-1.125.645.233.943-.258.818-1.555-.354-.341.655-.451.589-.544.559-.852.307-.136.888.391,1.131-1.108.227.051.86-.487.6-.779.516.134.849.109.816-.873.541.58.922-.062.749-1.134.494.243.8.606.877-.547.624.08.76.241.793-.547.624-.675.6.811.91-1.521.424-.107.718,1.166.975-1.221.492.873.91-.094.716-.113.711-.735.594.078.754-.141.712.256.782-1.013.556-.549.641.458.813.026.737.391.794-.427.662-.962.582.06.74.977.873-.16.7-.061.718-.47.663.088.735.026.726-.921.615.442.772-.694.647.784.8-.316.688-.122.7-.672.658.5.759.177.729-.8.656-.5.684.284.738.158.729.541.749-.164.709.068.722.417.739-.873.677.551.742-.709.7-.089.719.835.76-1.167.682,1.085.769-.86.691-.069.723.419.739-.2.717.151.727-.6.71.668.737-1.089.713,1.211.736-1.1.734.9.714.581.7-1.012.766.968.652-1.246.854,1.228.564-.457.814.489.612.445.555.2.653.747-.123.4.6.748.3.791.273.521-1.289,1.057,1.2.35-1.367,1.014.572.678-.333.763-.142.222-1.277.881.2.616.361.768.842-.955.609-.473.506.175.87.069.92-1.054.1.206,1.134-.459.6-1.291-.322.137,1.276-.578.475-.76.2-.831.036-.486.626-.617.426-.88-.244-.452.989-.932-.68-.735-.156-.65.473-.712-.285-.65-.225-.795.7-.719-.156-.647-.365-.367-.75-.889-.017-.575-.467.132-1-.108-.749-1.044-.127-.489-.428-.437-.048-.744-.543-.873-.293-.536.663-.684.227-.309.985-.864-.158-.658.259-.458.68-.977-.446-.479.641-.78-.074-.576.44-.421.969-.821-.242-.563.666-.871-.617-.554.851-.8-.528-.654.491-.71.035-.734-.468-.7-.258-.741,1.079-.755.134-.609-1.239-.868.967-.562-.962-.849.439-.666-.35-.638-.383-.516-.623-.98.365-.573-.5-.279-.9-.755-.173-.4-.634-.771-.236-.433-.587-.406-.6-1.105-.149.322-1.061-.509-.556.448-.977-1.351-.254.213-.848-.551-.611.575-.876-1.151-.529.2-.782-.284-.718.475-.771.266-.74Zm26.238,4.14.506-.428.661-.345,1.038-.216-.047-.826.061-.722.273-.649.882-.576-.329-.78-.062-.721-.81-.733.4-.7-.187-.75,1.141-.715-1.049-.761.972-.724-.44-.75.305-.74-.208-.744-.056-.744-.113-.747-.226-.751.142-.747.522-.739-.239-.751.264-.742.327-.725-1.318-.726.747-.676.123-.7-.018-.717-.082-.871-.992-.063-1.006.533-.109-1.432-.6-.356-.189-.711-.484-.588-.693-.427-.41-.528.283-1.143-.935-.125-.72-.3-.75-.108-.774-.131-.763.121-.522.969-.495.675-.762-.069-1.078-.544-.765.2-.14,1.135-.487.54-1.161-.269-.516.549-.167.885-.318.692-.469.539-.768.3-.792.322-.268.719-.1.812-.547.517-.566.521-.143.759.59,1.106-.623.488-.154.707-.279.649-1.307.273.069.8.475.912-.106.71-.446.618-.388.646-1,.533.871.91-.332.675.421.783-.471.667.341.749-1.24.648.505.755-.021.719.087.718.78.656-1.242.856.586.654.133.716.844.484-.918,1.136,1.307.174.168.717.863.16-.277,1.322,1.321-.638.4.592.527.508.643.306.794-.568.6.937.721-.72.747,1.143.743-.059.665-.658.8.426.561-.983.832.452.853.371.366-1.4.748,0,.729-.094.764-.038.694-.242.273-1.053.533-.447.852.038.259-.773Z" transform="translate(72.832 696.214)" fill="#fff"/><path d="M939.12,1209.839l-.292-.725-.015-.727.783-.677-.6-.765.205-.706.569-.653-.239-.756-.362-.792.914-.562-.226-.779-.078-.76.567-.6.407-.627-.237-.821.568-.569.043-.744.278-.663.616-.518-.368-.944.735-.451.431-.582-.046-.834.137-.755.745-.4.053-.822.943-.234-.219-1.04.671-.406.785-.292.1-.856.484-.54.816-.215.382-.629.76-.228v-1.092l.767-.209.713-.25.641-.327.428-.645.754-.142.634-.321.32-.935.706-.217.779-.026.745-.059.61-.411.741-.026.632-.381.739.015.682-.21.706-.085.707-.068.692-.228.683-.5.751.622.71-.612.722.034.714.165.7.2.719-.016.648.5.79-.418.741-.023.571.685.781-.156.518.705.788-.107.712.147.479.658.64.291.506.522.767.093.786.121.514.517.58.427.65.361.2.814.792.248-.124,1.022.614.412.432.557.521.516.58.507-.216.891.753.459-.1.794.125.7.644.586-.595.82,0,.685.155.677.341.742.136.777-.461.667-.341.656.139.885-.668.488-.193.818-.73.361-.736.254-.774.094-.505.527-.322.923-.913-.221-.62.358-.539.553-.815-.094-.68.215-.712.131-.444.858-.662.29-.667.28-.848-.273-.665.256-.6.475-.723.083-.607.5-.858-.425-.545.77-.775-.133-.754-.07-.666.309-.7.149-.681.273-.653.461-.816-.5-.615.758-.811-.595-.659.548-.744-.158-.728-.152-.716.269-.75.061-.762.02-.761-.031-.694-.351-.622-.559-.664-.291-.773-.214-.818-.011-.777.346-.786-.091-.373.744-.67.3.2.711-.944.515.241.712.015.673-.309.7.464.682,0,.729,0,.743.244.695.775.488-.148.831.52.532.016.857.8.294.693.292.059,1.024.841.072.664.259.379.857.7.231.737.1.661.344.845-.469.584.776.755-.186.7.218.722.053.734-.337.71.283.722.306.709-.564.7-.227.731.487.714-.111.747.281.639-.8.776.471.67-.368.738.082.637-.455.779.234.755.064.561-.665.7-.146.649-.311.812.134.632-.358.473-.687.69-.192.817.021.574-.444.278-.892.763-.117.713-.227.464-.582.715-.264.258-.888.775-.155.737.037.569.426.661.2.324.451-.131.678-.563.436-.627.373-.274.686-.293.691-.808.2-.174.835-.849.122-.272.757-.653.32-.294.773-.973-.115-.565.416-.624.33-.324.793-.5.541-.9-.125-.358.812-.679.24-.865-.149-.392.821-.6.407-.868-.232-.445.82-.672.261-.843-.271-.762-.09-.521.776-.725.044-.629.489-.839-.636-.6.79-.721.041-.754-.482-.686.477-.717.228-.713-.667-.708-.173-.75.7-.72-.1-.712-.225-.742.084-.708-.194-.616-.688-.8.377-.75.023-.714-.151-.583-.586-.775.05-.458-.82-.872.243-.446-.732-.763-.071-.536-.495-.656-.3-.465-.566-.936.016-.582-.455-.177-.849-.394-.6-.542-.476-.529-.5-.167-.741-.432-.57-.793-.41.059-.823-.01-.761-.154-.692-.614-.56-.026-.734-.039-.722-.226-.683.084-.732.062-.719-.811-.648.318-.742.134-.72Zm32.62-13.814-.376-.68-.194-.67.452-.946-.915-.372-.281-.667-.113-.885-.784-.269-.861-.048-.2-1.059h-.837l-.761-.047-.56-.61-.663-.407-.816.308-.673-.467-.756.133-.734-.067-.736-.388-.7.741-.766-.4-.751,0-.609.588-.6.448-.823-.161-.5.647-.938-.26-.245,1.033-.756.131-.842.062-.284.819-.546.461-.833.167-.386.645-.753.312.18,1.082-.681.381-.592.481-.456.592-.039.789-.511.6-.215.724.608.764.015.488.444.451.73.206.7-.206.639.278.653.119.515.593.7.325.691.345.735.259.785-.01.765-.4.77.633.681-.686.722-.081.735.02.741.03.7-.219.794.257.6-.684.669-.329.836.339.606-.54.846.283.576-.579.633-.373.825.1.657-.336.754-.163.462-.667.366-.7.576-.406.379-.576.1-.658Z" transform="translate(72.832 696.214)" fill="#fff"/><path d="M989.829,1213.133l-1.346-.751,1.317-.684-1.46-.81,1.273-.634.326-.686-1.011-.846.629-.648-.028-.737-.272-.79,1.211-.493-.055-.743-.067-.755-.427-.867.333-.668-.19-.832,1.461-.276.4-.611-.144-.821-.13-.836-.041-.816,1.322-.186-.064-.827.692-.448-.639-1.17,1.309-.085-.806-1.331,1.315-.031.767-.35-.847-1.47.7-.4.19-.783,1.391.177.415-.584.55-.467.489-.517.425-.578.04-.98.426-.611.389-.661,1.227.3.261-.808.343-.733,1.121.292.542-.464.657-.291.712-.173-.03-1.6,1.136.67.446-.791.848.2.5-.814.862.388.689-.182.684-.241.607-.918.778.291.7-.588.774.889.721.232.737-.136.725.137.865-.64.835-.232.6.763.6.944.767.189.989-.614.819-.616.407-.913-1.244-.854,1.019-.6-.815-.811.091-.7-.05-.722,1.349-.55-.989-.838,1.081-.584-.6-.8.338-.674v-.718l-.283-.755,1.061-.569-.688-.811,1.2-.55-.446-.783-.3-.763.414-.654.414-.656-.9-.857.212-.683.231-.675.326-.659.509-.629-.769-.835,1.051-.546.53-.626-1.344-.95.647-.631,1.052-.555-.638-.852.818-.6.168-.71-.735-.868.932-.574.217-.7-.391-.813.634-.615-.739-.894-.372-.826,1.514-.572-.323-.977-.614-.791.229-.768.669-.545-.11-1.038,1.1,0,.375-.742.777-.122.735-.089.664-.269.554-.89.828.249.8,0,.764.095.595.745.957-.543.738.3.717.368-.048,1.219,1.056.015-.286,1.142,1.155.174.308.767-.766.815-.172.557.857,1.2-.4.754-1.387-.18,0,1.062-.462.617-.771.231-1.2-.029.534,1.351-1.4-.006.053.917-.264.714.258.915-1.247.329-.23.731.845,1.04-1.2.443.676.944-1.065.522.012.75-.56.621.232.8.18.783-.644.6,1.15.989-.358.664-1.121.5.712.89-.612.612-.7.6.292.8.044.747-.953.549-.122.714.847.9-.006.733-.848.581.721.871-.063.725-.822.59.138.759.434.807-1.078.553.554.821-.255.69-.438.662.447.795-.781.618.24.764.406.782-.859.614.118.741-.971.608.543.79.846.816-1.172.595-.25.7.536.774-.542.668-.093.71-.066.713.213.735-.513.68.968.785-1.193.639.817.769.484.745-.337.7.389.738-1.587.646,1.349.776-.5.7-.418.708.457.738-.424.715-.186.718-.046.724,1.115.768-1.119.683.167.73-.279.716.259.731.14.728-.324.718.97.734-.024.723-1.4.734.8.716-.5.742,1.066.667-.644.765-.352.772.8.625-.777.9.331.721,1.145.328.257.6.271.877.835-.176.7-.665.829.959.562-1.057.977.877.788-.1.6-.575.263-1.2,1.179.733.4-.868.736-.08.4.478.724.655-.39.7-.3.643-.555.489-.506.482-.411.543-.27.681.056,1.053-.938.058-.348.7-.55.474-.954-.133-.148,1.135-.914-.162-.93-.355-.309,1.1-.911-.536-.51.8-.625.661-.808-.681-.7-.433-.733,1-.705-.233-.754-.035-.631-.425-.7-.277-.055-1.045-1.252.229.549-1.333-1.243.025.36-1.09-1.344.32-.081-1.2-.738.239-.836-.2-.748.146-.636.365-.32.972-.376.832-1.2-.842-.458.666-.46.692-.553.514-.636.344-.879-.317-.467.857-1.043-1-.4,1.211-.873-.633-.56.8-.749-.171-.677.355-.754-.546-.689.383-.713.722-.711-1.088-.766.689-.736-.077-.761.064-.635-.62-.8.2-.389-1.241-.975.631-.688-.272-.9.122.017-1.527-1.147.45-.463-.625-.573-.466-.288-.746-.363-.629-.889-.222.218-1.02-.991-.245.16-.9.167-.835-.4-.582-1.189-.369.286-.837.432-.823-1.588-.442.162-.781-.2-.73.752-.787-.212-.719Zm25.828,5.21-.574-1.413,1.466.162-.941-1.365,1.4-.113.5-.627-.883-.975.653-.587-.056-.722-.354-.726,1.116-.669-.208-.717-.222-.743-.618-.758.149-.735-.417-.747,1.307-.722.183-.742-.42-.747-.427-.749-.354-.751,1.134-.731-.41-.754.423-.74-1.1-.769,1.111-.724-1.355-.777,1.114-.659.453-.7-1.552-.638.266-.65-.427-.309.117-1.2-.664-.1-.479-.4-.428-.468-.441-.53-.914-.4-.423-.533-.5-.441.405-1.164-.862-.094-.68.173-.685-.946-.768.106h-.778l-.808-.026-.252,1.578-1.078-.74-.414.82-.875-.055-.268.916-.944-.059-.562.482-.476.571.056,1.086-.76.254-.064.881-1.164-.033-.636.435-.3.689-.464.57.265,1.017-.017.807-.881.327-1.058.278-.408.628.1.848-.47.6-.409.632,1.015,1.126-1.12.39.661.947-.192.682-.035.719-1.4.434.929.913-1.1.548.588.816-.329.689.03.728.335.741-1,.686.787.727-1.1.752.6.7.489.67-.2.758-.142.785,1.178.391.145.662.192.66.189.7.147.816,1.115-.174.007,1.176.483.745,1.213-1.1.5.683.558,1.054.813-.7.711.725.755.026.674-.92.815.734.752-.02.633-.656.826.339.495-1.052.538-.71,1.1,1.086.535-.7.419-.885.662-.24.814.038.272-.937,1.015.272.321-.736Z" transform="translate(72.832 696.214)" fill="#fff"/></g></svg>