<svg xmlns="http://www.w3.org/2000/svg" viewBox="0 0 20.1 20">
  <defs>
    <style>
      .cls-1 {
        fill: #fff;
      }
    </style>
  </defs>
  <path id="パス_2" data-name="パス 2" class="cls-1" d="M7,18a2,2,0,1,0,2,2A2.006,2.006,0,0,0,7,18Zm10,0a2,2,0,1,0,2,2A2.006,2.006,0,0,0,17,18ZM7.2,14.7v-.1L8.1,13h7.4a1.936,1.936,0,0,0,1.7-1l3.9-7h0L19.4,4,18.3,6l-2.8,5h-7l-.1-.3L6.2,6l-1-2L4.3,2H1V4H3l3.6,7.6L5.2,14A2.959,2.959,0,0,0,5,15a2.006,2.006,0,0,0,2,2H19V15H7.4C7.3,15,7.2,14.9,7.2,14.7Z" transform="translate(-1 -2)"/>
</svg>
