<svg xmlns="http://www.w3.org/2000/svg" xmlns:xlink="http://www.w3.org/1999/xlink" width="24" height="24" viewBox="0 0 24 24"><defs><clipPath id="a"><rect width="24" height="24" fill="none"/></clipPath></defs><g transform="translate(-834.504 -73)"><g transform="translate(834.504 73)" clip-path="url(#a)"><path d="M12,4.5a2.4,2.4,0,0,1,0,4.8,2.4,2.4,0,0,1,0-4.8m0,9.8c2.5,0,5.3,1.3,5.4,1.9v3H6.6v-3c.1-.6,2.9-1.9,5.4-1.9M12,2.7a4.2,4.2,0,1,0,4.2,4.2A4.225,4.225,0,0,0,12,2.7Zm0,9.8c-2.4,0-7.2,1.3-7.2,3.7V21H19.2V16.2c0-2.4-4.8-3.7-7.2-3.7Z" fill="#523f30"/><path d="M0,0H24V24H0Z" fill="none"/></g></g></svg>