<?xml version="1.0" encoding="utf-8"?>
<!-- Generator: Adobe Illustrator 24.2.3, SVG Export Plug-In . SVG Version: 6.00 Build 0)  -->
<svg version="1.1" id="レイヤー_1" xmlns="http://www.w3.org/2000/svg" xmlns:xlink="http://www.w3.org/1999/xlink" x="0px"
	 y="0px" viewBox="0 0 23.5 23.5" style="enable-background:new 0 0 23.5 23.5;" xml:space="preserve">
<style type="text/css">
	.st0{fill:#343C43;}
</style>
<path class="st0" d="M23.5,11.8c0-6.5-5.3-11.7-11.8-11.7S0,5.5,0,12c0,5.8,4.2,10.6,9.9,11.5v-8.3h-3v-3.4h3V9.2
	c0-3,1.8-4.6,4.4-4.6c0.9,0,1.8,0.1,2.6,0.2v2.9h-1.5c-0.9-0.1-1.8,0.5-1.9,1.5c0,0.1,0,0.3,0,0.4v2.2h3.3l-0.5,3.4h-2.7v8.3
	C19.3,22.6,23.5,17.6,23.5,11.8z"/>
</svg>
