<?xml version="1.0" encoding="utf-8"?>
<!-- Generator: Adobe Illustrator 24.2.3, SVG Export Plug-In . SVG Version: 6.00 Build 0)  -->
<svg version="1.1" id="レイヤー_1" xmlns="http://www.w3.org/2000/svg" xmlns:xlink="http://www.w3.org/1999/xlink" x="0px"
	 y="0px" viewBox="0 0 24 24" style="enable-background:new 0 0 24 24;" xml:space="preserve">
<style type="text/css">
	.st0{fill:#343C43;}
</style>
<path class="st0" d="M12,0C8.7,0,8.3,0,7.1,0.1c-1,0-2,0.2-2.9,0.6C3.3,0.9,2.6,1.4,2,2C1.4,2.6,0.9,3.3,0.6,4.1
	C0.3,5.1,0.1,6.1,0.1,7.1C0,8.3,0,8.7,0,12s0,3.7,0.1,4.9c0,1,0.2,2,0.6,2.9C0.9,20.7,1.4,21.4,2,22c0.6,0.6,1.3,1.1,2.1,1.4
	c0.9,0.3,1.9,0.5,2.9,0.6C8.3,24,8.7,24,12,24s3.7,0,4.9-0.1c1,0,2-0.2,2.9-0.6c1.6-0.6,2.9-1.9,3.5-3.5c0.3-0.9,0.5-1.9,0.6-2.9
	C24,15.7,24,15.3,24,12s0-3.7-0.1-4.9c0-1-0.2-2-0.6-2.9C23.1,3.3,22.6,2.6,22,2c-0.6-0.6-1.3-1.1-2.1-1.4c-0.9-0.3-1.9-0.5-2.9-0.6
	C15.7,0,15.3,0,12,0z M12,2.2c3.2,0,3.6,0,4.9,0.1c0.8,0,1.5,0.1,2.2,0.4c1,0.4,1.9,1.2,2.3,2.3c0.3,0.7,0.4,1.5,0.4,2.2
	c0.1,1.3,0.1,1.6,0.1,4.8s0,3.6-0.1,4.8c0,0.8-0.2,1.5-0.4,2.2c-0.2,0.5-0.5,1-0.9,1.4c-0.4,0.4-0.9,0.7-1.4,0.9
	c-0.7,0.3-1.5,0.4-2.2,0.4c-1.3,0.1-1.6,0.1-4.9,0.1s-3.6,0-4.9-0.1c-0.8,0-1.5-0.2-2.2-0.4c-0.5-0.2-1-0.5-1.4-0.9
	c-0.4-0.4-0.7-0.9-0.9-1.4c-0.3-0.7-0.4-1.5-0.4-2.2c0-1.3-0.1-1.6-0.1-4.8s0-3.6,0.1-4.9c0-0.8,0.2-1.5,0.4-2.2
	c0.2-0.5,0.5-1,0.9-1.4c0.4-0.4,0.9-0.7,1.4-0.9c0.7-0.3,1.5-0.4,2.2-0.4C8.4,2.1,8.8,2.1,12,2.2L12,2.2z M12,5.8
	c-3.4,0-6.2,2.8-6.2,6.2s2.8,6.2,6.2,6.2s6.2-2.8,6.2-6.2S15.4,5.8,12,5.8C12,5.8,12,5.8,12,5.8z M12,16c-2.2,0-4-1.8-4-4s1.8-4,4-4
	s4,1.8,4,4S14.2,16,12,16z M19.8,5.6c0,0.8-0.6,1.4-1.4,1.4S17,6.4,17,5.6c0-0.8,0.6-1.4,1.4-1.4c0,0,0,0,0,0
	C19.2,4.2,19.8,4.8,19.8,5.6z"/>
</svg>
