<?xml version="1.0" encoding="utf-8"?>
<!-- Generator: Adobe Illustrator 24.2.3, SVG Export Plug-In . SVG Version: 6.00 Build 0)  -->
<svg version="1.1" id="レイヤー_1" xmlns="http://www.w3.org/2000/svg" xmlns:xlink="http://www.w3.org/1999/xlink" x="0px"
	 y="0px" viewBox="0 0 23.5 23.5" style="enable-background:new 0 0 23.5 23.5;" xml:space="preserve">
<style type="text/css">
	.st0{fill:#343C43;}
</style>
<path class="st0" d="M11.8,0C5.3,0,0,5.3,0,11.8s5.3,11.8,11.8,11.8s11.8-5.3,11.8-11.8S18.2,0,11.8,0z M17.1,9.2c0,0.1,0,0.2,0,0.3
	c0,3.6-2.7,7.7-7.7,7.7h0h0c-1.5,0-2.9-0.4-4.1-1.2c0.2,0,0.4,0,0.6,0c1.3,0,2.4-0.4,3.3-1.2c-1.2,0-2.2-0.8-2.5-1.9
	c0.2,0,0.3,0,0.5,0c0.2,0,0.5,0,0.7-0.1c-1.2-0.2-2.2-1.3-2.2-2.6c0,0,0,0,0,0c0.4,0.2,0.8,0.3,1.2,0.3c-0.7-0.5-1.2-1.3-1.2-2.2
	c0-0.5,0.1-1,0.4-1.4c1.3,1.6,3.3,2.7,5.6,2.8c0-0.2-0.1-0.4-0.1-0.6c0-1.5,1.2-2.7,2.7-2.7c0.8,0,1.5,0.3,2,0.9
	C17,7.2,17.6,7,18.1,6.7c-0.2,0.6-0.6,1.2-1.2,1.5C17.5,8.1,18,8,18.5,7.8C18.1,8.3,17.6,8.8,17.1,9.2z"/>
</svg>
