<svg xmlns="http://www.w3.org/2000/svg" viewBox="0 0 329.56 51.86"><defs><style>.cls-1{fill:#eb0228;}.cls-2{fill:#2d1301;}</style></defs><g id="レイヤー_2" data-name="レイヤー 2"><g id="レイヤー_1-2" data-name="レイヤー 1"><g id="グループ_771" data-name="グループ 771"><path id="パス_1613" data-name="パス 1613" class="cls-1" d="M5.3,7.88a18.32,18.32,0,0,0-1,2.36l50.8,30.05c0-.13.08-.25.11-.36v0a7.81,7.81,0,0,0,.2-.79h0a14.17,14.17,0,0,0,.25-1.45Z"/><path id="パス_1614" data-name="パス 1614" class="cls-1" d="M4,19.21a23,23,0,0,0,1.26,3.57L49.46,48.93a15,15,0,0,0,1.82-1.74Z"/><path id="パス_1615" data-name="パス 1615" class="cls-1" d="M53.25,26.62a28.28,28.28,0,0,0-3-4.72s-2-2.52,1.45-2.48H60V0H17.05V0a12.93,12.93,0,0,0-6,1.62Z"/><path id="パス_1616" data-name="パス 1616" class="cls-1" d="M3.55,13.16a14.67,14.67,0,0,0-.11,2.39L53,44.86A20.81,20.81,0,0,0,54,43Z"/><path id="パス_1617" data-name="パス 1617" class="cls-1" d="M8.25,27.9l.33.42s1.68,2.08-.78,2.32H0V51.86H40.8a14.28,14.28,0,0,0,5.9-1.22Z"/><path id="パス_1618" data-name="パス 1618" class="cls-1" d="M8.54,3.51A14.3,14.3,0,0,0,6.82,5.44L55.64,34.32A19.92,19.92,0,0,0,55,31Z"/></g><g id="グループ_774" data-name="グループ 774"><g id="グループ_773" data-name="グループ 773"><path id="パス_1626" data-name="パス 1626" class="cls-2" d="M129.39,48.19a18,18,0,0,0,5.32-3.95.31.31,0,0,0,0-.44.3.3,0,0,0-.21-.08H130a.31.31,0,0,1-.31-.31h0V41.67a.31.31,0,0,1,.31-.31h5.72a.31.31,0,0,0,.31-.31V39.51a.32.32,0,0,1,.31-.31h1.85a.31.31,0,0,1,.31.31h0v1.54a.31.31,0,0,0,.31.31h2.48a.31.31,0,0,1,.31.31h0v1.74a.31.31,0,0,1-.31.31h-2.49a.31.31,0,0,0-.31.31h0l0,5.51a2.62,2.62,0,0,1-.4,1.33c-.6.79-1.42.79-2.49.79-.55,0-1,0-1.51,0a.3.3,0,0,1-.3-.25l-.35-1.78a.3.3,0,0,1,.24-.36h.07l1.57.07c.37,0,.71-.06.71-.53l0-2.14a.31.31,0,0,0-.31-.31.28.28,0,0,0-.23.11,17.32,17.32,0,0,1-4.8,3.71.31.31,0,0,1-.39-.09l-1.08-1.41a.3.3,0,0,1,.06-.42Z"/><path id="パス_1627" data-name="パス 1627" class="cls-2" d="M150.54,43.88A19.11,19.11,0,0,0,146.61,42a.31.31,0,0,1-.19-.39s0,0,0,0l.81-1.57a.33.33,0,0,1,.38-.16,20.45,20.45,0,0,1,4.24,1.84.33.33,0,0,1,.11.43l-1,1.72a.3.3,0,0,1-.41.12Zm-3.68,4.95c5.12-.52,7.91-2.4,9.49-7.8a.31.31,0,0,1,.37-.22l.06,0,1.76.9a.31.31,0,0,1,.15.36,13.68,13.68,0,0,1-4,6.62c-1.74,1.52-4,2.26-7.14,2.77a.3.3,0,0,1-.35-.21l-.65-2.05a.31.31,0,0,1,.22-.38Z"/><path id="パス_1628" data-name="パス 1628" class="cls-2" d="M174.48,43a.3.3,0,0,1,.3.3v0a9.21,9.21,0,0,1-2.38,5.74c-1.63,1.64-4.33,2.32-7,2.54a.31.31,0,0,1-.32-.22l-.56-1.71a.32.32,0,0,1,.21-.39h.07c3.32-.18,6-.87,6.9-3.59a.3.3,0,0,0-.21-.38l-.09,0h-8.1A.31.31,0,0,1,163,45h0V43.32a.31.31,0,0,1,.31-.31h11.18Zm-.59-3.21v1.67a.31.31,0,0,1-.31.31h-9.21a.31.31,0,0,1-.31-.31h0V39.8a.31.31,0,0,1,.31-.31h9.21a.31.31,0,0,1,.31.31Z"/><path id="パス_1629" data-name="パス 1629" class="cls-2" d="M187.18,51.59h-2.05a.31.31,0,0,1-.31-.31h0V46.4a.3.3,0,0,0-.29-.3.33.33,0,0,0-.17,0,20.66,20.66,0,0,1-3.8,1.64.32.32,0,0,1-.36-.14L179.26,46a.31.31,0,0,1,.1-.42l.08,0a22.32,22.32,0,0,0,5.78-2.83,21.45,21.45,0,0,0,4.08-3.65.32.32,0,0,1,.4,0l1.7,1.2a.31.31,0,0,1,.08.43l0,0a25.4,25.4,0,0,1-3.82,3.36.31.31,0,0,0-.13.25v7a.31.31,0,0,1-.31.32Z"/><path id="パス_1630" data-name="パス 1630" class="cls-2" d="M200.21,43.88A19.45,19.45,0,0,0,196.27,42a.31.31,0,0,1-.18-.39s0,0,0,0l.81-1.57a.32.32,0,0,1,.37-.16,20.53,20.53,0,0,1,4.25,1.84.32.32,0,0,1,.1.43h0l-1,1.72a.3.3,0,0,1-.41.12Zm-3.68,4.95c5.12-.52,7.91-2.4,9.48-7.8a.32.32,0,0,1,.38-.22l.06,0,1.76.9a.31.31,0,0,1,.15.36,13.76,13.76,0,0,1-4,6.62c-1.74,1.52-4.06,2.26-7.14,2.77a.31.31,0,0,1-.36-.21l-.64-2.05a.3.3,0,0,1,.21-.38Z"/><path id="パス_1631" data-name="パス 1631" class="cls-2" d="M216.2,46.35a20.59,20.59,0,0,0-3.63-1.43.3.3,0,0,1-.21-.38,0,0,0,0,1,0,0L213,43a.29.29,0,0,1,.35-.19,18.78,18.78,0,0,1,3.84,1.33.32.32,0,0,1,.14.4l-.67,1.63a.3.3,0,0,1-.39.17Zm-2.86,2.56c4.18-.43,7.17-1.28,9-7.32a.3.3,0,0,1,.38-.21h0l1.76.87a.31.31,0,0,1,.16.37,14.07,14.07,0,0,1-4,6.4c-1.48,1.28-3.43,2.09-6.78,2.56a.3.3,0,0,1-.35-.22l-.56-2.07a.31.31,0,0,1,.22-.38Zm4.13-6.13a19.47,19.47,0,0,0-3.78-1.32.31.31,0,0,1-.23-.37s0,0,0-.05l.62-1.45a.32.32,0,0,1,.34-.19,20,20,0,0,1,4,1.21.31.31,0,0,1,.16.41h0l-.7,1.61a.32.32,0,0,1-.41.16Z"/><path id="パス_1632" data-name="パス 1632" class="cls-2" d="M238.71,42.15V51a.31.31,0,0,1-.31.31h-8.29a.3.3,0,0,1-.3-.31h0V49.49a.3.3,0,0,1,.3-.31H236a.3.3,0,0,0,.31-.3h0v-1a.31.31,0,0,0-.31-.31H230.5a.31.31,0,0,1-.31-.31h0V45.82a.31.31,0,0,1,.31-.31H236a.31.31,0,0,0,.31-.31h0v-1a.31.31,0,0,0-.31-.31h-5.78a.3.3,0,0,1-.31-.3h0V42.15a.31.31,0,0,1,.31-.31h8.15A.32.32,0,0,1,238.71,42.15Z"/><path id="パス_1633" data-name="パス 1633" class="cls-2" d="M245.52,46.17a17.69,17.69,0,0,0-.93-3,.31.31,0,0,1,.16-.41h0l1.35-.37a.32.32,0,0,1,.37.17,15.28,15.28,0,0,1,1.07,3.16.31.31,0,0,1-.23.37h0l-1.46.35a.3.3,0,0,1-.37-.21Zm.37,4.1a.3.3,0,0,1,.1-.42l.09,0c1.8-.46,3.67-1.07,4.92-2.78a11.22,11.22,0,0,0,1.8-4.8.32.32,0,0,1,.37-.25h0l1.81.44a.31.31,0,0,1,.23.38c-.79,3.24-1.65,5.46-4.23,7.29a10.84,10.84,0,0,1-3.91,1.74.32.32,0,0,1-.34-.14Zm3-4.69a17.11,17.11,0,0,0-.83-3,.32.32,0,0,1,.18-.4h.05l1.34-.27a.32.32,0,0,1,.35.18,12.94,12.94,0,0,1,.92,3,.29.29,0,0,1-.23.35l-1.41.32a.31.31,0,0,1-.37-.24Z"/><path id="パス_1634" data-name="パス 1634" class="cls-2" d="M269.23,40.23a2,2,0,0,0,2,2h0a.31.31,0,0,1,.31.31v0a9.88,9.88,0,0,1-2.18,5.38,11.65,11.65,0,0,1-6.85,3.7.3.3,0,0,1-.34-.17l-.87-1.75a.31.31,0,0,1,.15-.41l.08,0c6-1,7-4.33,7.3-6.47a.31.31,0,0,0-.26-.35h-8a.31.31,0,0,1-.31-.31h0V40.25a.31.31,0,0,1,.31-.31h8.35A.32.32,0,0,1,269.23,40.23Zm2.08,1.52A1.65,1.65,0,1,1,273,40.1a1.65,1.65,0,0,1-1.65,1.65Zm0-2.3a.65.65,0,1,0,.65.65h0a.65.65,0,0,0-.65-.65Z"/></g><rect id="長方形_1205" data-name="長方形 1205" class="cls-2" x="114.8" y="44.29" width="9.55" height="2.64" rx="0.33"/><rect id="長方形_1206" data-name="長方形 1206" class="cls-2" x="275.61" y="44.29" width="9.55" height="2.64" rx="0.33"/></g><path class="cls-2" d="M85.3,28.64l-.36.7a23.27,23.27,0,0,1-2.12-2.47.4.4,0,0,0-.72.23v4.58a.4.4,0,0,1-.4.4H77.52a.4.4,0,0,1-.4-.4V27.35a.39.39,0,0,0-.69-.27,22.34,22.34,0,0,1-3.58,3.35.41.41,0,0,1-.62-.19l-1.81-5a.41.41,0,0,1,.17-.48,25.41,25.41,0,0,0,3.83-2.9.4.4,0,0,0-.27-.7H71.68a.4.4,0,0,1-.4-.4v-4a.4.4,0,0,1,.4-.4h5a.4.4,0,0,0,.4-.4v-.77a.4.4,0,0,0-.4-.4H71.41a.4.4,0,0,1-.4-.4v-4a.4.4,0,0,1,.4-.4h2a.4.4,0,0,0,.4-.46c-.11-.67-.25-1.39-.45-2.21A.42.42,0,0,0,73,7h-1a.4.4,0,0,1-.4-.4V2.56a.4.4,0,0,1,.4-.4h4.67a.39.39,0,0,0,.4-.39V.63a.4.4,0,0,1,.4-.4h4.35a.39.39,0,0,1,.39.4V1.77a.39.39,0,0,0,.4.39H87a.4.4,0,0,1,.4.4V6.61A.4.4,0,0,1,87,7H86.1a.39.39,0,0,0-.39.32c-.13.71-.2,1-.48,2.15a.4.4,0,0,0,.38.5h1.5a.4.4,0,0,1,.4.4v4a.4.4,0,0,1-.4.4H82.5a.4.4,0,0,0-.4.4V16a.4.4,0,0,0,.4.4h4.41a.4.4,0,0,1,.4.4v4a.4.4,0,0,1-.4.4H84.74a.4.4,0,0,0-.29.67A27,27,0,0,0,86.72,24a.41.41,0,0,0,.65-.17,24.86,24.86,0,0,0,1-7.13V2.35A.39.39,0,0,1,88.76,2,39.39,39.39,0,0,0,100.31,0a.39.39,0,0,1,.49.23l1.78,4.5a.41.41,0,0,1-.23.53A34.07,34.07,0,0,1,93.85,7a.39.39,0,0,0-.37.39V9.48a.4.4,0,0,0,.4.4h8.45a.4.4,0,0,1,.4.4v4.64a.4.4,0,0,1-.4.4h-1.6a.4.4,0,0,0-.4.4v16a.4.4,0,0,1-.4.4H95.48a.39.39,0,0,1-.39-.4v-16a.4.4,0,0,0-.4-.4h-.81a.4.4,0,0,0-.4.4v1.07A39.88,39.88,0,0,1,92.71,24a25.6,25.6,0,0,1-2.9,7.65.41.41,0,0,1-.6.11ZM78.13,7.48c.16.77.31,1.66.4,2.17a.41.41,0,0,0,.4.33h1.28a.4.4,0,0,0,.39-.31c.13-.61.29-1.39.4-2.21A.39.39,0,0,0,80.61,7H78.52A.4.4,0,0,0,78.13,7.48Z"/><path class="cls-2" d="M126.05,1.5h5.25a.39.39,0,0,1,.39.4V6.71a.4.4,0,0,0,.4.4h4.25a.39.39,0,0,1,.4.39v4.75a.4.4,0,0,1-.4.4h-4.25a.4.4,0,0,0-.4.4v2.8c0,7.16-2.33,12.87-16.33,15.18a.42.42,0,0,1-.45-.25L113,26.15a.4.4,0,0,1,.33-.54c4.25-.5,7.51-1.58,9.82-3.21,1.8-1.27,2.47-3.34,2.47-6.58V13.05a.4.4,0,0,0-.4-.4H118.1a.39.39,0,0,0-.39.4V20a.4.4,0,0,1-.4.4h-5a.39.39,0,0,1-.39-.4V13.05a.4.4,0,0,0-.4-.4h-4a.4.4,0,0,1-.4-.4V7.5a.39.39,0,0,1,.4-.39h4a.4.4,0,0,0,.4-.4V1.93a.39.39,0,0,1,.39-.4h5a.4.4,0,0,1,.4.4V6.71a.39.39,0,0,0,.39.4h7.15a.4.4,0,0,0,.4-.4V1.9A.4.4,0,0,1,126.05,1.5Z"/><path class="cls-2" d="M168,7a.38.38,0,0,1,.39.39v5c0,2.24-.23,9.85-.93,12.82-.9,4-2.94,5.54-6.75,5.54a48,48,0,0,1-6-.46.39.39,0,0,1-.35-.37l-.29-5a.4.4,0,0,1,.47-.42,25.29,25.29,0,0,0,4.54.48c2,0,2.51-.44,2.84-2.07.17-1,.6-7.85.6-8.78V12.91a.4.4,0,0,0-.4-.4h-5.81a.41.41,0,0,0-.39.34c-2,11.45-9.08,16.3-11.65,17.92a.39.39,0,0,1-.5-.08l-3.46-3.86a.39.39,0,0,1,.11-.6c5.23-3,8.17-6.79,9.58-13.22a.42.42,0,0,0-.4-.5H142a.39.39,0,0,1-.4-.39V7.4A.39.39,0,0,1,142,7h8.38a.42.42,0,0,0,.4-.39c.12-2.19.14-3.76.14-4.82a.4.4,0,0,1,.4-.4l5.26.06a.41.41,0,0,1,.4.42c-.09,1.7-.15,2.89-.29,4.69a.42.42,0,0,0,.4.44Z"/><path class="cls-2" d="M191,30.74h-4.92a.68.68,0,0,1-.68-.67V18.48a.67.67,0,0,0-1-.58,48.94,48.94,0,0,1-9.05,3.9.71.71,0,0,1-.81-.31l-2.26-3.92a.67.67,0,0,1,.4-1,51.86,51.86,0,0,0,13.66-6.68,50.2,50.2,0,0,0,9.6-8.6.69.69,0,0,1,.9-.1l4.43,3.14a.27.27,0,0,1,.05.41A58.3,58.3,0,0,1,192,13a.71.71,0,0,0-.28.55V30.07A.67.67,0,0,1,191,30.74Z"/><path class="cls-2" d="M232.88,5.74c-.2,9.06-3.12,13-8.06,16.49a.27.27,0,0,1-.35,0l-3.87-3.42a.27.27,0,0,1,.05-.45,10.26,10.26,0,0,0,5.08-6,.28.28,0,0,0-.32-.35L218,13.11a.27.27,0,0,0-.23.31l2.29,16.7a.28.28,0,0,1-.25.32l-5.62.61a.28.28,0,0,1-.3-.24l-2.3-16.48a.28.28,0,0,0-.32-.24l-6.82,1a.28.28,0,0,1-.32-.23l-.81-5.23a.28.28,0,0,1,.24-.32l6.91-.92a.28.28,0,0,0,.24-.32l-.82-5.92a.29.29,0,0,1,.23-.32L215.78,1a.28.28,0,0,1,.31.24l.83,6a.28.28,0,0,0,.31.24l15.33-2A.28.28,0,0,1,232.88,5.74Z"/><path class="cls-2" d="M264.51,3.37a.29.29,0,0,1,.28.29c-.23,6.28-1.39,12.64-5.2,17.63-3.41,4.54-9.17,8-17,9.58a.3.3,0,0,1-.31-.16l-2.39-5a.29.29,0,0,1,.21-.4c14.37-2.7,16.66-9.62,17.81-15.82a.28.28,0,0,0-.28-.33H237.93a.29.29,0,0,1-.28-.28V3.65a.28.28,0,0,1,.28-.28Z"/><path class="cls-2" d="M296.55,13.39v5.52a.28.28,0,0,1-.28.28H267.41a.28.28,0,0,1-.28-.28V13.39a.29.29,0,0,1,.28-.28h28.86A.29.29,0,0,1,296.55,13.39Z"/><path class="cls-2" d="M323.42,30.84a80.36,80.36,0,0,0-8.74-9.07.29.29,0,0,0-.39,0,39,39,0,0,1-12.46,9.09.27.27,0,0,1-.34-.1l-3-4.52a.26.26,0,0,1,.13-.41A30.72,30.72,0,0,0,310,18.19a23.18,23.18,0,0,0,5.42-9.14.28.28,0,0,0-.27-.37H300.53a.28.28,0,0,1-.28-.28v-5a.27.27,0,0,1,.28-.28h19.52a.28.28,0,0,1,.28.22,31.26,31.26,0,0,1,.55,4.12l1.34-.23a38,38,0,0,1-4.11,9.73.28.28,0,0,0,.07.36,81.32,81.32,0,0,1,10,8.67.3.3,0,0,1,0,.4l-4.31,4.48A.27.27,0,0,1,323.42,30.84ZM321.88,6c-.19-1.5-.51-3.2-.86-4.73a.27.27,0,0,1,.24-.33l2.43-.28a.28.28,0,0,1,.3.19,44.46,44.46,0,0,1,1,4.65.28.28,0,0,1-.23.32l-2.55.42A.28.28,0,0,1,321.88,6Zm4.7-.59a44.31,44.31,0,0,0-.91-4.56.28.28,0,0,1,.24-.35l2.35-.27a.3.3,0,0,1,.31.2,32.16,32.16,0,0,1,1,4.54.29.29,0,0,1-.24.32l-2.42.35A.29.29,0,0,1,326.58,5.4Z"/></g></g></svg>